<svg xmlns="http://www.w3.org/2000/svg" version="1.1" xmlns:xlink="http://www.w3.org/1999/xlink" xmlns:svgjs="http://svgjs.dev/svgjs" viewBox="0 0 800 800"><defs><linearGradient x1="50%" y1="0%" x2="50%" y2="100%" id="wwwhirl-grad"><stop stop-color="hsl(206, 75%, 49%)" stop-opacity="1" offset="45%"></stop><stop stop-color="hsl(331, 90%, 56%)" stop-opacity="1" offset="100%"></stop></linearGradient></defs><g stroke-width="2" stroke="url(#wwwhirl-grad)" fill="none" stroke-linecap="round"><path d="M37.00000251770027 417.33238287468726C50.75000289917 404.7511325256425 75.50000358581553 359.21113126221474 103.000004348755 356.9423811992722C130.50000511169446 354.6736311363297 141.5000054168703 403.14238248101054 169.00000617980973 406.44238257256325C196.5000069427492 409.742382664116 207.50000724792503 371.7511316101151 235.00000801086446 372.7823816387253C262.500008773804 373.8136316673356 273.5000090789798 411.5986327156144 301.0000098419193 411.39238270989233C328.50001060485874 411.1861327041703 339.5000109100345 368.0798815082627 367.000011672974 371.79238161125954C394.50001243591345 375.5048817142563 405.5000127410893 430.0373832271654 433.0000135040287 429.21238320427716C460.5000142669682 428.38738318138894 471.50001457214404 361.64488132973486 499.0000153350834 367.83238150139624C526.5000160980228 374.0198816730576 537.5000164031987 464.48113418274704 565.0000171661382 458.9123840282518C592.5000179290777 453.3436338737565 603.5000182342535 346.87738092003633 631.000018997193 341.1023807598191C658.5000197601325 335.3273805996018 669.5000200653083 427.06738314476786 697.0000208282477 431.1923832592088C724.5000215911871 435.3173833736497 749.2500222778326 375.54613171540075 763.0000226593024 360.9023813091355 " transform="rotate(99, 400, 400)"></path><path d="M48.00000244140632 416.8071671273971C61.33333614464971 404.6071667889294 85.3333368104878 360.44716556378734 112.00000421697456 358.2471655027522C138.6666716234613 356.047165441717 149.33333858605602 403.04716674565 176.00000599254278 406.24716683442836C202.66667339902952 409.44716692320674 213.33334036162427 372.6071659011453 240.000007768111 373.60716592888855C266.6666751745978 374.6071659566318 277.3333421371925 411.2471669731446 304.00000954367925 411.04716696759596C330.66667695016605 410.8471669620473 341.3333439127607 369.0471658023793 368.00001131924745 372.64716590225504C394.66667872573424 376.2471660021307 405.33334568832896 429.127167469194 432.00001309481576 428.3271674469994C458.66668050130244 427.5271674248048 469.3333474638972 362.8071656292614 496.0000148703839 368.80716579572095C522.6666822768707 374.8071659621805 533.3333492394653 462.52716839581865 560.0000166459522 457.1271682460051C586.666684052439 451.7271680961915 597.3333510150337 348.487165231978 624.0000184215204 342.8871650766158C650.6666858280073 337.2871649212536 661.3333527906019 426.2471673892934 688.0000201970887 430.2471675002664C714.6666876035754 434.24716761123943 738.6666882694134 376.2871660032405 752.0000219726569 362.0871656092863 " transform="rotate(96, 400, 400)"></path><path d="M59.00000236511238 416.28192849192334C71.9166693901294 404.46317816403274 95.16667003516005 361.68317697717634 121.00000408519412 359.55192691804854C146.83333813522813 357.42067685892073 157.1666717552418 402.95192812210576 183.0000058052758 406.05192820810987C208.83333985530987 409.15192829411393 219.1666734753235 373.46317730399187 245.00000752535757 374.4319273308682C270.8333415753916 375.4006773577444 281.1666751954052 410.89567834249124 307.0000092454393 410.701928337116C332.83334329547336 410.50817833174074 343.16667691548696 370.0144272083123 369.00001096552097 373.50192730506694C394.83334501555504 376.98942740182156 405.1666786355687 428.2169288230391 431.0000126856027 427.44192880153804C456.8333467356368 426.666928780037 467.16668035565044 363.9694270406044 493.0000144056845 369.78192720186206C518.8333484557185 375.5944273631197 529.1666820757321 460.5731797207067 555.0000161257661 455.3419295755748C580.8333501758003 450.11067943044293 591.1666837958139 350.09692665573607 617.000017845848 344.67192650522895C642.8333518958821 339.2469263547218 653.1666855158957 425.4269287456354 679.0000195659296 429.3019288531405C704.8333536159636 433.17692896064557 728.0833542609943 377.0281774028966 741.0000212860114 363.2719270212535 " transform="rotate(93, 400, 400)"></path><path d="M70.00000228881842 415.7567089299359C82.50000263560909 404.31920861262245 105.00000325983231 362.91920746405174 130.00000395341365 360.8567074068313C155.00000464699497 358.7942073496108 165.00000492442751 402.8567085720479 190.00000561800886 405.85670865527766C215.0000063115902 408.85670873850745 225.00000658902275 374.3192077803248 250.00000728260406 375.25670780633413C275.00000797618543 376.1942078323434 285.000008253618 410.54420878532414 310.0000089471993 410.3567087801223C335.00000964078066 410.16920877492043 345.00000991821315 370.9817076877317 370.0000106117945 374.3567077813652C395.00001130537584 377.7317078749987 405.0000115828084 427.3067092503705 430.0000122763897 426.556709229563C455.000012969971 425.8067092087556 465.0000132474036 365.1317075254337 490.00001394098496 370.7567076814895C515.0000146345662 376.38170783754526 525.0000149119987 458.6192101190811 550.0000156055801 453.55670997863086C575.0000162991615 448.49420983818067 585.000016576594 351.70670715298047 610.0000172701755 346.4567070073284C635.0000179637568 341.2067068616763 645.0000182411893 424.6067091754637 670.0000189347705 428.3567092795009C695.0000196283519 432.1067093835381 717.5000202525752 377.76920787603905 730.0000205993658 364.45670750670695 " transform="rotate(90, 400, 400)"></path><path d="M81.00000221252448 415.23146647976483C93.08333588108879 404.1752161730285 114.83333648450457 364.1552150627435 139.0000038216332 362.16146500743037C163.1666711587618 360.16771495211725 172.83333809361326 402.7614661338065 197.0000054307419 405.6614662142619C221.16667276787052 408.5614662947173 230.833339702722 375.17521536847414 255.00000703985063 376.08146539361644C279.16667437697924 376.9877154187588 288.83334131183074 410.1927163399735 313.00000864895935 410.01146633494506C337.16667598608797 409.8302163299166 346.8333429209394 371.9489652789675 371.000010258068 375.2114653694798C395.16667759519663 378.4739654599922 404.8333445300481 426.3964667895183 429.00001186717674 425.67146676940445C453.16667920430535 424.94646674929055 462.8333461391569 366.2939651220794 487.00001347628546 371.7314652729333C511.1666808134141 377.16896542378726 520.8333477482655 456.66521762927187 545.0000150853941 451.77146749350334C569.1666824225229 446.8777173577348 578.8333493573742 353.3164647620413 603.000016694503 348.2414646212443C627.1666840316316 343.16646448044725 636.8333509664831 423.7864667171084 661.0000183036116 427.4114668176777C685.1666856407402 431.03646691824696 706.9166862441559 378.51021546099787 719.0000199127203 365.6414651039769 " transform="rotate(87, 400, 400)"></path><path d="M92.00000213623053 414.7062736206583C103.6666691265685 404.031273324499 124.66666970917683 365.39127225249973 148.00000368985275 363.46627219909396C171.33333767052864 361.5412721456882 180.666671262799 402.66627328662946 204.00000524347493 405.4662733643106C227.33333922415085 408.2662734419917 236.66667281642125 376.03127254768793 260.00000679709717 376.90627257196326C283.33334077777306 377.78127259623864 292.66667437004344 409.84127348568734 316.0000083507193 409.6662734808323C339.3333423313953 409.4912734759772 348.66667592366565 372.9162724612677 372.00000990434154 376.06627254865896C395.3333438850174 379.2162726360502 404.6666774772878 425.48627391973054 428.00001145796375 424.7862739003103C451.3333454386397 424.08627388088996 460.6666790309101 367.45627230978954 484.000013011586 372.7062724554416C507.33334699226185 377.9562726010937 516.6666805845323 454.7112747305271 540.0000145652082 449.98627459944026C563.3333485458841 445.26127446835335 572.6666821381544 354.92627196216654 596.0000161188304 350.0262718262246C619.3333500995063 345.1262716902827 628.6666836917767 422.9662738498175 652.0000176724526 426.46627394691893C675.3333516531285 429.9662740440203 696.3333522357368 379.2512726370212 708.0000192260748 366.8262722923113 " transform="rotate(84, 400, 400)"></path><path d="M103.00000205993659 414.18103117048724C114.25000237204819 403.8872808849051 134.5000029338491 366.6272798511915 157.00000355807228 364.77102979969305C179.50000418229547 362.91477974819463 188.5000044319848 402.57103084838803 211.00000505620795 405.27103092329486C233.50000568043117 407.9710309982016 242.50000593012047 376.8872801358373 265.0000065543437 377.7310301592456C287.5000071785669 378.57478018265397 296.5000074282562 409.48978104033665 319.0000080524794 409.321031035655C341.5000086767026 409.1522810309733 350.50000892639184 373.88353005250343 373.00000955061506 376.9210301367736C395.5000101748383 379.9585302210437 404.5000104245276 424.57603145887833 427.00001104875076 423.90103144015166C449.500011672974 423.226031421425 458.5000119226633 368.61852990643524 481.00001254688647 373.68103004688544C503.50001317110963 378.7435301873357 512.5000134207988 452.7572822407179 535.0000140450221 448.20103211431274C557.5000146692455 443.64478198790755 566.5000149189347 356.53602957122735 589.0000155431579 351.8110294401405C611.5000161673811 347.08602930905363 620.5000164170704 422.14603139146226 643.0000170412935 425.5210314850957C665.5000176655168 428.8960315787292 685.7500182273176 379.9922802219801 697.0000185394292 368.0110298895812 " transform="rotate(81, 400, 400)"></path><path d="M114.00000198364263 413.65581542319705C124.83333561752788 403.74331514819204 144.33333615852135 367.8633141527641 166.0000034262918 366.075814103173C187.6666706940623 364.288314053582 196.3333376011705 402.47581511302747 218.000004868941 405.0758151851599C239.6666721367115 407.67581525729236 248.3333390438197 377.74331442686747 270.0000063115902 378.55581444940884C291.6666735793607 379.3683144719502 300.33334048646896 409.1383152978669 322.0000077542394 408.9758152933586C343.6666750220099 408.81331528885033 352.3333419291181 374.8508143466201 374.0000091968886 377.7758144277691C395.6666764646591 380.70081450891814 404.3333433717673 423.66581570090705 426.0000106395378 423.0158156828739C447.66667790730827 422.3658156648408 456.3333448144165 369.7808142059618 478.00001208218697 374.65581434121015C499.66667934995746 379.5308144764585 508.33334625706556 450.80331645378953 530.0000135248362 446.415816332066C551.6666807926067 442.0283162103425 560.3333476997147 358.145813883169 582.0000149674854 353.5958137569372C603.6666822352558 349.0458136307054 612.3333491423641 421.3258156359878 634.0000164101345 424.57581572615334C655.666683677905 427.82581581631894 675.1666842188985 380.73331450981976 686.0000178527837 369.195814189732 " transform="rotate(78, 400, 400)"></path><path d="M125.00000190734869 413.13058823181507C135.41666886300757 403.59933796738716 154.1666693831936 369.09933701024494 175.00000329451137 367.3805869625612C195.83333720582914 365.6618369148775 204.16667077035626 402.3805879335751 225.00000468167406 404.8805880029332C245.83333859299182 407.38058807229135 254.16667215751897 378.5993372738058 275.00000606883674 379.38058729548027C295.8333399801545 380.16183731715466 304.16667354468166 408.7868381113053 325.0000074559994 408.63058810697044C345.8333413673172 408.47433810263556 354.16667493184434 375.8180871966449 375.00000884316205 378.6305872746728C395.8333427544799 381.44308735270073 404.166676319007 422.75558849884385 425.0000102303248 422.13058848150433C445.83334414164256 421.5055884641648 454.1666777061697 370.94308706139657 475.0000116174875 375.63058719144306C495.83334552880524 380.31808732148954 504.1666790933323 448.8493392227694 525.0000130046501 444.63058910572755C545.8333469159679 440.4118389886857 554.166680480495 359.7555867510189 575.0000143918128 355.38058662964215C595.8333483031306 351.0055865082654 604.1666818676579 420.5055884364216 625.0000157789755 423.63058852311923C645.8333496902933 426.75558860981687 664.5833502104794 381.4743373535677 675.0000171661382 370.38058704579095 " transform="rotate(75, 400, 400)"></path><path d="M136.00000183105476 412.6053610404331C146.00000210848728 403.45536078658233 164.00000260786584 370.33535986772574 184.00000316273093 368.68535982194936C204.00000371759597 367.03535977617304 212.000003939542 402.28536075412273 232.00000449440708 404.68536082070653C252.00000504927215 407.08536088729034 260.0000052712182 379.4553601207442 280.0000058260833 380.20536014155164C300.0000063809483 380.9553601623591 308.00000660289436 408.4353609247437 328.00000715775946 408.2853609205822C348.00000771262455 408.1353609164207 356.00000793457053 376.7853600466697 376.0000084894356 379.48536012157655C396.00000904430067 382.1853601964833 404.0000092662467 421.84536129678077 424.0000098211118 421.24536128013483C444.0000103759769 420.64536126348884 452.0000105979229 372.10535991683133 472.000011152788 376.60536004167597C492.000011707653 381.1053601665206 500.00001192959905 446.89536199174927 520.0000124844642 442.8453618793891C540.0000130393292 438.7953617670289 548.0000132612753 361.36535961886875 568.0000138161404 357.1653595023471C588.0000143710055 352.9653593858254 596.0000145929514 419.68536123685533 616.0000151478165 422.68536132008506C636.0000157026815 425.68536140331486 654.00001620206 382.2153601973156 664.0000164794926 371.56535990184994 " transform="rotate(72, 400, 400)"></path><path d="M146.9999864959717 412.0801414784456C156.5833200951779 403.311391235172 173.83332057374906 371.57139035460114 192.9999877721614 369.9901403107321C212.16665497057375 368.40889026686307 219.8333218499387 402.19014120406484 238.99998904835104 404.4901412678743C258.1666562467634 406.7901413316838 265.8333231261284 380.31139059707715 284.9999903245407 381.0301406170176C304.1666575229531 381.7488906369581 311.83332440231806 408.08389136757665 330.9999916007304 407.94014136358857C350.1666587991428 407.7963913596005 357.83332567850766 377.75264052608907 376.99999287692003 380.3401405978748C396.1666600753324 382.92764066966043 403.8333269546974 420.93514172411216 422.99999415310975 420.3601417081598C442.1666613515221 419.7851416922074 449.83332823088705 373.2676404016606 468.9999954292994 377.5801405213034C488.16666262771173 381.8926406409462 495.83332950707666 444.9413923901236 514.9999967054891 441.0601422824451C534.1666639039015 437.1788921747666 541.8333307832664 362.97514011611315 560.9999979816788 358.95014000444655C580.1666651800912 354.92513989277995 587.8333320594561 418.8651416666836 606.9999992578685 421.7401417464455C626.1666664562807 424.6151418262073 643.4166669348518 382.95639067045806 653.000000534058 372.7501403873035 " transform="rotate(69, 400, 400)"></path><path d="M157.99998641967778 411.55492191645817C167.1666533406576 403.16742168376163 183.6666537984213 372.80742084147647 201.99998764038094 371.2949207995148C220.33332148234058 369.78242075755315 227.66665501912445 402.094921654007 245.9999888610841 404.29492171504216C264.33332270304373 406.4949217760773 271.6666562398276 381.1674210734101 289.99999008178725 381.85492109248355C308.3333239237469 382.542421111557 315.6666574605308 407.7324218104096 333.99999130249046 407.5949218065949C352.3333251444501 407.45742180278023 359.6666586812339 378.71992100550847 377.99999252319355 381.194921074173C396.3333263651532 383.66992114283755 403.6666599019371 420.02492215144355 421.99999374389677 419.4749221361848C440.3333275858564 418.924922120926 447.6666611226403 374.4299208864899 465.9999949645999 378.55492100093085C484.3333288065595 382.67992111537177 491.6666623433434 442.987422788498 509.9999961853031 439.2749226855012C528.3333300272627 435.5624225825044 535.6666635640465 364.58492061335755 553.9999974060063 360.734920506546C572.3333312479659 356.8849203997345 579.6666647847499 418.0449220965119 597.9999986267094 420.79492217280585C616.3333324686689 423.5449222490998 632.8333329264326 383.69742114360054 641.9999998474125 373.934920872757 " transform="rotate(66, 400, 400)"></path><path d="M168.99998634338385 411.0297023544707C177.7499865861373 403.02345213235134 193.49998702309355 374.0434513283518 210.9999875086005 372.5997012882975C228.4999879941074 371.1559512482432 235.49998818831023 401.9997021039492 252.99998867381714 404.09970216221C270.49998915932406 406.19970222047084 277.49998935352687 382.023451549743 294.9999898390338 382.6797015679495C312.4999903245407 383.335951586156 319.4999905187435 407.3809522532425 336.99999100425043 407.2497022496012C354.49999148975735 407.11845224595993 361.49999168396016 379.6872014849278 378.9999921694671 382.04970155047124C396.49999265497405 384.41220161601467 403.4999928491768 419.11470257877494 420.9999933346837 418.58970256420974C438.4999938201907 418.06470254964455 445.4999940143935 375.5922013713192 462.9999944999004 379.52970148055823C480.4999949854073 383.4672015897973 487.4999951796101 441.0334531868724 504.99999566511707 437.48970308855723C522.4999961506239 433.94595299024206 529.4999963448267 366.19470111060195 546.9999968303338 362.5197010086455C564.4999973158407 358.84470090668907 571.4999975100434 417.2247025263402 588.9999979955503 419.8497025991662C606.4999984810572 422.4747026719923 622.2499989180135 384.43845161674295 630.999999160767 375.1197013582105 " transform="rotate(63, 400, 400)"></path><path d="M179.9999862670899 410.5044599042997C188.33331983161702 402.8794596927574 203.3333202477658 375.2794589270436 219.99998737682003 373.9044588888966C236.66665450587425 372.5294588507496 243.33332135749595 401.90445966570775 259.9999884865502 403.90445972119426C276.6666556156044 405.90445977668077 283.33332246722614 382.87945913789235 299.99998959628033 383.50445915523187C316.6666567253345 384.1294591725714 323.3333235769563 407.0294598078919 339.9999907060105 406.904459804424C356.6666578350647 406.7794598009561 363.3333246866864 380.65445907616356 379.9999918157406 382.90445913858593C396.6666589447948 385.15445920100825 403.33332579641655 418.2044601179228 419.9999929254708 417.7044601040511C436.666660054525 417.2044600901795 443.3333269061467 376.75445896796487 459.9999940352009 380.5044590720021C476.6666611642551 384.2544591760393 483.33332801587676 439.07946069706315 499.99999514493106 435.7044606034297C516.6666622739854 432.3294605097962 523.333329125607 367.80445871966276 539.9999962546613 364.30445862256136C556.6666633837156 360.80445852546 563.3333302353371 416.4044600679849 579.9999973643913 418.90446013734305C596.6666644934455 421.4044602067012 611.6666649095944 385.17945920170183 619.9999984741214 376.3044589554804 " transform="rotate(60, 400, 400)"></path><path d="M190.99998619079594 409.97924034231227C198.9166530770967 402.7354901413471 213.16665347243807 376.51548941391894 228.99998724503956 375.20923937767935C244.83332101764108 373.9029893414397 251.1666545266817 401.80924011564986 266.99998829928325 403.70924016836204C282.8333220718847 405.60924022107423 289.16665558092535 383.73548961422523 304.99998935352687 384.3292396306978C320.83332312612833 384.92298964717037 327.166656635169 406.67799025072486 342.9999904077705 406.55924024743035C358.833324180372 406.44049024413584 365.1666576894126 381.62173955558296 380.9999914620141 383.75923961488417C396.8333252346156 385.89673967418537 403.1666587436563 417.2942405452542 418.99999251625775 416.8192405320761C434.83332628885927 416.34424051889806 441.1666597978999 377.9167394527942 456.99999357050143 381.4792395516295C472.8333273431029 385.0417396504649 479.1666608521435 437.12549109543755 494.99999462474506 433.9192410064858C510.8333283973466 430.71299091753394 517.1666619063872 369.41423921690716 532.9999956789886 366.0892391246609C548.8333294515903 362.76423903241454 555.1666629606309 415.5842404978132 570.9999967332324 417.9592405637034C586.8333305058338 420.33424062959364 601.0833309011753 385.92048967484425 608.9999977874759 377.48923944093394 " transform="rotate(57, 400, 400)"></path><path d="M201.999986114502 409.4540245950221C209.49998632257638 402.591524404634 222.99998669711033 377.7515237154916 237.99998711325912 376.5140236811593C252.99998752940792 375.27652364682706 258.99998769586745 401.7140243802893 273.99998811201624 403.51402443022715C288.9999885281651 405.314024480165 294.99998869462456 384.5915239052554 309.9999891107734 385.154023920861C324.9999895269222 385.7165239364666 330.99998969338174 406.32652450825503 345.99999010953053 406.2140245051339C360.9999905256793 406.1015245020128 366.9999906921388 382.5890238496996 381.99999110828765 384.61402390587966C396.99999152443644 386.63902396205975 402.99999169089597 416.38402478728284 417.99999210704476 415.9340247747984C432.99999252319355 415.4840247623139 438.99999268965314 379.0790237523207 453.99999310580193 382.4540238459542C468.9999935219507 385.8290239395877 474.9999936884102 435.1715253085092 489.99999410455905 432.13402522423905C504.9999945207079 429.09652513996895 510.9999946871674 371.02402352884883 525.9999951033162 367.8740234414576C540.9999955194651 364.72402335406633 546.9999956859245 414.76402474233873 561.9999961020733 417.0140248047611C576.9999965182221 419.26402486718337 590.499996892756 386.661523962684 597.9999971008303 378.67402374108474 " transform="rotate(54, 400, 400)"></path><path d="M212.99998603820805 408.9287935889428C220.08331956805608 402.44754340913187 232.8333199217826 378.98754275827514 246.99998698147868 377.81879272585024C261.16665404117475 376.6500426934253 266.8333208650532 401.61879338613966 280.9999879247493 403.3187934333032C295.16665498444536 405.0187934804667 300.83332180832383 385.44754293749656 314.99998886801995 385.97879295223515C329.166655927716 386.51004296697374 334.83332275159444 405.9750435069962 348.99998981129056 405.8687935040485C363.1666568709866 405.76254350110077 368.83332369486504 383.5562928850271 382.99999075456117 385.4687929380861C397.16665781425723 387.3812929911451 402.8333246381357 415.47379377052243 416.9999916978318 415.04879375873156C431.1666587575279 414.6237937469407 436.8333255814063 380.2412927930582 450.99999264110244 383.42879288148987C465.1666597007985 386.61629296992146 470.8333265246769 433.21754426279176 484.99999358437304 430.3487941832033C499.16666064406917 427.4800441036149 504.8333274679476 372.63379258200143 518.9999945276437 369.6587924994653C533.1666615873398 366.68379241692907 538.8333284112182 413.94379372807526 552.9999954709143 416.0687937870297C567.1666625306103 418.1937938459841 579.9166628843368 387.4025429917346 586.9999964141849 379.85879278244647 " transform="rotate(51, 400, 400)"></path><path d="M223.9999859619141 408.40357402695537C230.6666528135358 402.3035738577215 242.66665314645485 380.22357324515053 255.99998684969822 379.1235732146329C269.3333205529416 378.0235731841153 274.66665403423895 401.5235738360818 287.99998773748234 403.123573880471C301.3333214407257 404.7235739248602 306.6666549220231 386.3035734138295 319.99998862526644 386.8035734277011C333.33332232850984 387.3035734415727 338.6666558098072 405.62357394982917 351.99998951305054 405.52357394705484C365.33332321629393 405.4235739442805 370.6666566975913 384.5235733644465 383.9999904008347 386.3235734143843C397.3333241040781 388.1235734643222 402.66665758537545 414.5635741978538 415.99999128861884 414.16357418675653C429.3333249918621 413.76357417565924 434.66665847315954 381.4035732778875 447.9999921764029 384.4035733611173C461.3333258796463 387.40357344434705 466.6666593609436 431.26357466116616 479.99999306418704 428.5635745862594C493.33332676743044 425.8635745113526 498.6666602487278 374.24357307924583 511.99999395197113 371.44357300156474C525.3333276552146 368.64357292388365 530.666661136512 413.12357415790353 543.9999948397553 415.12357421339004C557.3333285429986 417.12357426887655 569.3333288759177 388.1435734648771 575.9999957275394 381.0435732679 " transform="rotate(48, 400, 400)"></path><path d="M234.99998588562016 407.8783506502707C241.2499860590155 402.15960049161396 252.49998637112708 381.4595999173286 264.99998671791775 380.42834988871834C277.4999870647084 379.39709986010814 282.49998720342467 401.42835047132667 294.99998755021534 402.92835051294156C307.499987897006 404.42835055455646 312.4999880357223 387.15960007546516 324.999988382513 387.6283500884698C337.49998872930365 388.09710010147444 342.49998886801995 405.2721005779648 354.9999892148106 405.1783505753639C367.4999895616013 405.08460057276295 372.49998970031754 385.4908500291686 384.9999900471082 387.17835007598535C397.4999903938989 388.86585012280204 402.49999053261513 413.65335081048795 414.9999908794058 413.27835080008424C427.49999122619647 412.90335078968053 432.4999913649127 382.56584994801955 444.9999917117034 385.3783500260475C457.49999205849406 388.19085010407537 462.4999921972103 429.3096012448433 474.999992544001 426.7783511746182C487.4999928907917 424.24710110439304 492.49999302950795 375.85334976179297 504.9999933762987 373.22834968896694C517.4999937230893 370.6033496161409 522.4999938618056 412.3033507730346 534.9999942085963 414.1783508250532C547.4999945553868 416.05335087707175 558.7499948674986 388.88460012332223 564.9999950408939 382.2283499386562 " transform="rotate(45, 400, 400)"></path><path d="M245.9999858093262 407.3531291809346C251.83331930449518 402.015629032855 262.33331959579937 382.6956284968553 273.9999865861373 381.73312847015245C285.66665357647526 380.77062844344954 290.33332037261044 401.3331290139202 301.9999873629484 402.7331290527608C313.6666543532864 404.13312909160135 318.3333211494216 388.0156286444494 329.9999881397595 388.4531286565871C341.66665513009747 388.8906286687248 346.33332192623266 404.92062911344914 357.9999889165706 404.8331291110216C369.66665590690855 404.7456291085941 374.3333227030438 386.4581286012393 385.99998969338174 388.03312864493495C397.6666566837197 389.6081286886306 402.3333234798548 412.74312933047077 413.9999904701928 412.3931293207606C425.6666574605308 412.04312931105045 430.33332425666595 383.7281285255002 441.99999124700395 386.3531285983263C453.66665823734184 388.9781286711523 458.3333250334771 427.355629735869 469.999992023815 424.9931296703256C481.66665901415297 422.63062960478214 486.33332581028816 377.46312835168874 497.99999280062616 375.0131282837178C509.6666597909641 372.5631282157468 514.3333265870992 411.48312929551423 525.9999935774372 413.23312934406493C537.6666605677751 414.98312939261564 548.1666608590793 389.62562868911607 553.9999943542483 383.4131285167611 " transform="rotate(42, 400, 400)"></path><path d="M256.99998573303225 406.82789817485536C262.41665254997486 401.8716480373529 272.1666528204716 383.9316475396389 282.9999864543569 383.03789751484334C293.8333200882421 382.1441474900478 298.1666535417962 401.23789801977057 308.99998717568144 402.5378980558368C319.83332080956666 403.837898091903 324.1666542631208 388.87164767669054 334.999987897006 389.27789768796123C345.8333215308913 389.68414769923197 350.1666549844454 404.5691481121903 360.99998861833063 404.48789810993617C371.8333222522159 404.40664810768203 376.16665570577 387.42539763656686 386.99998933965526 388.8878976771414C397.8333229735405 390.3503977177159 402.1666564270946 411.83289831371036 412.9999900609798 411.50789830469375C423.83332369486504 411.1828982956772 428.1666571484192 384.8903975662377 438.9999907823044 387.3278976338619C449.83332441618967 389.7653977014861 454.16665786974374 425.4016486901516 464.999991503629 423.20789862928984C475.8333251375143 421.0141485684281 480.1666585910683 379.07289740484134 490.99999222495364 376.79789734172545C501.83332585883886 374.52289727860955 506.166659312393 410.66289828125076 516.9999929462782 412.2878983263335C527.8333265801634 413.9128983714163 537.5833268506601 390.36664771816675 542.9999936676028 384.59789755812284 " transform="rotate(39, 400, 400)"></path><path d="M267.9999856567383 406.3026786128679C272.99998579545456 401.72767848594253 281.9999860451438 385.16767802651424 291.99998632257643 384.3426780036261C301.9999866000089 383.51767798073786 305.99998671098194 401.14267846971273 315.9999869884145 402.3426785030046C325.99998726584704 403.54267853629653 329.99998737682006 389.7276781530235 339.99998765425255 390.1026781634272C349.9999879316851 390.4776781738309 353.9999880426581 404.2176785550232 363.99998832009067 404.14267855294247C373.9999885975232 404.06767855086173 377.9999887084962 388.39267811598626 387.9999889859287 389.7426781534396C397.9999892633613 391.092678190893 401.9999893743343 410.92267874104175 411.99998965176684 410.6226787327188C421.9999899291994 410.3226787243958 425.9999900401724 386.052678051067 435.9999903176049 388.3026781134893C445.99999059503745 390.55267817591164 449.99999070601046 423.447679088526 459.999990983443 421.4226790323459C469.99999126087556 419.3976789761658 473.9999913718486 380.68267790208574 483.9999916492811 378.5826778438249C493.9999919267137 376.4826777855641 497.99999203768664 409.84267871107903 507.9999923151192 411.3426787526939C517.9999925925517 412.84267879430877 526.999992842241 391.10767819130916 531.9999929809572 385.78267804357637 " transform="rotate(36, 400, 400)"></path><path d="M279.0000008392334 405.77745905088045C283.58333429972333 401.5837089345322 291.8333345286052 386.4037085133896 301.000001449585 385.64745849240876C310.1666683705648 384.89120847142794 313.8333351389567 401.0474589196549 323.0000020599366 402.14745895017245C332.16666898091637 403.24745898069006 335.83333574930833 390.5837086293564 345.00000267028815 390.92745863889314C354.166669591268 391.2712086484299 357.83333635965994 403.8662089978562 367.00000328063976 403.79745899594883C376.1666702016196 403.7287089940415 379.8333369700115 389.3599585954056 389.0000038909913 390.59745862973784C398.16667081197113 391.83495866407014 401.8333375803631 410.01245916837314 411.0000045013429 409.73745916074375C420.16667142232274 409.46245915311437 423.8333381907147 387.2149585358963 433.00000511169446 389.27745859311676C442.1666720326743 391.3399586503372 445.83333880106625 421.4937094869004 455.00000572204607 419.637459435402C464.1666726430259 417.78120938390356 467.8333394114178 382.29245839933014 477.0000063323977 380.3674583459244C486.1666732533775 378.4424582925186 489.83334002176946 409.0224591409073 499.0000069427492 410.3974591790543C508.166673863729 411.7724592172013 516.4166740926108 391.84870866445164 521.0000075531008 386.96745852902984 " transform="rotate(33, 400, 400)"></path><path d="M290.00000076293946 405.2522337668471C294.16666754520304 401.439733661076 301.66666775327747 387.63973327821907 310.00000131780456 386.9522332591456C318.33333488233166 386.2647332400721 321.6666683081425 400.9522336475511 330.0000018726696 401.9522336752944C338.33333543719675 402.9522337030376 341.6666688630076 391.43973338364344 350.0000024275347 391.7522333923132C358.3333359920618 392.06473340098296 361.66666941787264 403.51473371864324 370.0000029823998 403.4522337169093C378.3333365469269 403.38973371517534 381.66666997273774 390.32723335277905 390.00000353726483 391.45223338399023C398.3333371017919 392.57723341520136 401.66667052760283 409.10223387365863 410.0000040921299 408.8522338667228C418.333337656657 408.602233859787 421.6666710824679 388.3772332986797 430.00000464699497 390.2522333506983C438.3333382115221 392.1272334027169 441.6666716373329 419.53973416322884 450.00000520186006 417.8522341164121C458.3333387663872 416.1647340695954 461.666672192198 383.90223317452865 470.00000575672516 382.15223312597794C478.3333393212523 380.40223307742724 481.6666727470631 408.20223384868973 490.0000063115902 409.45223388336876C498.3333398761173 410.70223391804785 505.8333400841917 392.58973341554815 510.00000686645524 388.1522332924375 " transform="rotate(30, 400, 400)"></path><path d="M301.00000068664554 404.72701039016243C304.75000079068275 401.2957602949684 311.5000009779497 388.87575995039714 319.00000118602406 388.257009933231C326.5000013940985 387.6382599160649 329.5000014773283 400.857010282796 337.00000168540265 401.757010307765C344.5000018934771 402.6570103327339 347.5000019767068 392.29576004527905 355.00000218478124 392.5770100530819C362.50000239285566 392.8582600608847 365.5000024760854 403.1632603467789 373.00000268415977 403.1070103452183C380.5000028922342 403.05076034365777 383.50000297546393 391.2945100175011 391.00000318353835 392.3070100455912C398.5000033916127 393.3195100736813 401.5000034748425 408.19201048629276 409.00000368291694 407.96701048005053C416.5000038909913 407.7420104738083 419.5000039742211 389.5395099688117 427.00000418229547 391.2270100156285C434.5000043903699 392.91451006244523 437.50000447359963 417.585760746906 445.00000468167406 416.0670107047709C452.5000048897485 414.5482606626358 455.5000049729782 385.5120098570758 463.00000518105264 383.93700981338014C470.50000538912707 382.36200976968456 473.5000054723568 407.38201046382073 481.0000056804312 408.5070104950319C488.5000058885056 409.63201052624305 495.25000607577255 393.33076007399336 499.0000061798097 389.33700996319374 " transform="rotate(27, 400, 400)"></path><path d="M312.00000061035155 404.20178892082635C315.33333403616246 401.1517888362094 321.3333342026219 390.1117885299239 328.0000010542436 389.56178851466507C334.6666679058653 389.0117884994063 337.333334646514 400.76178882538954 344.0000014981357 401.5617888475841C350.6666683497574 402.36178886977876 353.3333350904061 393.15178861426335 360.0000019420278 393.4017886211992C366.6666687936495 393.651788628135 369.33333553429816 402.8117888822632 376.0000023859198 402.76178888087605C382.6666692375415 402.7117888794889 385.3333359781902 392.2617885895719 392.0000028298119 393.1617886145408C398.6666696814336 394.06178863950976 401.33333642208225 407.2817890062756 408.00000327370395 407.08178900072687C414.6666701253256 406.8817889951782 417.3333368659743 390.7017885462924 424.000003717596 392.2017885879073C430.6666705692177 393.7017886295222 433.33333730986635 415.63178923793174 440.00000416148805 414.28178920047833C446.66667101310975 412.9317891630249 449.3333377537584 387.12178844697155 456.0000046053801 385.721788408131C462.6666714570018 384.32178836929046 465.3333381976505 406.5617889863004 472.0000050492722 407.56178901404365C478.66667190089385 408.56178904178694 484.6666720673534 394.0717886397872 488.0000054931642 390.52178854129863 " transform="rotate(24, 400, 400)"></path><path d="M323.0000005340576 403.6765626831187C325.9166672816421 401.0078126090789 331.1666674272942 391.347812341079 337.0000009224632 390.8665623277276C342.83333441763216 390.38531231437616 345.1666678156997 400.6665625996115 351.0000013108687 401.36656261903175C356.8333348060377 402.066562638452 359.16666820410535 394.00781241487607 365.0000016992743 394.2265624209449C370.8333351944433 394.44531242701373 373.16666859251086 402.46031264937596 379.00000208767983 402.41656264816214C384.8333355828488 402.37281264694843 387.1666689809164 393.229062393271 393.0000024760854 394.0165624151188C398.83333597125437 394.80406243696666 401.16666936932194 406.37156275788675 407.00000286449097 406.1965627530317C412.83333635965994 406.0215627481766 415.1666697577275 391.8640623554015 421.0000032528965 393.1765623918145C426.83333674806545 394.4890624282275 429.1666701461331 413.67781296058587 435.00000364130204 412.4965629278142C440.833337136471 411.31531289504244 443.16667053453864 388.73156226849574 449.0000040297076 387.5065622345103C454.8333375248766 386.2815622005248 457.16667092294415 405.7415627404085 463.0000044181131 406.6165627646838C468.8333379132821 407.4915627889592 474.0833380589342 394.8128124372094 477.0000048065187 391.70656235103195 " transform="rotate(21, 400, 400)"></path><path d="M334.0000004577637 403.1513412137826C336.5000005271218 400.8638411503199 341.00000065196645 392.5838409206058 346.00000079068275 392.17134090916164C351.000000929399 391.75884089771756 353.0000009848855 400.571341142205 358.0000011236018 401.17134115885096C363.00000126231805 401.7713411754969 365.00000131780456 394.86384098386037 370.0000014565208 395.0513409890622C375.0000015952371 395.2388409942641 377.00000165072356 402.10884118486024 382.00000178943986 402.07134118381987C387.00000192815617 402.0338411827795 389.0000019836426 394.19634096534173 394.00000212235886 394.87134098406847C399.00000226107517 395.54634100279515 401.0000023165617 405.4613412778695 406.0000024552779 405.311341273708C411.0000025939942 405.16134126954654 413.00000264948073 393.02634093288214 418.000002788197 394.1513409640933C423.0000029269132 395.27634099530445 425.0000029823998 411.72384145161163 430.00000312111604 410.7113414235216C435.0000032598323 409.69884139543154 437.00000331531885 390.3413408583915 442.0000034540351 389.2913408292611C447.00000359275134 388.2413408001307 449.00000364823785 404.9213412628882 454.00000378695415 405.6713412836956C459.0000039256704 406.421341304503 463.50000405051503 395.55384100300324 466.00000411987315 392.8913409291368 " transform="rotate(18, 400, 400)"></path><path d="M344.99999656677244 402.6261149760749C347.08332995790425 400.71986492318933 350.83333006194147 393.8198647317609 354.99999684420504 393.47611472222417C359.16666362646856 393.13236471268743 360.833330339374 400.4761149164269 364.99999712163753 400.97611493029854C369.1666639039011 401.4761149441702 370.8333306168065 395.7198647844731 374.9999973990701 395.87611478880797C379.16666418133366 396.03236479314285 380.83333089423905 401.757364951973 384.99999767650263 401.726114951106C389.16666445876615 401.69486495023904 390.8333311716716 395.1636147690409 394.9999979539351 395.7261147846465C399.1666647361987 396.28861480025205 400.83333144910415 404.5511150294807 404.9999982313677 404.4261150260128C409.16666501363125 404.3011150225449 410.8333317265367 394.1886147419912 414.9999985088002 395.12611476800055C419.1666652910638 396.0636147940098 420.8333320039692 409.7698651742658 424.99999878623277 408.9261151508574C429.16666556849634 408.08236512744907 430.83333228140174 391.9511146799157 434.9999990636653 391.07611465564037C439.1666658459289 390.201114631365 440.8333325588343 404.10111501699623 444.9999993410978 404.72611503433575C449.1666661233614 405.35111505167527 452.9166662273986 396.29486480042544 454.99999961853035 394.0761147388701 " transform="rotate(15, 400, 400)"></path><path d="M355.9999964904785 402.1008935067388C357.66666320338396 400.5758934644304 360.6666632866137 395.0558933112876 363.99999671242455 394.7808933036582C367.3333301382354 394.50589329602883 368.66666350855974 400.38089345902046 371.9999969343706 400.78089347011775C375.33333036018144 401.18089348121504 376.6666637305058 396.5758933534574 379.9999971563166 396.7008933569253C383.3333305821275 396.8258933603932 384.6666639524518 401.40589348745726 387.9999973782626 401.3808934867637C391.3333308040735 401.3558934860701 392.66666417439785 396.13089334111163 395.99999760020864 396.5808933535961C399.33333102601955 397.03089336608053 400.6666643963439 403.64089354946344 403.9999978221547 403.5408935466891C407.33333124796553 403.4408935439148 408.6666646182899 395.3508933194719 411.9999980441007 396.1008933402793C415.33333146991157 396.8508933610868 416.6666648402359 407.8158936652915 419.99999826604676 407.14089364656485C423.3333316918576 406.46589362783817 424.66666506218195 393.56089326981146 427.9999984879928 392.8608932503912C431.33333191380365 392.1608932309709 432.666665284128 403.28089353947587 435.99999870993884 403.7808935533475C439.33333213574963 404.28089356721915 442.3333322189794 397.0358933662193 443.9999989318849 395.260893316975 " transform="rotate(12, 400, 400)"></path><path d="M366.9999964141846 401.57567013005416C368.2499964488636 400.4319200983228 370.499996511286 396.29191998346573 372.9999965806441 396.0856699777437C375.49999665000223 395.87941997202165 376.49999667774546 400.28567009426536 378.99999674710364 400.5856701025883C381.49999681646176 400.8856701109113 382.49999684420504 397.43192001509306 384.9999969135631 397.525670017694C387.4999969829213 397.6194200202949 388.4999970106645 401.05442011559296 390.9999970800227 401.0356701150728C393.4999971493808 401.0169201145526 394.49999717712404 397.0981700058337 396.99999724648217 397.43567001519705C399.49999731584035 397.7731700245604 400.4999973435836 402.73067016209757 402.9999974129417 402.6556701600168C405.4999974822998 402.5806701579361 406.4999975100431 396.5131699896039 408.9999975794012 397.0756700052095C411.49999764875935 397.6381700208151 412.49999767650263 405.86192024896866 414.99999774586075 405.35567023492365C417.4999978152189 404.84942022087864 418.49999784296216 395.1706699523586 420.9999979123203 394.6456699377934C423.4999979816784 394.1206699232282 424.4999980094217 402.46067015460693 426.9999980787798 402.83567016501064C429.49999814813793 403.21067017541435 431.74999821056025 397.77692002466443 432.99999824523934 396.44566998773126 " transform="rotate(9, 400, 400)"></path><path d="M378.0000001525879 401.05044675336944C378.8333335090406 400.2879467322152 380.3333335506555 397.5279466556438 382.0000002635609 397.3904466518291C383.66666697646633 397.2529466480144 384.3333336616285 400.1904467295102 386.0000003745339 400.39044673505884C387.66666708743935 400.59044674060755 388.3333337726015 398.28794667672867 390.0000004855069 398.3504466784626C391.66666719841237 398.41294668019657 392.33333388357454 400.70294674372866 394.00000059647994 400.69044674338187C395.6666673093854 400.6779467430351 396.33333399454756 398.06544667055584 398.00000070745295 398.29044667679807C399.6666674203584 398.5154466830403 400.3333341055206 401.82044677473175 402.000000818426 401.7704467733446C403.6666675313314 401.7204467719574 404.33333421649354 397.67544665973594 406.000000929399 398.05044667013965C407.66666764230445 398.42544668054336 408.33333432746656 403.9079468326458 410.000001040372 403.5704468232824C411.66666775327747 403.23294681391906 412.3333344384396 396.78044663490573 414.00000115134503 396.4304466251956C415.6666678642505 396.08044661548547 416.3333345494126 401.64044676973793 418.00000126231805 401.89044677667374C419.66666797522345 402.14044678360955 421.16666801683834 398.51794668310964 422.00000137329107 397.6304466584875 " transform="rotate(6, 400, 400)"></path><path d="M389.00000007629393 400.5252233766847C389.4166667545203 400.1439733661076 390.1666667753277 398.76397332782193 391.00000013178044 398.6952233259145C391.83333348823317 398.6264733240072 392.1666668308143 400.0952233647551 393.00000018726695 400.1952233675294C393.8333335437197 400.29522337030375 394.16666688630073 399.14397333836433 395.00000024275346 399.1752233392313C395.8333335992062 399.2064733400983 396.1666669417873 400.3514733718643 397.00000029823997 400.3452233716909C397.8333336546927 400.3389733715175 398.16666699727375 399.0327233352779 399.0000003537265 399.14522333839903C399.8333337101792 399.25772334152015 400.16666705276026 400.9102233873659 401.000000409213 400.8852233866723C401.8333337656657 400.8602233859787 402.16666710824677 398.83772332986797 403.0000004646995 399.0252233350698C403.8333338211522 399.2127233402717 404.1666671637333 401.95397341632287 405.000000520186 401.7852234116412C405.83333387663873 401.6164734069595 406.1666672192198 398.39022331745286 407.0000005756725 398.2152233125978C407.83333393212524 398.04022330774274 408.1666672747063 400.820223384869 409.000000631159 400.9452233883369C409.8333339876117 401.0702233918048 410.5833340084192 399.2589733415548 411.00000068664554 398.81522332924374 " transform="rotate(3, 400, 400)"></path></g></svg>