<svg width="569" height="479" fill="none" xmlns="http://www.w3.org/2000/svg"><g filter="url(#a)"><path d="M60.66 39.373H45.485c-1.397 0-2.53 1.095-2.53 2.446v14.678c0 1.35 1.133 2.446 2.53 2.446H60.66c1.397 0 2.53-1.095 2.53-2.446V41.819c0-1.351-1.133-2.446-2.53-2.446Z" fill="#fff"/></g><g filter="url(#b)"><path d="M14 21.245C14 17.244 17.07 14 20.858 14h451.284c3.788 0 6.858 3.244 6.858 7.245v319.51c0 4.001-3.07 7.245-6.858 7.245H20.858C17.07 348 14 344.756 14 340.755V21.245Z" fill="#fff"/></g><rect x="404" y="68" width="45" height="11" rx="2" fill="#00BC98"/><path d="M411.247 76c1.551 0 2.491-.96 2.491-2.55 0-1.586-.94-2.54-2.476-2.54h-1.82V76h1.805Zm-.728-.922V71.83h.686c.954 0 1.459.487 1.459 1.619 0 1.136-.505 1.628-1.462 1.628h-.683Zm5.722.997c1.158 0 1.879-.793 1.879-1.97 0-1.182-.721-1.973-1.879-1.973-1.159 0-1.88.79-1.88 1.974 0 1.176.721 1.969 1.88 1.969Zm.004-.82c-.534 0-.807-.49-.807-1.157 0-.666.273-1.158.807-1.158.525 0 .798.492.798 1.158 0 .667-.273 1.156-.798 1.156Zm3.221.745h1.118l.657-2.401h.047l.656 2.401h1.121l1.037-3.818h-1.069l-.582 2.55h-.032l-.626-2.55h-1.052l-.616 2.565h-.035l-.592-2.565h-1.071L419.466 76Zm6.26-2.207c.002-.493.295-.78.723-.78.425 0 .681.277.679.745V76h1.059v-2.431c0-.89-.522-1.437-1.318-1.437-.567 0-.977.278-1.148.724h-.045v-.674h-1.009V76h1.059v-2.207Zm4.354-2.884h-1.059V76h1.059v-5.09Zm2.574 5.166c1.158 0 1.879-.793 1.879-1.97 0-1.182-.721-1.973-1.879-1.973-1.159 0-1.88.79-1.88 1.974 0 1.176.721 1.969 1.88 1.969Zm.005-.82c-.535 0-.808-.49-.808-1.157 0-.666.273-1.158.808-1.158.524 0 .797.492.797 1.158 0 .667-.273 1.156-.797 1.156Zm3.651.817c.564 0 .93-.246 1.116-.602h.03V76h1.004v-2.575c0-.91-.77-1.293-1.62-1.293-.915 0-1.517.438-1.663 1.134l.979.08c.072-.254.298-.44.679-.44.36 0 .566.18.566.494v.015c0 .246-.261.278-.924.343-.756.07-1.435.323-1.435 1.176 0 .755.54 1.138 1.268 1.138Zm.303-.73c-.325 0-.559-.152-.559-.443 0-.299.246-.445.619-.497.231-.033.609-.087.736-.172v.405c0 .4-.331.706-.796.706Zm4.076.72c.616 0 .937-.355 1.084-.674h.044V76h1.045v-5.09h-1.057v1.913h-.032c-.142-.31-.448-.69-1.087-.69-.837 0-1.546.65-1.546 1.963 0 1.278.679 1.966 1.549 1.966Zm.336-.843c-.52 0-.803-.462-.803-1.128 0-.661.278-1.116.803-1.116.514 0 .802.435.802 1.116s-.293 1.129-.802 1.129Z" fill="#fff"/><mask id="c" style="mask-type:alpha" maskUnits="userSpaceOnUse" x="42" y="38" width="23" height="22"><path d="M42 38h22.501v22H42V38Z" fill="#fff"/></mask><g mask="url(#c)"><path opacity=".5" d="M45.423 51.975a.666.666 0 0 0 .167.747.696.696 0 0 0 .505.185.706.706 0 0 0 .489-.225.676.676 0 0 0 .14-.232l.33-.88c.11-.297.312-.553.576-.733.264-.18.58-.278.901-.278h.702c.66 0 1.251.404 1.478 1.01l.322.862a.715.715 0 0 0 .378.396.74.74 0 0 0 .555.02.718.718 0 0 0 .405-.37.693.693 0 0 0 .02-.542l-2.392-6.13a1.14 1.14 0 0 0-.426-.531 1.18 1.18 0 0 0-1.317 0 1.14 1.14 0 0 0-.426.53l-2.407 6.17Zm3.46-2.688a.69.69 0 0 1-.556-.283.65.65 0 0 1-.08-.607c.218-.578 1.052-.578 1.27 0a.647.647 0 0 1-.08.607.674.674 0 0 1-.555.283Z" fill="#0070CC"/><path opacity=".5" d="M52.766 46.512c0 2.254 1.46 4.015 3.957 4.015 1.544 0 2.74-.664 3.364-1.88.187-.361-.054-.774-.452-.882-.404-.11-.806.14-1.026.488-.376.596-1.018.95-1.886.95-1.59 0-2.432-1.23-2.432-2.69 0-1.45.874-2.691 2.442-2.691.847 0 1.436.344 1.792.939.217.362.629.617 1.044.505.399-.107.648-.512.471-.879-.572-1.186-1.778-1.89-3.307-1.89-2.389 0-3.967 1.783-3.967 4.015Z" fill="#820F87"/><path opacity=".5" d="M51.334 55.263c0 .85.704 1.538 1.573 1.538h1.595c1.504 0 2.517-.887 2.517-2.263 0-.156-.014-.305-.042-.446-.162-.801-.331-2.273-.331-3.09 0-1.23-.928-2.023-2.325-2.023h-1.413c-.87 0-1.574.689-1.574 1.538v4.746Zm2.859-5.064c.619 0 1.024.386 1.024.96 0 .615-.405 1.001-1.024 1.001h-.395c-.266 0-.521-.103-.709-.287a.97.97 0 0 1-.294-.693c0-.26.106-.51.294-.693.188-.184.443-.287.709-.287h.395Zm.245 3.212c.661 0 1.11.428 1.11 1.106 0 .647-.438 1.064-1.11 1.064h-.533c-.295 0-.577-.114-.785-.317a1.072 1.072 0 0 1-.325-.767c0-.288.117-.564.325-.767.208-.203.49-.318.785-.318h.533Z" fill="#008275"/></g><path d="M85.075 46.91c-.303-2.52-2.21-3.968-4.735-3.968-2.882 0-5.082 2.035-5.082 5.603 0 3.559 2.163 5.604 5.082 5.604 2.796 0 4.485-1.859 4.735-3.867l-2.333-.01c-.218 1.166-1.135 1.837-2.365 1.837-1.657 0-2.78-1.23-2.78-3.564 0-2.269 1.107-3.563 2.796-3.563 1.262 0 2.173.73 2.349 1.928h2.333Zm3.88-3.82h-2.269V54h2.27V43.09ZM90.774 54h2.27v-8.182h-2.27V54Zm1.14-9.236c.677 0 1.23-.517 1.23-1.151 0-.629-.553-1.145-1.23-1.145-.67 0-1.225.516-1.225 1.145 0 .634.554 1.15 1.225 1.15Zm6.676 9.396c2.024 0 3.388-.986 3.707-2.504l-2.098-.138c-.23.623-.815.948-1.572.948-1.134 0-1.854-.751-1.854-1.971v-.005h5.572v-.623c0-2.781-1.683-4.155-3.846-4.155-2.407 0-3.968 1.71-3.968 4.234 0 2.595 1.54 4.214 4.059 4.214Zm-1.817-5.076c.048-.933.757-1.678 1.764-1.678.985 0 1.667.703 1.672 1.678h-3.436Zm9.322.186c.006-1.055.634-1.673 1.55-1.673.911 0 1.46.597 1.455 1.598V54h2.269v-5.21c0-1.907-1.119-3.078-2.823-3.078-1.215 0-2.094.596-2.461 1.55h-.096v-1.444h-2.163V54h2.269v-4.73Zm11.414-3.452h-1.539v-1.96h-2.27v1.96h-1.118v1.705h1.118v4.261c-.01 1.603 1.082 2.397 2.728 2.328a4.407 4.407 0 0 0 1.23-.213l-.357-1.689c-.112.021-.351.075-.564.075-.453 0-.767-.17-.767-.8v-3.962h1.539v-1.705Zm3.746-2.727h-1.704v1.161c0 .9-.32 1.555-.677 2.12l1.001.591c.752-.628 1.38-1.747 1.38-2.721V43.09Zm7.294 5.06c-.203-1.507-1.417-2.44-3.484-2.44-2.093 0-3.473.97-3.468 2.547-.005 1.225.767 2.019 2.365 2.338l1.417.283c.714.143 1.039.404 1.05.815-.011.484-.538.83-1.332.83-.81 0-1.348-.346-1.486-1.012l-2.232.118c.213 1.566 1.545 2.53 3.713 2.53 2.12 0 3.638-1.081 3.643-2.695-.005-1.183-.778-1.892-2.365-2.216l-1.481-.299c-.762-.165-1.044-.426-1.038-.82-.006-.49.548-.81 1.251-.81.789 0 1.257.432 1.369.96l2.078-.129ZM133.677 54h2.237v-1.31h.102c.314.681 1.001 1.443 2.322 1.443 1.864 0 3.319-1.475 3.319-4.213 0-2.813-1.518-4.208-3.314-4.208-1.368 0-2.024.815-2.327 1.48h-.07v-4.101h-2.269V54Zm2.222-4.09c0-1.46.617-2.393 1.72-2.393 1.124 0 1.721.975 1.721 2.392 0 1.428-.608 2.418-1.721 2.418-1.092 0-1.72-.958-1.72-2.418Zm7.272 4.09h2.269v-4.629c0-1.007.735-1.7 1.736-1.7.315 0 .746.054.959.123v-2.013a3.398 3.398 0 0 0-.713-.08c-.917 0-1.668.533-1.966 1.545h-.085v-1.428h-2.2V54Zm8.236.154c1.209 0 1.992-.527 2.392-1.289h.064V54h2.152v-5.519c0-1.949-1.651-2.77-3.473-2.77-1.96 0-3.249.938-3.564 2.43l2.099.17c.154-.543.639-.943 1.454-.943.773 0 1.215.39 1.215 1.06v.032c0 .528-.56.597-1.982.735-1.619.15-3.073.693-3.073 2.52 0 1.62 1.155 2.44 2.716 2.44Zm.65-1.566c-.698 0-1.198-.325-1.198-.948 0-.639.527-.953 1.326-1.065.495-.07 1.305-.187 1.577-.368v.869c0 .857-.709 1.512-1.705 1.512Zm7.987-3.318c.006-1.055.634-1.673 1.551-1.673.91 0 1.459.597 1.454 1.598V54h2.269v-5.21c0-1.907-1.119-3.078-2.823-3.078-1.215 0-2.094.596-2.461 1.55h-.096v-1.444h-2.163V54h2.269v-4.73Zm10.077 4.863c1.321 0 2.008-.762 2.323-1.443h.096V54h2.237V43.09h-2.264v4.102h-.069c-.304-.665-.959-1.48-2.328-1.48-1.795 0-3.313 1.395-3.313 4.208 0 2.738 1.454 4.213 3.318 4.213Zm.719-1.806c-1.113 0-1.72-.99-1.72-2.418 0-1.417.596-2.392 1.72-2.392 1.103 0 1.721.933 1.721 2.392 0 1.46-.629 2.418-1.721 2.418Zm11.543-3.057c.006-1.055.634-1.673 1.55-1.673.911 0 1.46.597 1.455 1.598V54h2.269v-5.21c0-1.907-1.119-3.078-2.823-3.078-1.215 0-2.094.596-2.461 1.55h-.096v-1.444h-2.163V54h2.269v-4.73Zm9.395 4.884c1.209 0 1.992-.527 2.392-1.289h.064V54h2.152v-5.519c0-1.949-1.651-2.77-3.473-2.77-1.96 0-3.249.938-3.564 2.43l2.099.17c.155-.543.639-.943 1.454-.943.773 0 1.215.39 1.215 1.06v.032c0 .528-.56.597-1.982.735-1.619.15-3.073.693-3.073 2.52 0 1.62 1.156 2.44 2.716 2.44Zm.65-1.566c-.698 0-1.198-.325-1.198-.948 0-.639.527-.953 1.326-1.065.495-.07 1.305-.187 1.577-.368v.869c0 .857-.709 1.512-1.705 1.512ZM198.146 54h2.27v-4.911c0-.906.575-1.508 1.331-1.508.746 0 1.247.512 1.247 1.316V54h2.2v-4.996c0-.847.484-1.423 1.31-1.423.724 0 1.268.453 1.268 1.364V54h2.264v-5.502c0-1.774-1.055-2.786-2.579-2.786-1.198 0-2.13.612-2.466 1.55h-.085c-.261-.948-1.097-1.55-2.221-1.55-1.103 0-1.939.586-2.28 1.55h-.096v-1.444h-2.163V54Zm17.411.16c2.024 0 3.388-.986 3.707-2.504l-2.099-.138c-.229.623-.815.948-1.571.948-1.135 0-1.854-.751-1.854-1.971v-.005h5.572v-.623c0-2.781-1.683-4.155-3.846-4.155-2.408 0-3.968 1.71-3.968 4.234 0 2.595 1.539 4.214 4.059 4.214Zm-1.817-5.076c.048-.933.757-1.678 1.763-1.678.986 0 1.668.703 1.673 1.678h-3.436Z" fill="#171A22"/><path d="M42.56 73.91V79h.73v-3.686h.047l1.502 3.679h.606l1.502-3.677h.047V79h.73v-5.09h-.931l-1.621 3.957h-.06l-1.62-3.958h-.933Zm6.692 6.522c.614 0 1.002-.32 1.223-.922l1.578-4.32-.803-.008-.967 2.963h-.04l-.967-2.963h-.795l1.397 3.868-.092.253c-.189.507-.455.55-.862.438l-.18.609c.09.04.284.082.508.082ZM54.666 79h.768v-1.927h1.094L57.562 79h.875l-1.129-2.06c.624-.232.935-.751.935-1.435 0-.937-.582-1.596-1.763-1.596h-1.814V79Zm.768-2.588v-1.844h.964c.758 0 1.072.36 1.072.937 0 .574-.313.907-1.062.907h-.974Zm5.282 2.665c.832 0 1.421-.41 1.59-1.031l-.703-.127c-.134.36-.457.544-.88.544-.636 0-1.064-.413-1.084-1.148h2.715v-.264c0-1.38-.826-1.919-1.69-1.919-1.065 0-1.766.81-1.766 1.984 0 1.186.691 1.961 1.818 1.961Zm-1.074-2.32c.03-.541.422-1.01 1.026-1.01.577 0 .955.427.957 1.01h-1.983Zm3.536 3.675h.744v-2.026h.044c.135.243.408.669 1.104.669.925 0 1.596-.741 1.596-1.977 0-1.238-.681-1.966-1.603-1.966-.709 0-.965.433-1.097.669h-.062v-.62h-.726v5.25Zm.729-3.341c0-.798.348-1.328.996-1.328.674 0 1.012.57 1.012 1.328 0 .766-.348 1.35-1.012 1.35-.638 0-.996-.547-.996-1.35Zm5.2 1.986c1.076 0 1.78-.788 1.78-1.969 0-1.188-.704-1.976-1.78-1.976s-1.78.788-1.78 1.976c0 1.181.704 1.97 1.78 1.97Zm.002-.624c-.703 0-1.031-.614-1.031-1.347 0-.731.328-1.352 1.031-1.352.699 0 1.027.621 1.027 1.352 0 .733-.328 1.347-1.026 1.347Zm2.607.547h.744v-2.332c0-.5.385-.86.912-.86.154 0 .328.028.388.045v-.711a3.032 3.032 0 0 0-.316-.017c-.447 0-.83.253-.97.663h-.04v-.606h-.718V79Zm4.695-3.818h-.783v-.915h-.743v.915h-.56v.596h.56v2.255c-.003.694.527 1.03 1.113 1.017.236-.003.395-.047.483-.08l-.135-.614c-.05.01-.142.032-.26.032-.242 0-.458-.08-.458-.51v-2.1h.783v-.596Zm3.622.932c-.154-.594-.62-.982-1.445-.982-.862 0-1.474.455-1.474 1.131 0 .542.328.902 1.044 1.062l.647.141c.368.082.54.246.54.485 0 .296-.317.527-.804.527-.445 0-.73-.191-.82-.567l-.719.11c.125.676.687 1.056 1.544 1.056.922 0 1.561-.49 1.561-1.18 0-.54-.343-.873-1.044-1.035l-.606-.139c-.42-.1-.602-.241-.6-.5-.002-.293.316-.502.739-.502.462 0 .676.256.763.512l.674-.119Z" fill="#898D9A"/><path d="M52.717 98.727V106h1.264v-5.007h.068l2.01 4.986h.945l2.01-4.975h.067V106h1.264v-7.273h-1.612l-2.16 5.27h-.084l-2.16-5.27h-1.612Zm11.385 7.38c1.598 0 2.614-1.126 2.614-2.813 0-1.69-1.016-2.82-2.614-2.82-1.598 0-2.613 1.13-2.613 2.82 0 1.687 1.015 2.813 2.613 2.813Zm.007-1.03c-.884 0-1.317-.789-1.317-1.787 0-.997.433-1.796 1.317-1.796.87 0 1.304.799 1.304 1.796 0 .998-.434 1.787-1.304 1.787Zm4.984-2.273c0-.788.475-1.243 1.154-1.243.664 0 1.061.437 1.061 1.165V106h1.286v-3.473c.004-1.307-.742-2.053-1.868-2.053-.817 0-1.378.391-1.626.998h-.064v-.927h-1.229V106h1.285v-3.196Zm7.531-2.259H75.55v-1.306h-1.286v1.306h-.774v.995h.774v3.032c-.007 1.027.739 1.531 1.704 1.503a2.6 2.6 0 0 0 .757-.128l-.217-1.005a1.597 1.597 0 0 1-.376.049c-.323 0-.582-.113-.582-.632v-2.819h1.075v-.995Zm2.478 2.259c0-.788.49-1.243 1.18-1.243.674 0 1.072.43 1.072 1.165V106h1.285v-3.473c0-1.317-.745-2.053-1.878-2.053-.838 0-1.371.38-1.623.998h-.064v-2.745h-1.257V106h1.285v-3.196Zm6.133-4.077H83.95V106h1.285v-7.273Zm2.121 9.318c1.001 0 1.58-.514 1.89-1.384l2.19-6.108-1.374-.008-1.26 4.12h-.058l-1.257-4.12h-1.363l1.978 5.569-.11.294c-.238.622-.615.664-1.176.501l-.298 1.002c.174.071.486.134.838.134Zm11.462-7.318h1.268c-.025-1.23-1.073-2.1-2.62-2.1-1.528 0-2.675.86-2.671 2.146 0 1.044.742 1.644 1.939 1.953l.827.213c.785.199 1.303.444 1.307 1.008-.004.622-.593 1.037-1.453 1.037-.823 0-1.463-.369-1.516-1.132h-1.296c.053 1.445 1.13 2.258 2.823 2.258 1.744 0 2.756-.87 2.759-2.152-.003-1.261-1.044-1.836-2.137-2.095l-.682-.171c-.597-.142-1.243-.394-1.236-1.001.004-.547.494-.948 1.317-.948.785 0 1.304.366 1.371.984ZM101.36 106h4.758v-1.104h-3.441v-1.985h3.168v-1.105h-3.168v-1.974h3.413v-1.105h-4.73V106Zm12.573-3.636c0-2.351-1.435-3.736-3.342-3.736-1.91 0-3.342 1.385-3.342 3.736 0 2.347 1.432 3.735 3.342 3.735 1.907 0 3.342-1.385 3.342-3.735Zm-1.325 0c0 1.654-.831 2.553-2.017 2.553-1.182 0-2.017-.899-2.017-2.553 0-1.655.835-2.554 2.017-2.554 1.186 0 2.017.899 2.017 2.554Z" fill="#575C66"/><path d="m52.99 121 .467-1.347h1.988L55.91 121h.816l-1.832-5.091h-.888L52.174 121h.815Zm.69-1.994.751-2.172h.04l.75 2.172h-1.54Zm6.14.411c.002.648-.48.957-.898.957-.46 0-.778-.334-.778-.853v-2.339h-.743v2.428c0 .948.52 1.44 1.253 1.44.574 0 .964-.304 1.14-.711h.04V121h.731v-3.818h-.745v2.235Zm3.526-2.235h-.783v-.915h-.743v.915h-.56v.596h.56v2.255c-.002.694.527 1.029 1.114 1.017.236-.003.395-.048.482-.08l-.134-.614c-.05.01-.142.032-.261.032-.241 0-.458-.079-.458-.509v-2.101h.783v-.596Zm2.39 3.895c1.076 0 1.78-.788 1.78-1.969 0-1.188-.704-1.976-1.78-1.976-1.077 0-1.78.788-1.78 1.976 0 1.181.703 1.969 1.78 1.969Zm.002-.624c-.703 0-1.031-.614-1.031-1.347 0-.731.328-1.352 1.031-1.352.699 0 1.027.621 1.027 1.352 0 .733-.328 1.347-1.027 1.347Zm4.857-1.926h-2.257v.643h2.257v-.643Zm3.41.89c.002.648-.48.957-.898.957-.46 0-.778-.334-.778-.853v-2.339h-.743v2.428c0 .948.52 1.44 1.252 1.44.575 0 .965-.304 1.141-.711h.04V121h.731v-3.818h-.746v2.235Zm1.744 3.015h.743v-2.026h.045c.134.244.407.669 1.103.669.925 0 1.596-.741 1.596-1.977 0-1.238-.68-1.966-1.603-1.966-.709 0-.965.433-1.096.669h-.063v-.619h-.725v5.25Zm.728-3.341c0-.798.348-1.328.997-1.328.673 0 1.011.57 1.011 1.328 0 .766-.347 1.35-1.011 1.35-.639 0-.997-.547-.997-1.35Zm5.021 1.984c.696 0 .97-.425 1.104-.669h.062V121h.726v-5.091h-.743v1.892h-.045c-.134-.236-.388-.669-1.099-.669-.922 0-1.6.728-1.6 1.966 0 1.236.668 1.977 1.595 1.977Zm.164-.634c-.663 0-1.009-.584-1.009-1.35 0-.758.338-1.328 1.01-1.328.648 0 .996.53.996 1.328 0 .803-.355 1.35-.997 1.35Zm3.9.644c.631 0 .987-.321 1.129-.607h.03V121h.725v-2.536c0-1.111-.875-1.332-1.481-1.332-.691 0-1.328.279-1.576.975l.698.159c.11-.271.388-.532.888-.532.48 0 .726.251.726.683v.018c0 .271-.279.266-.965.345-.723.085-1.464.274-1.464 1.141 0 .751.564 1.164 1.29 1.164Zm.162-.597c-.42 0-.724-.189-.724-.557 0-.398.353-.539.783-.596.241-.033.813-.097.92-.204v.492c0 .452-.36.865-.98.865Zm4.495-3.306h-.783v-.915h-.744v.915h-.56v.596h.56v2.255c-.002.694.527 1.029 1.114 1.017.236-.003.395-.048.482-.08l-.134-.614c-.05.01-.142.032-.261.032-.241 0-.457-.079-.457-.509v-2.101h.782v-.596Zm2.426 3.895c.833 0 1.422-.41 1.591-1.032l-.703-.126c-.135.36-.458.544-.88.544-.637 0-1.064-.413-1.084-1.148h2.714v-.264c0-1.379-.825-1.919-1.69-1.919-1.064 0-1.765.81-1.765 1.984 0 1.185.691 1.961 1.817 1.961Zm-1.074-2.319c.03-.542.423-1.012 1.027-1.012.577 0 .955.428.957 1.012h-1.984Z" fill="#898D9A"/><path d="M52.56 132h3.22v-.661h-2.453v-1.559h2.258v-.659h-2.258v-1.551h2.424v-.661H52.56V132Zm7.424-3.818h-.798l-.965 2.938h-.04l-.966-2.938h-.798L57.804 132h.795l1.385-3.818Zm2.207 3.895c.833 0 1.422-.41 1.591-1.032l-.703-.126c-.135.36-.458.544-.88.544-.637 0-1.064-.413-1.084-1.148h2.714v-.264c0-1.379-.825-1.919-1.69-1.919-1.064 0-1.765.81-1.765 1.984 0 1.185.691 1.961 1.817 1.961Zm-1.074-2.319c.03-.542.423-1.012 1.027-1.012.577 0 .955.428.957 1.012h-1.984ZM64.654 132h.743v-2.332c0-.499.385-.86.912-.86.155 0 .329.028.388.045v-.711a3.011 3.011 0 0 0-.315-.017c-.448 0-.83.253-.97.663h-.04v-.606h-.718V132Zm3.273 1.432c.613 0 1.001-.321 1.222-.922l1.579-4.321-.803-.007-.967 2.963h-.04l-.967-2.963h-.795l1.397 3.868-.092.253c-.189.507-.455.55-.863.438l-.179.609c.09.04.284.082.508.082ZM73.28 132h.743v-2.354c0-.515.36-.873.783-.873.413 0 .699.274.699.689V132h.74v-2.434c0-.459.281-.793.766-.793.393 0 .716.219.716.736V132h.743v-2.56c0-.873-.487-1.308-1.178-1.308-.55 0-.962.264-1.146.671h-.04c-.166-.417-.517-.671-1.026-.671-.505 0-.88.251-1.04.671h-.047v-.621h-.713V132Zm7.795.077c1.076 0 1.78-.788 1.78-1.969 0-1.188-.704-1.976-1.78-1.976-1.077 0-1.78.788-1.78 1.976 0 1.181.703 1.969 1.78 1.969Zm.002-.624c-.703 0-1.031-.614-1.031-1.347 0-.731.328-1.352 1.031-1.352.699 0 1.027.621 1.027 1.352 0 .733-.328 1.347-1.027 1.347Zm3.35-1.72c0-.609.373-.957.89-.957.505 0 .81.331.81.885V132h.744v-2.429c0-.944-.52-1.439-1.3-1.439-.574 0-.95.266-1.126.671h-.047v-.621h-.714V132h.743v-2.267Zm5.223-1.551h-.783v-.915h-.743v.915h-.56v.596h.56v2.255c-.003.694.527 1.029 1.114 1.017.236-.003.395-.048.482-.08l-.135-.614c-.05.01-.141.032-.26.032-.242 0-.458-.079-.458-.509v-2.101h.783v-.596Zm1.648 1.551c0-.609.385-.957.914-.957.512 0 .818.326.818.885V132h.743v-2.429c0-.952-.522-1.439-1.307-1.439-.594 0-.952.259-1.131.671h-.047v-1.894h-.734V132h.744v-2.267Zm4.434 1.571h-.716l-.024.278c-.058.674-.217 1.353-.284 1.661h.527c.12-.326.383-1.071.46-1.668l.037-.271Zm4.429.773c1.076 0 1.779-.788 1.779-1.969 0-1.188-.703-1.976-1.779-1.976-1.077 0-1.78.788-1.78 1.976 0 1.181.703 1.969 1.78 1.969Zm.002-.624c-.703 0-1.032-.614-1.032-1.347 0-.731.329-1.352 1.032-1.352.699 0 1.027.621 1.027 1.352 0 .733-.328 1.347-1.027 1.347Zm3.35-1.72c0-.609.373-.957.89-.957.505 0 .811.331.811.885V132h.743v-2.429c0-.944-.52-1.439-1.3-1.439-.574 0-.95.266-1.126.671h-.047v-.621h-.714V132h.743v-2.267Zm6.723 2.342c.696 0 .969-.425 1.103-.669h.062V132h.726v-5.091h-.743v1.892h-.045c-.134-.236-.387-.669-1.098-.669-.923 0-1.601.728-1.601 1.966 0 1.236.668 1.977 1.596 1.977Zm.164-.634c-.664 0-1.01-.584-1.01-1.35 0-.758.338-1.328 1.01-1.328.648 0 .996.53.996 1.328 0 .803-.355 1.35-.996 1.35Zm3.899.644c.632 0 .987-.321 1.129-.607h.03V132h.725v-2.536c0-1.111-.875-1.332-1.481-1.332-.691 0-1.327.279-1.576.975l.698.159c.11-.271.388-.532.888-.532.48 0 .726.251.726.683v.018c0 .271-.279.266-.965.345-.723.085-1.464.274-1.464 1.141 0 .751.564 1.164 1.29 1.164Zm.162-.597c-.42 0-.724-.189-.724-.557 0-.398.353-.539.783-.596.242-.033.813-.097.92-.204v.492c0 .452-.36.865-.979.865Zm3.046 1.944c.614 0 1.001-.321 1.223-.922l1.578-4.321-.803-.007-.967 2.963h-.04l-.967-2.963h-.795l1.397 3.868-.092.253c-.189.507-.455.55-.863.438l-.179.609c.09.04.284.082.508.082Zm7.024-1.362c1.025 0 1.755-.724 1.753-1.716.002-.984-.684-1.7-1.611-1.7-.378 0-.728.144-.927.338h-.03l.162-1.424h2.16v-.659h-2.799l-.286 2.565.703.105c.192-.172.535-.289.843-.289.604.005 1.042.458 1.042 1.079 0 .612-.425 1.054-1.01 1.054-.492 0-.882-.313-.922-.75h-.746c.03.81.734 1.397 1.668 1.397Z" fill="#171A22"/><rect x="52" y="142" width="95" height="46" rx="4" fill="#EFF8FD"/><path d="M63.252 155.065a1.093 1.093 0 1 0 .001-2.186 1.093 1.093 0 0 0-.001 2.186Zm5.556-3.495h1.586V156h.766v-4.43h1.588v-.661h-3.94v.661Zm4.355 4.43h.743v-2.332c0-.499.385-.86.912-.86.154 0 .328.028.388.045v-.711a3.011 3.011 0 0 0-.316-.017c-.447 0-.83.253-.97.663h-.039v-.606h-.718V156Zm3.763.085c.632 0 .987-.321 1.129-.607h.03V156h.726v-2.536c0-1.111-.876-1.332-1.482-1.332-.691 0-1.328.279-1.576.975l.698.159c.11-.271.388-.532.888-.532.48 0 .726.251.726.683v.018c0 .271-.279.266-.965.345-.723.085-1.464.274-1.464 1.141 0 .751.564 1.164 1.29 1.164Zm.162-.597c-.42 0-.724-.189-.724-.557 0-.398.353-.539.783-.596.242-.033.813-.097.92-.204v.492c0 .452-.36.865-.98.865Zm4.53-3.306h-.823v-.343c0-.338.139-.522.502-.522.154 0 .263.035.333.057l.174-.602a1.802 1.802 0 0 0-.621-.102c-.605 0-1.134.353-1.134 1.069v.443h-.59v.596h.59V156h.746v-3.222h.823v-.596Zm2.584 0h-.823v-.343c0-.338.139-.522.502-.522.154 0 .263.035.333.057l.174-.602a1.802 1.802 0 0 0-.622-.102c-.604 0-1.133.353-1.133 1.069v.443h-.59v.596h.59V156h.746v-3.222h.822v-.596Zm.766 3.818h.744v-3.818h-.744V156Zm.376-4.407c.256 0 .47-.199.47-.443 0-.243-.214-.445-.47-.445a.46.46 0 0 0-.47.445c0 .244.211.443.47.443Zm2.976 4.484c.902 0 1.486-.542 1.568-1.285h-.723c-.094.413-.415.656-.84.656-.63 0-1.034-.524-1.034-1.357 0-.818.412-1.332 1.034-1.332.472 0 .76.298.84.656h.723c-.08-.771-.708-1.283-1.576-1.283-1.076 0-1.772.81-1.772 1.976 0 1.151.671 1.969 1.78 1.969Z" fill="#898D9A"/><path d="M63.252 167.065a1.093 1.093 0 1 0 .001-2.186 1.093 1.093 0 0 0-.001 2.186Zm5.807.935h.768v-1.583l.602-.692L72.075 168h.924l-2.06-2.799 2.053-2.292h-.967l-2.135 2.431h-.063v-2.431h-.768V168Zm5.954.077c.833 0 1.422-.41 1.591-1.032l-.703-.126c-.134.36-.458.544-.88.544-.636 0-1.064-.413-1.084-1.148h2.715v-.264c0-1.379-.826-1.919-1.69-1.919-1.065 0-1.766.81-1.766 1.984 0 1.185.691 1.961 1.817 1.961Zm-1.074-2.319c.03-.542.423-1.012 1.027-1.012.577 0 .955.428.957 1.012H73.94Zm3.89 3.674c.615 0 1.003-.321 1.224-.922l1.578-4.321-.803-.007-.967 2.963h-.04l-.966-2.963h-.796l1.397 3.868-.092.253c-.189.507-.455.55-.862.438l-.18.609c.09.04.284.082.508.082ZM82.16 168h.756l.776-2.757h.057l.775 2.757h.759l1.12-3.818h-.767l-.744 2.791h-.037l-.746-2.791h-.768l-.75 2.804h-.038l-.748-2.804h-.768L82.159 168Zm6.441.077c1.077 0 1.78-.788 1.78-1.969 0-1.188-.703-1.976-1.78-1.976-1.076 0-1.78.788-1.78 1.976 0 1.181.704 1.969 1.78 1.969Zm.003-.624c-.704 0-1.032-.614-1.032-1.347 0-.731.328-1.352 1.032-1.352.698 0 1.026.621 1.026 1.352 0 .733-.328 1.347-1.026 1.347Zm2.607.547h.743v-2.332c0-.499.385-.86.912-.86.154 0 .328.028.388.045v-.711a3.008 3.008 0 0 0-.316-.017c-.447 0-.83.253-.97.663h-.039v-.606h-.718V168Zm3.979.075c.696 0 .97-.425 1.103-.669h.063V168h.725v-5.091h-.743v1.892h-.045c-.134-.236-.387-.669-1.098-.669-.922 0-1.601.728-1.601 1.966 0 1.236.668 1.977 1.596 1.977Zm.164-.634c-.664 0-1.01-.584-1.01-1.35 0-.758.339-1.328 1.01-1.328.649 0 .997.53.997 1.328 0 .803-.356 1.35-.997 1.35Zm5.649-2.327c-.154-.594-.619-.982-1.444-.982-.862 0-1.474.455-1.474 1.131 0 .542.328.902 1.044 1.062l.646.141c.368.082.54.246.54.485 0 .296-.316.527-.803.527-.445 0-.73-.191-.82-.567l-.719.11c.125.676.686 1.056 1.544 1.056.922 0 1.561-.49 1.561-1.181 0-.539-.343-.872-1.044-1.034l-.607-.139c-.42-.099-.601-.241-.599-.5-.002-.293.316-.502.739-.502.462 0 .676.256.763.512l.673-.119ZM63.252 179.065a1.093 1.093 0 1 0 .001-2.186 1.093 1.093 0 0 0-.001 2.186Zm5.807.935h1.952c1.183 0 1.717-.589 1.717-1.37 0-.788-.551-1.233-1.056-1.26v-.05c.467-.119.858-.437.858-1.074 0-.753-.523-1.337-1.606-1.337h-1.865V180Zm.768-.659v-1.63h1.136c.617 0 1.002.397 1.002.882 0 .428-.29.748-1.029.748h-1.109Zm0-2.229v-1.549h1.05c.608 0 .9.321.9.743 0 .492-.403.806-.92.806h-1.03Zm4.864 2.973c.631 0 .987-.321 1.128-.607h.03V180h.726v-2.536c0-1.111-.875-1.332-1.481-1.332-.691 0-1.328.279-1.576.975l.698.159c.11-.271.388-.532.888-.532.48 0 .725.251.725.683v.018c0 .271-.278.266-.964.345-.724.085-1.464.274-1.464 1.141 0 .751.564 1.164 1.29 1.164Zm.162-.597c-.42 0-.724-.189-.724-.557 0-.398.353-.539.783-.596.241-.033.813-.097.92-.204v.492c0 .452-.36.865-.98.865Zm4.32.589c.903 0 1.487-.542 1.569-1.285h-.723c-.095.413-.416.656-.84.656-.63 0-1.035-.524-1.035-1.357 0-.818.413-1.332 1.034-1.332.473 0 .761.298.84.656h.724c-.08-.771-.709-1.283-1.576-1.283-1.076 0-1.772.81-1.772 1.976 0 1.151.67 1.969 1.78 1.969Zm2.364-.077h.743v-1.355l.37-.37L83.948 180h.912l-1.65-2.18 1.546-1.638h-.89l-1.521 1.616h-.065v-2.889h-.743V180Zm4.64-5.091h-.744V180h.743v-5.091Zm1 5.091h.743v-3.818h-.744V180Zm.375-4.407c.256 0 .47-.199.47-.443 0-.243-.214-.445-.47-.445a.46.46 0 0 0-.47.445c0 .244.211.443.47.443Zm2.11 2.14c0-.609.374-.957.89-.957.505 0 .811.331.811.885V180h.743v-2.429c0-.944-.52-1.439-1.3-1.439-.574 0-.95.266-1.126.671h-.047v-.621h-.713V180h.743v-2.267ZM93.104 180h.743v-1.355l.37-.37L95.515 180h.913l-1.65-2.18 1.545-1.638h-.89l-1.521 1.616h-.065v-2.889h-.743V180Zm6.758-2.886c-.154-.594-.62-.982-1.445-.982-.862 0-1.474.455-1.474 1.131 0 .542.329.902 1.045 1.062l.646.141c.368.082.54.246.54.485 0 .296-.317.527-.804.527-.445 0-.73-.191-.82-.567l-.718.11c.124.676.686 1.056 1.543 1.056.922 0 1.561-.49 1.561-1.181 0-.539-.343-.872-1.044-1.034l-.606-.139c-.42-.099-.602-.241-.6-.5-.002-.293.316-.502.739-.502.462 0 .676.256.763.512l.674-.119Z" fill="#00A9FF"/><rect x="42.5" y="86.5" width="114" height="111" rx="5.5" stroke="#E9EBEF"/><rect x="42" y="204" width="115" height="57" rx="6" fill="#F6F7F8"/><path d="M56.67 218.727h1.267c-.024-1.229-1.072-2.099-2.62-2.099-1.527 0-2.674.859-2.67 2.145 0 1.044.742 1.644 1.938 1.953l.828.213c.784.199 1.303.444 1.306 1.008-.003.622-.593 1.037-1.452 1.037-.824 0-1.463-.369-1.516-1.132h-1.296c.053 1.445 1.129 2.258 2.823 2.258 1.743 0 2.755-.87 2.759-2.152-.004-1.261-1.044-1.836-2.138-2.095l-.682-.171c-.596-.142-1.243-.394-1.236-1.001.004-.547.494-.948 1.318-.948.785 0 1.303.366 1.37.984ZM59.155 224h1.285v-5.455h-1.285V224Zm.646-6.229c.408 0 .742-.312.742-.696 0-.387-.334-.699-.742-.699-.412 0-.746.312-.746.699 0 .384.334.696.746.696Zm4.685.774H63.41v-1.306h-1.286v1.306h-.774v.995h.774v3.032c-.007 1.027.739 1.531 1.705 1.503a2.6 2.6 0 0 0 .756-.128l-.216-1.005a1.597 1.597 0 0 1-.377.049c-.323 0-.582-.113-.582-.632v-2.819h1.076v-.995Zm3.431 5.562c1.271 0 2.145-.622 2.372-1.57l-1.2-.135c-.174.462-.6.703-1.154.703-.831 0-1.382-.547-1.392-1.481h3.8v-.394c0-1.914-1.151-2.756-2.493-2.756-1.563 0-2.582 1.147-2.582 2.831 0 1.711 1.005 2.802 2.65 2.802Zm-1.37-3.349c.038-.696.553-1.282 1.32-1.282.739 0 1.236.54 1.243 1.282h-2.564ZM74.9 224l.6-1.793h2.735l.603 1.793h1.407l-2.564-7.273h-1.627L73.495 224h1.406Zm.956-2.852.983-2.929h.057l.984 2.929h-2.025Zm8.766.558c0 .831-.593 1.243-1.16 1.243-.619 0-1.03-.437-1.03-1.129v-3.275h-1.286v3.473c0 1.311.746 2.053 1.818 2.053.817 0 1.392-.43 1.64-1.04h.057V224h1.247v-5.455h-1.286v3.161Zm4.632 2.39c.938 0 1.36-.558 1.563-.955h.078V224h1.264v-7.273h-1.29v2.72h-.053c-.195-.394-.596-.973-1.558-.973-1.261 0-2.252.988-2.252 2.806 0 1.797.962 2.816 2.248 2.816Zm.359-1.055c-.85 0-1.297-.746-1.297-1.768 0-1.016.44-1.744 1.297-1.744.827 0 1.282.685 1.282 1.744 0 1.058-.462 1.768-1.282 1.768Zm3.916.959h1.285v-5.455H93.53V224Zm.646-6.229c.408 0 .742-.312.742-.696 0-.387-.334-.699-.742-.699-.412 0-.746.312-.746.699 0 .384.334.696.746.696Zm4.685.774h-1.076v-1.306h-1.286v1.306h-.774v.995h.774v3.032c-.007 1.027.739 1.531 1.705 1.503a2.6 2.6 0 0 0 .756-.128l-.216-1.005a1.597 1.597 0 0 1-.377.049c-.323 0-.582-.113-.582-.632v-2.819h1.076v-.995Zm1.867 5.533a.79.79 0 0 0 .781-.781.789.789 0 0 0-.781-.774.777.777 0 1 0 0 1.555Zm0-3.895a.79.79 0 0 0 .781-.782.789.789 0 0 0-.781-.774.775.775 0 0 0-.781.774.777.777 0 0 0 .781.782Zm5.963-3.456h-1.317V224h1.317v-7.273Zm5.681 3.26c-.178-.923-.916-1.513-2.195-1.513-1.314 0-2.208.647-2.205 1.655-.003.796.487 1.321 1.534 1.538l.931.195c.5.11.735.313.735.622 0 .373-.405.653-1.016.653-.589 0-.973-.256-1.083-.746l-1.254.121c.16 1.001 1.002 1.595 2.341 1.595 1.363 0 2.326-.707 2.329-1.741-.003-.777-.504-1.253-1.534-1.477l-.93-.199c-.554-.124-.774-.316-.771-.632-.003-.369.405-.625.941-.625.593 0 .906.323 1.005.682l1.172-.128Zm5.488 0c-.177-.923-.916-1.513-2.194-1.513-1.314 0-2.209.647-2.206 1.655-.003.796.487 1.321 1.534 1.538l.931.195c.501.11.735.313.735.622 0 .373-.405.653-1.016.653-.589 0-.973-.256-1.083-.746l-1.253.121c.16 1.001 1.001 1.595 2.34 1.595 1.364 0 2.326-.707 2.329-1.741-.003-.777-.504-1.253-1.534-1.477l-.93-.199c-.554-.124-.774-.316-.771-.632-.003-.369.405-.625.941-.625.593 0 .906.323 1.005.682l1.172-.128Zm4.654 1.719c0 .831-.593 1.243-1.161 1.243-.618 0-1.03-.437-1.03-1.129v-3.275h-1.286v3.473c0 1.311.746 2.053 1.819 2.053.816 0 1.392-.43 1.64-1.04h.057V224h1.247v-5.455h-1.286v3.161Zm5.022 2.401c1.272 0 2.145-.622 2.372-1.57l-1.2-.135c-.174.462-.6.703-1.154.703-.831 0-1.381-.547-1.392-1.481h3.8v-.394c0-1.914-1.151-2.756-2.493-2.756-1.563 0-2.582 1.147-2.582 2.831 0 1.711 1.005 2.802 2.649 2.802Zm-1.371-3.349c.04-.696.554-1.282 1.322-1.282.738 0 1.235.54 1.242 1.282h-2.564Zm9.195-.771c-.177-.923-.916-1.513-2.194-1.513-1.314 0-2.209.647-2.206 1.655-.003.796.487 1.321 1.534 1.538l.931.195c.501.11.735.313.735.622 0 .373-.405.653-1.016.653-.589 0-.973-.256-1.083-.746l-1.253.121c.16 1.001 1.001 1.595 2.34 1.595 1.364 0 2.326-.707 2.329-1.741-.003-.777-.504-1.253-1.534-1.477l-.93-.199c-.554-.124-.774-.316-.771-.632-.003-.369.405-.625.941-.625.593 0 .906.323 1.005.682l1.172-.128Z" fill="#575C66"/><path d="m52.99 239 .467-1.347h1.988L55.91 239h.816l-1.832-5.091h-.888L52.174 239h.815Zm.69-1.994.751-2.172h.04l.75 2.172h-1.54Zm6.14.411c.002.648-.48.957-.898.957-.46 0-.778-.334-.778-.853v-2.339h-.743v2.428c0 .948.52 1.44 1.253 1.44.574 0 .964-.304 1.14-.711h.04V239h.731v-3.818h-.745v2.235Zm3.526-2.235h-.783v-.915h-.743v.915h-.56v.596h.56v2.255c-.002.694.527 1.029 1.114 1.017.236-.003.395-.048.482-.08l-.134-.614c-.05.01-.142.032-.261.032-.241 0-.458-.079-.458-.509v-2.101h.783v-.596Zm2.39 3.895c1.076 0 1.78-.788 1.78-1.969 0-1.188-.704-1.976-1.78-1.976-1.077 0-1.78.788-1.78 1.976 0 1.181.703 1.969 1.78 1.969Zm.002-.624c-.703 0-1.031-.614-1.031-1.347 0-.731.328-1.352 1.031-1.352.699 0 1.027.621 1.027 1.352 0 .733-.328 1.347-1.027 1.347Zm4.857-1.926h-2.257v.643h2.257v-.643Zm3.41.89c.002.648-.48.957-.898.957-.46 0-.778-.334-.778-.853v-2.339h-.743v2.428c0 .948.52 1.44 1.252 1.44.575 0 .965-.304 1.141-.711h.04V239h.731v-3.818h-.746v2.235Zm1.744 3.015h.743v-2.026h.045c.134.244.407.669 1.103.669.925 0 1.596-.741 1.596-1.977 0-1.238-.68-1.966-1.603-1.966-.709 0-.965.433-1.096.669h-.063v-.619h-.725v5.25Zm.728-3.341c0-.798.348-1.328.997-1.328.673 0 1.011.57 1.011 1.328 0 .766-.347 1.35-1.011 1.35-.639 0-.997-.547-.997-1.35Zm5.021 1.984c.696 0 .97-.425 1.104-.669h.062V239h.726v-5.091h-.743v1.892h-.045c-.134-.236-.388-.669-1.099-.669-.922 0-1.6.728-1.6 1.966 0 1.236.668 1.977 1.595 1.977Zm.164-.634c-.663 0-1.009-.584-1.009-1.35 0-.758.338-1.328 1.01-1.328.648 0 .996.53.996 1.328 0 .803-.355 1.35-.997 1.35Zm3.9.644c.631 0 .987-.321 1.129-.607h.03V239h.725v-2.536c0-1.111-.875-1.332-1.481-1.332-.691 0-1.328.279-1.576.975l.698.159c.11-.271.388-.532.888-.532.48 0 .726.251.726.683v.018c0 .271-.279.266-.965.345-.723.085-1.464.274-1.464 1.141 0 .751.564 1.164 1.29 1.164Zm.162-.597c-.42 0-.724-.189-.724-.557 0-.398.353-.539.783-.596.241-.033.813-.097.92-.204v.492c0 .452-.36.865-.98.865Zm4.495-3.306h-.783v-.915h-.744v.915h-.56v.596h.56v2.255c-.002.694.527 1.029 1.114 1.017.236-.003.395-.048.482-.08l-.134-.614c-.05.01-.142.032-.261.032-.241 0-.457-.079-.457-.509v-2.101h.782v-.596Zm2.426 3.895c.833 0 1.422-.41 1.591-1.032l-.703-.126c-.135.36-.458.544-.88.544-.637 0-1.064-.413-1.084-1.148h2.714v-.264c0-1.379-.825-1.919-1.69-1.919-1.064 0-1.765.81-1.765 1.984 0 1.185.691 1.961 1.817 1.961Zm-1.074-2.319c.03-.542.423-1.012 1.027-1.012.577 0 .955.428.957 1.012h-1.984Z" fill="#898D9A"/><path d="M52.56 250h3.22v-.661h-2.453v-1.559h2.258v-.659h-2.258v-1.551h2.424v-.661H52.56V250Zm7.424-3.818h-.798l-.965 2.938h-.04l-.966-2.938h-.798L57.804 250h.795l1.385-3.818Zm2.207 3.895c.833 0 1.422-.41 1.591-1.032l-.703-.126c-.135.36-.458.544-.88.544-.637 0-1.064-.413-1.084-1.148h2.714v-.264c0-1.379-.825-1.919-1.69-1.919-1.064 0-1.765.81-1.765 1.984 0 1.185.691 1.961 1.817 1.961Zm-1.074-2.319c.03-.542.423-1.012 1.027-1.012.577 0 .955.428.957 1.012h-1.984ZM64.654 250h.743v-2.332c0-.499.385-.86.912-.86.155 0 .329.028.388.045v-.711a3.011 3.011 0 0 0-.315-.017c-.448 0-.83.253-.97.663h-.04v-.606h-.718V250Zm3.273 1.432c.613 0 1.001-.321 1.222-.922l1.579-4.321-.803-.007-.967 2.963h-.04l-.967-2.963h-.795l1.397 3.868-.092.253c-.189.507-.455.55-.863.438l-.179.609c.09.04.284.082.508.082ZM74.109 250h.755l.776-2.757h.057l.776 2.757h.758l1.12-3.818h-.767l-.743 2.791h-.038l-.745-2.791h-.769l-.75 2.804H74.5l-.748-2.804h-.768L74.11 250Zm6.478.077c.832 0 1.421-.41 1.59-1.032l-.703-.126c-.134.36-.457.544-.88.544-.636 0-1.064-.413-1.084-1.148h2.715v-.264c0-1.379-.825-1.919-1.69-1.919-1.064 0-1.766.81-1.766 1.984 0 1.185.692 1.961 1.818 1.961Zm-1.074-2.319c.03-.542.422-1.012 1.026-1.012.577 0 .955.428.957 1.012h-1.983Zm5.182 2.319c.833 0 1.422-.41 1.591-1.032l-.704-.126c-.134.36-.457.544-.88.544-.636 0-1.063-.413-1.083-1.148h2.714v-.264c0-1.379-.825-1.919-1.69-1.919-1.064 0-1.765.81-1.765 1.984 0 1.185.691 1.961 1.817 1.961Zm-1.074-2.319c.03-.542.423-1.012 1.027-1.012.577 0 .954.428.957 1.012H83.62ZM87.158 250h.743v-1.355l.37-.37L89.57 250h.912l-1.65-2.18 1.546-1.638h-.89l-1.521 1.616H87.9v-2.889h-.743V250Zm4.863-.696h-.716l-.025.278c-.057.674-.216 1.353-.283 1.661h.527c.12-.326.383-1.071.46-1.668l.037-.271Zm4.429.773c1.076 0 1.78-.788 1.78-1.969 0-1.188-.704-1.976-1.78-1.976-1.077 0-1.78.788-1.78 1.976 0 1.181.703 1.969 1.78 1.969Zm.002-.624c-.703 0-1.031-.614-1.031-1.347 0-.731.328-1.352 1.031-1.352.699 0 1.027.621 1.027 1.352 0 .733-.328 1.347-1.027 1.347Zm3.35-1.72c0-.609.373-.957.89-.957.505 0 .811.331.811.885V250h.743v-2.429c0-.944-.52-1.439-1.3-1.439-.574 0-.95.266-1.126.671h-.047v-.621h-.714V250h.743v-2.267Zm5.353-2.824V250h.731v-3.686h.047l1.501 3.679h.607l1.501-3.677h.048V250h.73v-5.091h-.932l-1.62 3.957h-.06l-1.621-3.957h-.932Zm7.831 5.168c1.076 0 1.78-.788 1.78-1.969 0-1.188-.704-1.976-1.78-1.976s-1.78.788-1.78 1.976c0 1.181.704 1.969 1.78 1.969Zm.002-.624c-.703 0-1.031-.614-1.031-1.347 0-.731.328-1.352 1.031-1.352.699 0 1.027.621 1.027 1.352 0 .733-.328 1.347-1.027 1.347Zm3.351-1.72c0-.609.372-.957.89-.957.504 0 .81.331.81.885V250h.743v-2.429c0-.944-.519-1.439-1.3-1.439-.574 0-.95.266-1.126.671h-.047v-.621h-.714V250h.744v-2.267Zm4.869 2.342c.696 0 .97-.425 1.104-.669h.062V250h.726v-5.091h-.743v1.892h-.045c-.134-.236-.388-.669-1.099-.669-.922 0-1.601.728-1.601 1.966 0 1.236.669 1.977 1.596 1.977Zm.164-.634c-.663 0-1.009-.584-1.009-1.35 0-.758.338-1.328 1.009-1.328.649 0 .997.53.997 1.328 0 .803-.355 1.35-.997 1.35Zm3.9.644c.631 0 .987-.321 1.128-.607h.03V250h.726v-2.536c0-1.111-.875-1.332-1.481-1.332-.691 0-1.328.279-1.576.975l.698.159c.11-.271.388-.532.888-.532.479 0 .725.251.725.683v.018c0 .271-.278.266-.964.345-.723.085-1.464.274-1.464 1.141 0 .751.564 1.164 1.29 1.164Zm.162-.597c-.421 0-.724-.189-.724-.557 0-.398.353-.539.783-.596.241-.033.813-.097.92-.204v.492c0 .452-.361.865-.979.865Zm3.045 1.944c.614 0 1.002-.321 1.223-.922l1.579-4.321-.803-.007-.967 2.963h-.04l-.967-2.963h-.795l1.397 3.868-.092.253c-.189.507-.455.55-.863.438l-.179.609c.09.04.284.082.507.082Z" fill="#171A22"/><rect x="42" y="267" width="115" height="57" rx="6" fill="#F6F7F8"/><path d="M59.216 283.364c0-2.351-1.435-3.736-3.342-3.736-1.91 0-3.341 1.385-3.341 3.736 0 2.347 1.43 3.735 3.341 3.735 1.907 0 3.342-1.385 3.342-3.735Zm-1.325 0c0 1.654-.83 2.553-2.017 2.553-1.182 0-2.017-.899-2.017-2.553 0-1.655.835-2.554 2.017-2.554 1.186 0 2.017.899 2.017 2.554ZM60.405 287h1.285v-3.207c0-.692.522-1.182 1.229-1.182.217 0 .486.039.596.074v-1.182a3.124 3.124 0 0 0-.461-.036c-.625 0-1.147.355-1.346.988h-.057v-.91h-1.246V287Zm6.112 2.159c1.474 0 2.56-.675 2.56-2.07v-5.544H67.81v.902h-.071c-.196-.394-.604-.973-1.566-.973-1.261 0-2.252.988-2.252 2.781 0 1.779.99 2.667 2.248 2.667.934 0 1.37-.501 1.57-.902h.064v1.033c0 .803-.533 1.133-1.265 1.133-.774 0-1.115-.366-1.271-.685l-1.158.28c.235.764 1.02 1.378 2.408 1.378Zm.01-3.246c-.848 0-1.296-.66-1.296-1.665 0-.991.44-1.719 1.297-1.719.827 0 1.282.685 1.282 1.719 0 1.04-.462 1.665-1.282 1.665Zm5.438 1.197c.855 0 1.367-.401 1.601-.859h.043V287h1.236v-3.651c0-1.441-1.176-1.875-2.216-1.875-1.148 0-2.028.512-2.312 1.506l1.2.171c.128-.373.49-.693 1.119-.693.596 0 .923.305.923.842v.021c0 .369-.387.387-1.35.49-1.058.114-2.07.43-2.07 1.658 0 1.073.785 1.641 1.826 1.641Zm.333-.945c-.536 0-.92-.245-.92-.717 0-.493.43-.699 1.005-.781.338-.046 1.013-.131 1.18-.266v.642c0 .608-.49 1.122-1.265 1.122Zm5.125-2.361c0-.788.475-1.243 1.154-1.243.664 0 1.061.437 1.061 1.165V287h1.286v-3.473c.004-1.307-.742-2.053-1.868-2.053-.817 0-1.378.391-1.626.998h-.064v-.927h-1.229V287h1.286v-3.196ZM82.23 287h1.285v-5.455h-1.285V287Zm.646-6.229c.409 0 .742-.312.742-.696 0-.387-.334-.699-.742-.699-.412 0-.746.312-.746.699 0 .384.334.696.746.696Zm4.34 6.336c1.371 0 2.245-.814 2.337-1.971h-1.228c-.11.586-.533.923-1.098.923-.802 0-1.32-.671-1.32-1.786 0-1.101.528-1.762 1.32-1.762.618 0 .998.398 1.098.924h1.228c-.089-1.183-1.012-1.961-2.344-1.961-1.598 0-2.606 1.155-2.606 2.82 0 1.651.984 2.813 2.614 2.813Zm9.882-5.38h1.268c-.025-1.229-1.072-2.099-2.62-2.099-1.528 0-2.675.859-2.671 2.145 0 1.044.742 1.644 1.939 1.953l.827.213c.785.199 1.304.444 1.307 1.008-.003.622-.593 1.037-1.452 1.037-.824 0-1.463-.369-1.517-1.132h-1.296c.053 1.445 1.13 2.258 2.823 2.258 1.744 0 2.756-.87 2.76-2.152-.004-1.261-1.044-1.836-2.138-2.095l-.682-.171c-.597-.142-1.243-.394-1.236-1.001.004-.547.494-.948 1.318-.948.784 0 1.303.366 1.37.984Zm4.9 5.38c1.271 0 2.145-.622 2.372-1.57l-1.2-.135c-.174.462-.6.703-1.154.703-.831 0-1.382-.547-1.392-1.481h3.8v-.394c0-1.914-1.151-2.756-2.493-2.756-1.563 0-2.582 1.147-2.582 2.831 0 1.711 1.005 2.802 2.649 2.802Zm-1.371-3.349c.039-.696.554-1.282 1.321-1.282.739 0 1.236.54 1.243 1.282h-2.564Zm6.454 3.352c.856 0 1.367-.401 1.601-.859h.043V287h1.236v-3.651c0-1.441-1.176-1.875-2.216-1.875-1.147 0-2.028.512-2.312 1.506l1.2.171c.128-.373.49-.693 1.119-.693.596 0 .923.305.923.842v.021c0 .369-.387.387-1.349.49-1.059.114-2.071.43-2.071 1.658 0 1.073.785 1.641 1.826 1.641Zm.333-.945c-.536 0-.919-.245-.919-.717 0-.493.429-.699 1.005-.781.337-.046 1.012-.131 1.179-.266v.642c0 .608-.49 1.122-1.265 1.122Zm3.839.835h1.286v-3.207c0-.692.522-1.182 1.228-1.182.217 0 .487.039.597.074v-1.182a3.129 3.129 0 0 0-.462-.036c-.625 0-1.147.355-1.345.988h-.057v-.91h-1.247V287Zm6.12.107c1.37 0 2.244-.814 2.336-1.971h-1.228c-.11.586-.533.923-1.098.923-.802 0-1.321-.671-1.321-1.786 0-1.101.53-1.762 1.321-1.762.618 0 .998.398 1.098.924h1.228c-.088-1.183-1.012-1.961-2.343-1.961-1.598 0-2.607 1.155-2.607 2.82 0 1.651.984 2.813 2.614 2.813Zm4.677-3.303c0-.788.491-1.243 1.179-1.243.675 0 1.073.43 1.073 1.165V287h1.285v-3.473c0-1.317-.745-2.053-1.878-2.053-.838 0-1.371.38-1.623.998h-.064v-2.745h-1.257V287h1.285v-3.196Z" fill="#575C66"/><path d="m52.99 302 .467-1.347h1.988L55.91 302h.816l-1.832-5.091h-.888L52.174 302h.815Zm.69-1.994.751-2.172h.04l.75 2.172h-1.54Zm6.14.411c.002.648-.48.957-.898.957-.46 0-.778-.334-.778-.853v-2.339h-.743v2.428c0 .948.52 1.44 1.253 1.44.574 0 .964-.304 1.14-.711h.04V302h.731v-3.818h-.745v2.235Zm3.526-2.235h-.783v-.915h-.743v.915h-.56v.596h.56v2.255c-.002.694.527 1.029 1.114 1.017.236-.003.395-.048.482-.08l-.134-.614c-.05.01-.142.032-.261.032-.241 0-.458-.079-.458-.509v-2.101h.783v-.596Zm2.39 3.895c1.076 0 1.78-.788 1.78-1.969 0-1.188-.704-1.976-1.78-1.976-1.077 0-1.78.788-1.78 1.976 0 1.181.703 1.969 1.78 1.969Zm.002-.624c-.703 0-1.031-.614-1.031-1.347 0-.731.328-1.352 1.031-1.352.699 0 1.027.621 1.027 1.352 0 .733-.328 1.347-1.027 1.347Zm4.857-1.926h-2.257v.643h2.257v-.643Zm3.41.89c.002.648-.48.957-.898.957-.46 0-.778-.334-.778-.853v-2.339h-.743v2.428c0 .948.52 1.44 1.252 1.44.575 0 .965-.304 1.141-.711h.04V302h.731v-3.818h-.746v2.235Zm1.744 3.015h.743v-2.026h.045c.134.244.407.669 1.103.669.925 0 1.596-.741 1.596-1.977 0-1.238-.68-1.966-1.603-1.966-.709 0-.965.433-1.096.669h-.063v-.619h-.725v5.25Zm.728-3.341c0-.798.348-1.328.997-1.328.673 0 1.011.57 1.011 1.328 0 .766-.347 1.35-1.011 1.35-.639 0-.997-.547-.997-1.35Zm5.021 1.984c.696 0 .97-.425 1.104-.669h.062V302h.726v-5.091h-.743v1.892h-.045c-.134-.236-.388-.669-1.099-.669-.922 0-1.6.728-1.6 1.966 0 1.236.668 1.977 1.595 1.977Zm.164-.634c-.663 0-1.009-.584-1.009-1.35 0-.758.338-1.328 1.01-1.328.648 0 .996.53.996 1.328 0 .803-.355 1.35-.997 1.35Zm3.9.644c.631 0 .987-.321 1.129-.607h.03V302h.725v-2.536c0-1.111-.875-1.332-1.481-1.332-.691 0-1.328.279-1.576.975l.698.159c.11-.271.388-.532.888-.532.48 0 .726.251.726.683v.018c0 .271-.279.266-.965.345-.723.085-1.464.274-1.464 1.141 0 .751.564 1.164 1.29 1.164Zm.162-.597c-.42 0-.724-.189-.724-.557 0-.398.353-.539.783-.596.241-.033.813-.097.92-.204v.492c0 .452-.36.865-.98.865Zm4.495-3.306h-.783v-.915h-.744v.915h-.56v.596h.56v2.255c-.002.694.527 1.029 1.114 1.017.236-.003.395-.048.482-.08l-.134-.614c-.05.01-.142.032-.261.032-.241 0-.457-.079-.457-.509v-2.101h.782v-.596Zm2.426 3.895c.833 0 1.422-.41 1.591-1.032l-.703-.126c-.135.36-.458.544-.88.544-.637 0-1.064-.413-1.084-1.148h2.714v-.264c0-1.379-.825-1.919-1.69-1.919-1.064 0-1.765.81-1.765 1.984 0 1.185.691 1.961 1.817 1.961Zm-1.074-2.319c.03-.542.423-1.012 1.027-1.012.577 0 .955.428.957 1.012h-1.984Z" fill="#898D9A"/><path d="M52.56 313h3.22v-.661h-2.453v-1.559h2.258v-.659h-2.258v-1.551h2.424v-.661H52.56V313Zm7.424-3.818h-.798l-.965 2.938h-.04l-.966-2.938h-.798L57.804 313h.795l1.385-3.818Zm2.207 3.895c.833 0 1.422-.41 1.591-1.032l-.703-.126c-.135.36-.458.544-.88.544-.637 0-1.064-.413-1.084-1.148h2.714v-.264c0-1.379-.825-1.919-1.69-1.919-1.064 0-1.765.81-1.765 1.984 0 1.185.691 1.961 1.817 1.961Zm-1.074-2.319c.03-.542.423-1.012 1.027-1.012.577 0 .955.428.957 1.012h-1.984ZM64.654 313h.743v-2.332c0-.499.385-.86.912-.86.155 0 .329.028.388.045v-.711a3.011 3.011 0 0 0-.315-.017c-.448 0-.83.253-.97.663h-.04v-.606h-.718V313Zm3.273 1.432c.613 0 1.001-.321 1.222-.922l1.579-4.321-.803-.007-.967 2.963h-.04l-.967-2.963h-.795l1.397 3.868-.092.253c-.189.507-.455.55-.863.438l-.179.609c.09.04.284.082.508.082ZM74.109 313h.755l.776-2.757h.057l.776 2.757h.758l1.12-3.818h-.767l-.743 2.791h-.038l-.745-2.791h-.769l-.75 2.804H74.5l-.748-2.804h-.768L74.11 313Zm6.478.077c.832 0 1.421-.41 1.59-1.032l-.703-.126c-.134.36-.457.544-.88.544-.636 0-1.064-.413-1.084-1.148h2.715v-.264c0-1.379-.825-1.919-1.69-1.919-1.064 0-1.766.81-1.766 1.984 0 1.185.692 1.961 1.818 1.961Zm-1.074-2.319c.03-.542.422-1.012 1.026-1.012.577 0 .955.428.957 1.012h-1.983Zm5.182 2.319c.833 0 1.422-.41 1.591-1.032l-.704-.126c-.134.36-.457.544-.88.544-.636 0-1.063-.413-1.083-1.148h2.714v-.264c0-1.379-.825-1.919-1.69-1.919-1.064 0-1.765.81-1.765 1.984 0 1.185.691 1.961 1.817 1.961Zm-1.074-2.319c.03-.542.423-1.012 1.027-1.012.577 0 .954.428.957 1.012H83.62ZM87.158 313h.743v-1.355l.37-.37L89.57 313h.912l-1.65-2.18 1.546-1.638h-.89l-1.521 1.616H87.9v-2.889h-.743V313Zm4.863-.696h-.716l-.025.278c-.057.674-.216 1.353-.283 1.661h.527c.12-.326.383-1.071.46-1.668l.037-.271Zm4.429.773c1.076 0 1.78-.788 1.78-1.969 0-1.188-.704-1.976-1.78-1.976-1.077 0-1.78.788-1.78 1.976 0 1.181.703 1.969 1.78 1.969Zm.002-.624c-.703 0-1.031-.614-1.031-1.347 0-.731.328-1.352 1.031-1.352.699 0 1.027.621 1.027 1.352 0 .733-.328 1.347-1.027 1.347Zm3.35-1.72c0-.609.373-.957.89-.957.505 0 .811.331.811.885V313h.743v-2.429c0-.944-.52-1.439-1.3-1.439-.574 0-.95.266-1.126.671h-.047v-.621h-.714V313h.743v-2.267Zm5.353-2.824V313h.731v-3.686h.047l1.501 3.679h.607l1.501-3.677h.048V313h.73v-5.091h-.932l-1.62 3.957h-.06l-1.621-3.957h-.932Zm7.831 5.168c1.076 0 1.78-.788 1.78-1.969 0-1.188-.704-1.976-1.78-1.976s-1.78.788-1.78 1.976c0 1.181.704 1.969 1.78 1.969Zm.002-.624c-.703 0-1.031-.614-1.031-1.347 0-.731.328-1.352 1.031-1.352.699 0 1.027.621 1.027 1.352 0 .733-.328 1.347-1.027 1.347Zm3.351-1.72c0-.609.372-.957.89-.957.504 0 .81.331.81.885V313h.743v-2.429c0-.944-.519-1.439-1.3-1.439-.574 0-.95.266-1.126.671h-.047v-.621h-.714V313h.744v-2.267Zm4.869 2.342c.696 0 .97-.425 1.104-.669h.062V313h.726v-5.091h-.743v1.892h-.045c-.134-.236-.388-.669-1.099-.669-.922 0-1.601.728-1.601 1.966 0 1.236.669 1.977 1.596 1.977Zm.164-.634c-.663 0-1.009-.584-1.009-1.35 0-.758.338-1.328 1.009-1.328.649 0 .997.53.997 1.328 0 .803-.355 1.35-.997 1.35Zm3.9.644c.631 0 .987-.321 1.128-.607h.03V313h.726v-2.536c0-1.111-.875-1.332-1.481-1.332-.691 0-1.328.279-1.576.975l.698.159c.11-.271.388-.532.888-.532.479 0 .725.251.725.683v.018c0 .271-.278.266-.964.345-.723.085-1.464.274-1.464 1.141 0 .751.564 1.164 1.29 1.164Zm.162-.597c-.421 0-.724-.189-.724-.557 0-.398.353-.539.783-.596.241-.033.813-.097.92-.204v.492c0 .452-.361.865-.979.865Zm3.045 1.944c.614 0 1.002-.321 1.223-.922l1.579-4.321-.803-.007-.967 2.963h-.04l-.967-2.963h-.795l1.397 3.868-.092.253c-.189.507-.455.55-.863.438l-.179.609c.09.04.284.082.507.082Z" fill="#171A22"/><path d="M169.559 72.91V78h.731v-3.686h.047l1.502 3.679h.606l1.502-3.677h.047V78h.731v-5.09h-.932l-1.621 3.957h-.06l-1.621-3.958h-.932Zm7.831 5.167c1.077 0 1.78-.788 1.78-1.969 0-1.188-.703-1.976-1.78-1.976-1.076 0-1.78.788-1.78 1.976 0 1.181.704 1.97 1.78 1.97Zm.003-.624c-.704 0-1.032-.614-1.032-1.347 0-.731.328-1.352 1.032-1.352.698 0 1.026.621 1.026 1.352 0 .733-.328 1.347-1.026 1.347Zm3.35-1.72c0-.61.373-.957.89-.957.504 0 .81.33.81.885V78h.743v-2.429c0-.944-.519-1.439-1.3-1.439-.574 0-.949.266-1.126.671h-.047v-.621H180V78h.743v-2.267Zm5.223-1.551h-.783v-.915h-.744v.915h-.559v.596h.559v2.255c-.002.694.527 1.03 1.114 1.017.236-.003.395-.047.482-.08l-.134-.614c-.05.01-.142.032-.261.032-.241 0-.457-.08-.457-.51v-2.1h.783v-.596Zm1.647 1.551c0-.61.385-.957.915-.957.512 0 .818.326.818.885V78h.743v-2.429c0-.952-.522-1.439-1.308-1.439-.594 0-.952.259-1.131.671h-.047V72.91h-.733V78h.743v-2.267Zm4.211-2.824h-.743V78h.743v-5.09Zm1.47 6.523c.614 0 1.001-.32 1.223-.922l1.578-4.32-.803-.008-.967 2.963h-.039l-.967-2.963h-.796l1.397 3.868-.092.253c-.189.507-.455.55-.862.438l-.179.609c.089.04.283.082.507.082Zm8.19-5.186h.741c-.022-.815-.743-1.406-1.777-1.406-1.022 0-1.805.584-1.805 1.461 0 .709.507 1.124 1.325 1.345l.602.164c.544.144.964.323.964.776 0 .497-.475.825-1.128.825-.592 0-1.084-.264-1.129-.818h-.771c.05.922.764 1.492 1.905 1.492 1.195 0 1.884-.63 1.884-1.492 0-.917-.818-1.273-1.464-1.432l-.498-.129c-.397-.102-.927-.288-.924-.776 0-.432.395-.753 1.021-.753.585 0 1 .274 1.054.743ZM203.213 78h3.221v-.661h-2.453V75.78h2.257v-.659h-2.257v-1.55h2.423v-.662h-3.191V78Zm8.64-2.546c0-1.628-.975-2.614-2.292-2.614-1.323 0-2.295.986-2.295 2.614 0 1.626.972 2.616 2.295 2.616 1.317 0 2.292-.987 2.292-2.615Zm-.761 0c0 1.241-.656 1.915-1.531 1.915-.878 0-1.532-.674-1.532-1.915 0-1.24.654-1.913 1.532-1.913.875 0 1.531.673 1.531 1.913ZM214.663 78h.768v-1.927h1.094L217.559 78h.875l-1.129-2.06c.624-.232.935-.751.935-1.435 0-.937-.582-1.596-1.763-1.596h-1.814V78Zm.768-2.588v-1.844h.964c.759 0 1.072.36 1.072.937 0 .574-.313.907-1.062.907h-.974Zm5.282 2.665c.832 0 1.421-.41 1.591-1.031l-.704-.127c-.134.36-.457.544-.88.544-.636 0-1.064-.413-1.084-1.148h2.715v-.264c0-1.38-.826-1.919-1.691-1.919-1.063 0-1.764.81-1.764 1.984 0 1.186.691 1.961 1.817 1.961Zm-1.074-2.32c.03-.541.422-1.01 1.026-1.01.577 0 .955.427.957 1.01h-1.983Zm3.536 3.675h.744v-2.026h.044c.135.243.408.669 1.104.669.925 0 1.596-.741 1.596-1.977 0-1.238-.681-1.966-1.603-1.966-.709 0-.965.433-1.097.669h-.062v-.62h-.726v5.25Zm.729-3.341c0-.798.348-1.328.997-1.328.673 0 1.011.57 1.011 1.328 0 .766-.348 1.35-1.011 1.35-.639 0-.997-.547-.997-1.35Zm5.2 1.986c1.076 0 1.78-.788 1.78-1.969 0-1.188-.704-1.976-1.78-1.976s-1.78.788-1.78 1.976c0 1.181.704 1.97 1.78 1.97Zm.003-.624c-.704 0-1.032-.614-1.032-1.347 0-.731.328-1.352 1.032-1.352.698 0 1.026.621 1.026 1.352 0 .733-.328 1.347-1.026 1.347Zm2.607.547h.743v-2.332c0-.5.385-.86.912-.86.154 0 .328.028.388.045v-.711a3.035 3.035 0 0 0-.316-.017c-.447 0-.83.253-.969.663h-.04v-.606h-.718V78Zm4.694-3.818h-.783v-.915h-.743v.915h-.56v.596h.56v2.255c-.003.694.527 1.03 1.113 1.017a1.43 1.43 0 0 0 .483-.08l-.135-.614c-.049.01-.141.032-.261.032-.241 0-.457-.08-.457-.51v-2.1h.783v-.596Z" fill="#898D9A"/><path d="m191.828 117 .81-2.488h3.937l.809 2.488h2.472l-3.761-10.909h-2.972L189.357 117h2.471Zm1.396-4.288 1.342-4.128h.086l1.342 4.128h-2.77Zm13.149.804c.005 1.098-.746 1.673-1.561 1.673-.857 0-1.411-.602-1.417-1.566v-4.805h-2.269v5.21c.006 1.912 1.124 3.079 2.77 3.079 1.231 0 2.115-.634 2.482-1.593h.086V117h2.178v-8.182h-2.269v4.698Zm7.77 6.723c2.339 0 4.001-1.066 4.001-3.159v-8.262h-2.253v1.374h-.086c-.303-.665-.969-1.48-2.338-1.48-1.795 0-3.313 1.395-3.313 4.181 0 2.722 1.475 3.99 3.318 3.99 1.305 0 2.035-.655 2.333-1.332h.096v1.497c0 1.124-.719 1.561-1.704 1.561-1.002 0-1.508-.437-1.694-.933l-2.099.283c.272 1.289 1.534 2.28 3.739 2.28Zm.048-5.061c-1.113 0-1.72-.884-1.72-2.296 0-1.39.596-2.365 1.72-2.365 1.103 0 1.721.933 1.721 2.365 0 1.444-.629 2.296-1.721 2.296Zm11.005-1.662c.006 1.098-.745 1.673-1.56 1.673-.858 0-1.412-.602-1.417-1.566v-4.805h-2.27v5.21c.006 1.912 1.124 3.079 2.77 3.079 1.231 0 2.115-.634 2.483-1.593h.085V117h2.178v-8.182h-2.269v4.698Zm10.892-2.365c-.202-1.507-1.417-2.439-3.484-2.439-2.093 0-3.473.969-3.467 2.546-.006 1.225.767 2.019 2.365 2.338l1.417.283c.713.143 1.038.404 1.049.815-.011.484-.538.831-1.332.831-.809 0-1.347-.347-1.486-1.013l-2.232.118c.213 1.566 1.545 2.53 3.713 2.53 2.12 0 3.638-1.082 3.644-2.696-.006-1.182-.778-1.89-2.366-2.215l-1.48-.299c-.762-.165-1.044-.426-1.039-.82-.005-.49.549-.81 1.252-.81.788 0 1.257.432 1.369.959l2.077-.128Zm5.967-2.333h-1.539v-1.96h-2.269v1.96h-1.119v1.705h1.119v4.261c-.011 1.603 1.081 2.397 2.727 2.328a4.42 4.42 0 0 0 1.23-.213l-.356-1.689c-.112.022-.352.075-.565.075-.453 0-.767-.171-.767-.799v-3.963h1.539v-1.705Zm10.911.41h2.21c-.032-1.944-1.63-3.286-4.059-3.286-2.391 0-4.144 1.321-4.133 3.302-.005 1.609 1.129 2.531 2.972 2.973l1.188.298c1.188.288 1.848.628 1.854 1.364-.006.799-.762 1.342-1.934 1.342-1.198 0-2.061-.554-2.136-1.646h-2.232c.059 2.36 1.747 3.579 4.395 3.579 2.663 0 4.229-1.273 4.234-3.27-.005-1.817-1.374-2.781-3.27-3.207l-.98-.234c-.948-.219-1.742-.57-1.726-1.353 0-.703.623-1.22 1.752-1.22 1.103 0 1.78.501 1.865 1.358Zm3.911 7.772h7.372v-1.902h-5.066v-2.604h4.667v-1.902h-4.667v-2.599h5.045v-1.902h-7.351V117Zm19.209-5.455c0-3.568-2.216-5.603-5.108-5.603-2.908 0-5.108 2.035-5.108 5.603 0 3.553 2.2 5.604 5.108 5.604 2.892 0 5.108-2.035 5.108-5.604Zm-2.338 0c0 2.312-1.097 3.564-2.77 3.564-1.678 0-2.77-1.252-2.77-3.564 0-2.311 1.092-3.563 2.77-3.563 1.673 0 2.77 1.252 2.77 3.563Zm7.519 5.455h2.306v-3.867h1.683l2.067 3.867h2.546l-2.317-4.24c1.241-.533 1.928-1.614 1.928-3.106 0-2.167-1.433-3.563-3.91-3.563h-4.303V117Zm2.306-5.721v-3.302h1.555c1.332 0 1.977.591 1.977 1.677 0 1.082-.645 1.625-1.966 1.625h-1.566Zm11.092 5.881c2.024 0 3.387-.986 3.707-2.504l-2.099-.138c-.229.623-.815.948-1.571.948-1.135 0-1.854-.751-1.854-1.971v-.005h5.572v-.624c0-2.78-1.683-4.154-3.846-4.154-2.408 0-3.968 1.71-3.968 4.234 0 2.594 1.539 4.214 4.059 4.214Zm-1.817-5.077c.048-.932.756-1.677 1.763-1.677.986 0 1.667.703 1.673 1.677h-3.436Zm7.053 7.985h2.269v-4.378h.069c.314.681 1.002 1.443 2.323 1.443 1.864 0 3.318-1.475 3.318-4.213 0-2.813-1.518-4.208-3.313-4.208-1.369 0-2.024.815-2.328 1.48h-.101v-1.374h-2.237v11.25Zm2.221-7.159c0-1.459.618-2.392 1.72-2.392 1.124 0 1.721.975 1.721 2.392 0 1.428-.607 2.418-1.721 2.418-1.092 0-1.72-.958-1.72-2.418Zm10.968 4.251c2.482 0 4.027-1.699 4.027-4.219 0-2.535-1.545-4.229-4.027-4.229-2.483 0-4.027 1.694-4.027 4.229 0 2.52 1.544 4.219 4.027 4.219Zm.01-1.758c-1.145 0-1.731-1.049-1.731-2.477 0-1.427.586-2.482 1.731-2.482 1.124 0 1.71 1.055 1.71 2.482 0 1.428-.586 2.477-1.71 2.477Zm5.492 1.598h2.269v-4.629c0-1.007.735-1.699 1.737-1.699.314 0 .745.053.959.122v-2.013a3.409 3.409 0 0 0-.714-.08c-.916 0-1.667.533-1.966 1.545h-.085v-1.428h-2.2V117Zm10.9-8.182h-1.54v-1.96h-2.269v1.96h-1.118v1.705h1.118v4.261c-.01 1.603 1.082 2.397 2.728 2.328a4.427 4.427 0 0 0 1.23-.213l-.357-1.689c-.112.022-.351.075-.565.075-.452 0-.767-.171-.767-.799v-3.963h1.54v-1.705ZM190.053 151h1.904l3.623-7.197v-1.53h-6.124v1.508h4.214v.06L190.053 151Zm7.371 0h1.904l3.623-7.197v-1.53h-6.124v1.508h4.215v.06L197.424 151Zm9.871.119c1.969 0 3.384-1.052 3.388-2.467-.004-1.091-.844-1.982-1.892-2.156v-.06a1.959 1.959 0 0 0 1.568-1.935c-.004-1.35-1.3-2.348-3.064-2.348-1.768 0-3.064.998-3.06 2.348a1.938 1.938 0 0 0 1.569 1.935v.06c-1.066.174-1.897 1.065-1.892 2.156-.005 1.415 1.414 2.467 3.383 2.467Zm0-1.355c-.878 0-1.466-.52-1.466-1.257 0-.754.618-1.3 1.466-1.3.844 0 1.466.546 1.466 1.3 0 .742-.592 1.257-1.466 1.257Zm0-3.899c-.737 0-1.261-.481-1.261-1.172 0-.682.515-1.15 1.261-1.15.742 0 1.261.473 1.261 1.15 0 .691-.528 1.172-1.261 1.172Zm5.51 5.246c.545 0 1.019-.456 1.023-1.023a1.036 1.036 0 0 0-1.023-1.014 1.02 1.02 0 1 0 0 2.037Zm5.555.081c2.194 0 3.52-1.671 3.524-4.547.004-2.855-1.338-4.492-3.524-4.492-2.191 0-3.52 1.633-3.524 4.492-.009 2.868 1.325 4.543 3.524 4.547Zm0-1.53c-1.002 0-1.649-1.006-1.645-3.017.004-1.982.648-2.979 1.645-2.979.993 0 1.64.997 1.64 2.979.005 2.011-.643 3.017-1.64 3.017Zm4.891-7.389V151h1.789v-5.702h.073l2.258 5.659h1.219l2.259-5.637h.072V151h1.79v-8.727h-2.276l-2.403 5.863h-.102l-2.404-5.863h-2.275Z" fill="#171A22"/><rect x="238" y="144" width="16" height="7" rx="2" fill="#45E0A8"/><path d="M278.707 151h6.222v-1.509h-3.665v-.059l1.274-1.249c1.794-1.636 2.276-2.454 2.276-3.447 0-1.513-1.236-2.583-3.107-2.583-1.832 0-3.089 1.096-3.085 2.809h1.752c-.005-.836.524-1.347 1.321-1.347.767 0 1.338.477 1.338 1.244 0 .695-.426 1.172-1.219 1.935l-3.107 2.876V151Zm11.356-8.727h-1.735l-2.16 1.368v1.636l1.999-1.253h.051V151h1.845v-8.727Zm2.074 8.727h6.222v-1.509h-3.665v-.059l1.274-1.249c1.794-1.636 2.276-2.454 2.276-3.447 0-1.513-1.236-2.583-3.107-2.583-1.832 0-3.089 1.096-3.085 2.809h1.751c-.004-.836.524-1.347 1.321-1.347.767 0 1.338.477 1.338 1.244 0 .695-.426 1.172-1.218 1.935l-3.107 2.876V151Zm8.637.111c.545 0 1.018-.456 1.023-1.023a1.036 1.036 0 0 0-1.023-1.014 1.019 1.019 0 1 0 0 2.037Zm5.613.008c1.943 0 3.264-1.265 3.26-3.03.004-1.67-1.163-2.872-2.736-2.872-.767 0-1.427.32-1.734.75h-.051l.226-2.186h3.813v-1.508h-5.335l-.413 4.602 1.641.294c.268-.362.788-.588 1.304-.588.877.004 1.508.639 1.508 1.555 0 .908-.618 1.534-1.483 1.534-.733 0-1.325-.46-1.368-1.137h-1.79c.034 1.508 1.351 2.586 3.158 2.586Zm4.598-8.846V151h1.79v-5.702h.072l2.259 5.659h1.219l2.258-5.637h.073V151h1.789v-8.727h-2.275l-2.404 5.863h-.102l-2.403-5.863h-2.276Z" fill="#171A22"/><rect x="326" y="144" width="8" height="7" rx="2" fill="#45E0A8"/><path d="M370.895 151.119c1.943 0 3.264-1.265 3.26-3.03.004-1.67-1.164-2.872-2.736-2.872-.767 0-1.428.32-1.734.75h-.051l.225-2.186h3.814v-1.508h-5.335l-.413 4.602 1.64.294c.269-.362.789-.588 1.304-.588.878.004 1.509.639 1.509 1.555 0 .908-.618 1.534-1.483 1.534-.733 0-1.325-.46-1.368-1.137h-1.79c.034 1.508 1.351 2.586 3.158 2.586Zm5.355-.008c.546 0 1.019-.456 1.023-1.023a1.035 1.035 0 0 0-1.023-1.014 1.018 1.018 0 1 0 0 2.037Zm2.364-1.645h4.189V151h1.764v-1.534h1.083v-1.479h-1.083v-5.714h-2.309l-3.644 5.74v1.453Zm4.223-1.479h-2.365v-.068l2.297-3.635h.068v3.703Zm7.722-5.714h-1.734l-2.161 1.368v1.636l1.999-1.253h.051V151h1.845v-8.727Z" fill="#171A22"/><rect x="396" y="144" width="4" height="7" rx="2" fill="#F51A38"/><path d="M189.707 174h6.222v-1.509h-3.665v-.059l1.274-1.249c1.794-1.636 2.276-2.454 2.276-3.447 0-1.513-1.236-2.583-3.107-2.583-1.832 0-3.089 1.096-3.085 2.809h1.752c-.005-.836.524-1.347 1.321-1.347.767 0 1.338.477 1.338 1.244 0 .695-.426 1.172-1.219 1.935l-3.107 2.876V174Zm8.637.111c.546 0 1.019-.456 1.023-1.023a1.035 1.035 0 0 0-1.023-1.014 1.02 1.02 0 1 0 0 2.037Zm2.496-.111h6.222v-1.509h-3.665v-.059l1.274-1.249c1.794-1.636 2.276-2.454 2.276-3.447 0-1.513-1.236-2.583-3.107-2.583-1.832 0-3.089 1.096-3.085 2.809h1.751c-.004-.836.525-1.347 1.321-1.347.767 0 1.338.477 1.338 1.244 0 .695-.426 1.172-1.218 1.935l-3.107 2.876V174Zm10.814.119c1.969 0 3.384-1.052 3.388-2.467-.004-1.091-.843-1.982-1.892-2.156v-.06a1.959 1.959 0 0 0 1.568-1.935c-.004-1.35-1.299-2.348-3.064-2.348-1.768 0-3.063.998-3.059 2.348a1.938 1.938 0 0 0 1.568 1.935v.06c-1.065.174-1.896 1.065-1.892 2.156-.004 1.415 1.415 2.467 3.383 2.467Zm0-1.355c-.877 0-1.465-.52-1.465-1.257 0-.754.617-1.3 1.465-1.3.844 0 1.466.546 1.466 1.3 0 .742-.592 1.257-1.466 1.257Zm0-3.899c-.737 0-1.261-.481-1.261-1.172 0-.682.516-1.15 1.261-1.15.742 0 1.262.473 1.262 1.15 0 .691-.529 1.172-1.262 1.172Z" fill="#171A22"/><rect x="220" y="167" width="16" height="7" rx="2" fill="#FF622D"/><path d="M282.504 165.273h-1.734l-2.161 1.368v1.636l1.999-1.253h.051V174h1.845v-8.727Zm5.496 8.919c2.195 0 3.52-1.671 3.525-4.547.004-2.855-1.339-4.492-3.525-4.492-2.19 0-3.52 1.633-3.524 4.492-.008 2.868 1.325 4.543 3.524 4.547Zm0-1.53c-1.001 0-1.649-1.006-1.645-3.017.005-1.982.648-2.979 1.645-2.979.993 0 1.641.997 1.641 2.979.004 2.011-.643 3.017-1.641 3.017Zm5.918-3.955c.546 0 1.019-.456 1.023-1.022a1.035 1.035 0 0 0-1.023-1.015 1.018 1.018 0 1 0 0 2.037Zm0 4.279c.546 0 1.019-.456 1.023-1.023a1.035 1.035 0 0 0-1.023-1.014 1.018 1.018 0 1 0 0 2.037Zm2.496 1.014h6.222v-1.509h-3.665v-.059l1.274-1.249c1.794-1.636 2.276-2.454 2.276-3.447 0-1.513-1.236-2.583-3.107-2.583-1.832 0-3.089 1.096-3.085 2.809h1.752c-.005-.836.524-1.347 1.321-1.347.767 0 1.338.477 1.338 1.244 0 .695-.426 1.172-1.219 1.935l-3.107 2.876V174Zm10.981.192c2.194 0 3.52-1.671 3.524-4.547.004-2.855-1.338-4.492-3.524-4.492-2.19 0-3.52 1.633-3.524 4.492-.009 2.868 1.325 4.543 3.524 4.547Zm0-1.53c-1.002 0-1.649-1.006-1.645-3.017.004-1.982.648-2.979 1.645-2.979.993 0 1.641.997 1.641 2.979.004 2.011-.644 3.017-1.641 3.017Z" fill="#171A22"/><rect x="316" y="167" width="25" height="7" rx="2" fill="#45E0A8"/><path d="M371.504 165.273h-1.734l-2.161 1.368v1.636l1.999-1.253h.051V174h1.845v-8.727Zm2.42 8.727h1.904l3.623-7.197v-1.53h-6.124v1.508h4.215v.06L373.924 174Zm6.369.111c.546 0 1.019-.456 1.023-1.023a1.035 1.035 0 0 0-1.023-1.014 1.018 1.018 0 1 0 0 2.037Zm5.483.008c1.943.009 3.268-1.265 3.264-3.042.004-1.637-1.138-2.817-2.685-2.817-.959 0-1.807.46-2.199 1.231h-.059c.008-1.7.605-2.757 1.742-2.757.67 0 1.151.367 1.292.976h1.819c-.174-1.436-1.368-2.557-3.111-2.557-2.156 0-3.541 1.748-3.549 4.679-.004 3.196 1.692 4.279 3.486 4.287Zm-.009-1.449c-.852 0-1.483-.686-1.483-1.538.004-.848.648-1.538 1.496-1.538.852 0 1.474.669 1.47 1.534.004.873-.631 1.542-1.483 1.542Zm7.739-7.517c-1.952-.008-3.269 1.27-3.26 3.026.004 1.628 1.133 2.808 2.68 2.808.959 0 1.811-.464 2.199-1.231h.06c-.005 1.73-.605 2.782-1.743 2.782-.669 0-1.151-.366-1.291-1.001h-1.82c.17 1.47 1.364 2.582 3.111 2.582 2.16 0 3.554-1.747 3.549-4.708-.004-3.162-1.691-4.249-3.485-4.258Zm.012 1.449c.848 0 1.475.691 1.483 1.522a1.504 1.504 0 0 1-1.5 1.525c-.852 0-1.461-.665-1.465-1.521-.009-.852.626-1.526 1.482-1.526Zm9.529 5.762c.004 1.048.673 1.939 1.922 1.939 1.236 0 1.926-.891 1.922-1.939v-.461c.004-1.056-.669-1.939-1.922-1.939-1.232 0-1.918.891-1.922 1.939v.461Zm-4.479-4.995c.004 1.049.673 1.931 1.918 1.931 1.24 0 1.93-.874 1.926-1.931v-.46c.004-1.057-.669-1.939-1.926-1.939-1.219 0-1.914.882-1.918 1.939v.46Zm.418 6.631h1.112l6-8.727h-1.112l-6 8.727Zm5.301-2.097c.004-.417.17-.848.682-.848.537 0 .677.431.673.848v.461c.004.417-.153.839-.673.839s-.678-.435-.682-.839v-.461Zm-4.47-4.994c.004-.405.162-.848.669-.848.537 0 .682.43.677.848v.46c.005.418-.157.84-.677.84-.503 0-.665-.422-.669-.84v-.46Z" fill="#171A22"/><rect x="412" y="167" width="12" height="7" rx="2" fill="#F51A38"/><path fill-rule="evenodd" clip-rule="evenodd" d="M210.217 245.773c11.444 0 20.722-9.072 20.722-20.262 0-11.189-9.278-20.261-20.722-20.261-9.985 0-18.319 6.902-20.284 16.093a19.743 19.743 0 0 0-.44 4.168c0 11.19 9.278 20.262 20.724 20.262Z" fill="#B880FF"/><path fill-rule="evenodd" clip-rule="evenodd" d="M339.491 245.773c11.444 0 20.724-9.072 20.724-20.262 0-11.189-9.28-20.261-20.724-20.261-9.985 0-18.319 6.902-20.284 16.093a19.876 19.876 0 0 0-.44 4.168c0 11.19 9.279 20.262 20.724 20.262Zm-128.439-20.74 19.37-3.706c-1.851-9.363-10.069-15.893-19.282-15.97-.017 6.558-.046 13.116-.089 19.674l.001.002Z" fill="#45E0A8"/><path fill-rule="evenodd" clip-rule="evenodd" d="m340.326 225.031 19.369-3.704c-1.85-9.363-10.069-15.892-19.281-15.97-.017 6.558-.046 13.116-.088 19.673v.001Z" fill="#B880FF"/><path d="M210.217 239.985c8.174 0 14.802-6.479 14.802-14.473 0-7.993-6.628-14.472-14.802-14.472-8.175 0-14.803 6.479-14.803 14.472 0 7.994 6.628 14.473 14.803 14.473Zm129.274 0c8.176 0 14.802-6.479 14.802-14.473 0-7.993-6.626-14.472-14.802-14.472-8.175 0-14.802 6.479-14.802 14.472 0 7.994 6.627 14.473 14.802 14.473Z" fill="#fff"/><path opacity=".5" fill-rule="evenodd" clip-rule="evenodd" d="M189 258.609h239.798v.966H189v-.966ZM189 193h239.798v.966H189V193Zm0 84.905h239.798v.965H189v-.965Zm0 19.297h239.798v.965H189v-.965Z" fill="#D1D4DB"/><path d="M216.137 270.422H190.48c-.393 0-.769.153-1.046.424a1.428 1.428 0 0 0-.434 1.023v2.895c0 .799.662 1.446 1.48 1.446h25.657c.393 0 .77-.151 1.047-.423.277-.272.434-.64.434-1.023v-2.895c0-.384-.157-.752-.434-1.023a1.498 1.498 0 0 0-1.047-.424Z" fill="#D1D4DB"/><path d="M427.318 270.422h-15.79c-.393 0-.769.153-1.046.424a1.428 1.428 0 0 0-.434 1.023v2.895c0 .799.662 1.446 1.48 1.446h15.79c.393 0 .769-.151 1.046-.424.278-.271.434-.639.434-1.022v-2.895c0-.384-.156-.752-.434-1.023a1.496 1.496 0 0 0-1.046-.424Z" fill="#FFF4B6"/><path d="M216.137 289.719H190.48c-.393 0-.769.152-1.046.425a1.428 1.428 0 0 0-.434 1.022v2.895c0 .8.662 1.447 1.48 1.447h25.657c.393 0 .77-.152 1.047-.424.277-.271.434-.639.434-1.023v-2.895c0-.383-.157-.751-.434-1.022a1.49 1.49 0 0 0-1.047-.425Z" fill="#D1D4DB"/><path d="M427.318 289.719h-15.79a1.493 1.493 0 0 0-1.367.894 1.428 1.428 0 0 0-.113.553v2.895c0 .8.662 1.447 1.48 1.447h15.79a1.506 1.506 0 0 0 1.046-.424 1.436 1.436 0 0 0 .434-1.023v-2.895a1.428 1.428 0 0 0-.434-1.022 1.516 1.516 0 0 0-.479-.315 1.526 1.526 0 0 0-.567-.11Z" fill="#FFF4B6"/><path opacity=".5" d="M387.844 270.422h-15.789c-.393 0-.77.153-1.047.424a1.432 1.432 0 0 0-.434 1.023v2.895c0 .799.663 1.446 1.481 1.446h15.789c.393 0 .769-.151 1.047-.423.277-.272.433-.64.433-1.023v-2.895c0-.384-.156-.752-.433-1.023a1.5 1.5 0 0 0-1.047-.424Zm0 19.297h-15.789c-.393 0-.77.152-1.047.423-.277.272-.434.64-.434 1.024v2.893c0 .8.663 1.448 1.481 1.448h15.789a1.5 1.5 0 0 0 1.047-.424c.277-.271.433-.639.433-1.024v-2.893c0-.384-.156-.752-.433-1.024a1.5 1.5 0 0 0-1.047-.423Z" fill="#89CA4F"/><path d="M242.616 215.193h-1.973a.976.976 0 0 0-.987.965v1.93c0 .532.442.964.987.964h1.973a.975.975 0 0 0 .987-.964v-1.93a.976.976 0 0 0-.987-.965Zm129.276 0h-1.975a.976.976 0 0 0-.986.965v1.93c0 .532.442.964.986.964h1.975a.976.976 0 0 0 .985-.964v-1.93a.976.976 0 0 0-.985-.965Z" fill="#B880FF"/><path d="M297.879 215.193h-50.328a.976.976 0 0 0-.987.965v1.93c0 .532.442.964.987.964h50.328a.976.976 0 0 0 .987-.964v-1.93a.976.976 0 0 0-.987-.965Zm129.274 0h-50.327a.976.976 0 0 0-.988.965v1.93c0 .532.442.964.988.964h50.327a.976.976 0 0 0 .987-.964v-1.93a.976.976 0 0 0-.987-.965Z" fill="#D1D4DB"/><path d="M242.616 227.732h-1.973a.976.976 0 0 0-.987.965v1.93c0 .533.442.965.987.965h1.973a.976.976 0 0 0 .987-.965v-1.93a.976.976 0 0 0-.987-.965Zm129.276 0h-1.975a.976.976 0 0 0-.986.965v1.93c0 .533.442.965.986.965h1.975a.976.976 0 0 0 .985-.965v-1.93a.976.976 0 0 0-.985-.965Z" fill="#FF622D"/><path d="M297.879 227.732h-50.328a.976.976 0 0 0-.987.965v1.93c0 .533.442.965.987.965h50.328a.976.976 0 0 0 .987-.965v-1.93a.976.976 0 0 0-.987-.965Zm129.274 0h-50.327a.976.976 0 0 0-.988.965v1.93c0 .533.442.965.988.965h50.327a.976.976 0 0 0 .987-.965v-1.93a.976.976 0 0 0-.987-.965Z" fill="#D1D4DB"/><rect x="169.5" y="85.5" width="279" height="238" rx="5.5" stroke="#E9EBEF"/><rect x="185" y="189" width="329" height="235" rx="10" fill="#fff"/><g opacity=".1" filter="url(#d)"><rect x="185.5" y="189" width="148.184" height="88.793" rx="9.56" fill="#171A22"/></g><g filter="url(#e)"><rect x="185" y="189" width="329" height="235" rx="10" fill="#fff"/></g><path d="M218.435 216.674c-.271-2.249-1.973-3.541-4.226-3.541-2.571 0-4.534 1.815-4.534 5 0 3.175 1.93 5 4.534 5 2.496 0 4.002-1.659 4.226-3.451l-2.082-.009c-.195 1.041-1.013 1.639-2.11 1.639-1.479 0-2.482-1.097-2.482-3.179 0-2.025.989-3.18 2.496-3.18 1.126 0 1.939.651 2.096 1.721h2.082Zm3.462-3.408h-2.025V223h2.025v-9.734Zm1.622 9.734h2.025v-7.301h-2.025V223Zm1.017-8.242c.604 0 1.098-.461 1.098-1.027 0-.56-.494-1.021-1.098-1.021-.599 0-1.093.461-1.093 1.021 0 .566.494 1.027 1.093 1.027Zm5.957 8.384c1.806 0 3.023-.879 3.308-2.234l-1.873-.123c-.204.556-.727.846-1.402.846-1.012 0-1.654-.67-1.654-1.759v-.004h4.972v-.557c0-2.481-1.502-3.707-3.432-3.707-2.148 0-3.541 1.526-3.541 3.779 0 2.314 1.374 3.759 3.622 3.759Zm-1.621-4.529c.043-.832.675-1.497 1.573-1.497.88 0 1.488.627 1.493 1.497h-3.066Zm8.318.166c.005-.941.565-1.492 1.383-1.492.813 0 1.302.532 1.297 1.426V223h2.025v-4.649c0-1.701-.998-2.747-2.519-2.747-1.084 0-1.868.532-2.196 1.383h-.085v-1.288h-1.93V223h2.025v-4.221Zm10.184-3.08h-1.373v-1.749h-2.025v1.749h-.998v1.521h.998v3.803c-.01 1.43.965 2.138 2.433 2.077a3.91 3.91 0 0 0 1.098-.191l-.318-1.506c-.1.019-.314.066-.504.066-.404 0-.684-.152-.684-.713v-3.536h1.373v-1.521Zm3.343-2.433h-1.521v1.036c0 .803-.285 1.388-.604 1.892l.894.527c.67-.561 1.231-1.559 1.231-2.429v-1.026Zm6.508 4.515c-.181-1.345-1.265-2.177-3.109-2.177-1.868 0-3.099.865-3.094 2.272-.005 1.093.684 1.801 2.11 2.087l1.265.252c.637.128.926.361.936.727-.01.432-.48.741-1.188.741-.723 0-1.203-.309-1.326-.903l-1.992.105c.19 1.397 1.379 2.257 3.313 2.257 1.892 0 3.246-.965 3.251-2.405-.005-1.055-.694-1.687-2.11-1.977l-1.322-.266c-.679-.147-.931-.38-.926-.732-.005-.437.489-.722 1.117-.722.703 0 1.121.385 1.221.855l1.854-.114Zm4.577 5.219h4.159c2.186 0 3.35-1.141 3.35-2.69 0-1.441-1.031-2.31-2.138-2.363v-.095c1.012-.228 1.758-.946 1.758-2.091 0-1.459-1.083-2.495-3.232-2.495h-3.897V223Zm2.058-1.683v-2.585h1.725c.989 0 1.602.57 1.602 1.373 0 .732-.499 1.212-1.649 1.212h-1.678Zm0-3.978v-2.41h1.564c.912 0 1.43.471 1.43 1.174 0 .77-.627 1.236-1.469 1.236h-1.525Zm6.753 5.661h2.024v-4.131c0-.898.656-1.516 1.55-1.516.28 0 .665.048.855.11v-1.797a3.016 3.016 0 0 0-.637-.071c-.817 0-1.487.475-1.753 1.378h-.076v-1.274h-1.963V223Zm7.349.138c1.079 0 1.777-.471 2.134-1.151h.057V223h1.92v-4.924c0-1.74-1.473-2.472-3.099-2.472-1.749 0-2.899.837-3.18 2.168l1.873.152c.138-.485.57-.842 1.298-.842.689 0 1.083.347 1.083.946v.029c0 .47-.499.532-1.768.656-1.445.133-2.742.617-2.742 2.248 0 1.445 1.031 2.177 2.424 2.177Zm.58-1.398c-.623 0-1.07-.29-1.07-.846 0-.57.471-.851 1.184-.95.442-.062 1.164-.167 1.407-.328v.774c0 .766-.633 1.35-1.521 1.35Zm7.127-2.961c.004-.941.565-1.492 1.383-1.492.813 0 1.302.532 1.297 1.426V223h2.025v-4.649c0-1.701-.998-2.747-2.519-2.747-1.084 0-1.868.532-2.196 1.383h-.085v-1.288h-1.93V223h2.025v-4.221Zm8.991 4.34c1.179 0 1.792-.68 2.072-1.288h.086V223h1.996v-9.734h-2.02v3.659h-.062c-.27-.594-.855-1.321-2.077-1.321-1.601 0-2.956 1.245-2.956 3.755 0 2.443 1.298 3.76 2.961 3.76Zm.642-1.612c-.994 0-1.535-.884-1.535-2.158 0-1.264.532-2.134 1.535-2.134.984 0 1.535.832 1.535 2.134 0 1.303-.561 2.158-1.535 2.158Zm8.313 1.493h2.058v-3.156h1.73c2.238 0 3.541-1.336 3.541-3.28 0-1.934-1.279-3.298-3.489-3.298h-3.84V223Zm2.058-4.805v-3.247h1.388c1.188 0 1.763.647 1.763 1.616 0 .965-.575 1.631-1.754 1.631h-1.397Zm9.75 4.947c2.215 0 3.594-1.516 3.594-3.764 0-2.262-1.379-3.774-3.594-3.774-2.214 0-3.593 1.512-3.593 3.774 0 2.248 1.379 3.764 3.593 3.764Zm.01-1.568c-1.022 0-1.545-.936-1.545-2.21s.523-2.215 1.545-2.215c1.003 0 1.526.941 1.526 2.215s-.523 2.21-1.526 2.21Zm4.9 1.426h2.025v-4.131c0-.898.656-1.516 1.549-1.516.281 0 .666.048.856.11v-1.797a3.031 3.031 0 0 0-.637-.071c-.817 0-1.488.475-1.754 1.378h-.076v-1.274h-1.963V223Zm9.726-7.301h-1.374v-1.749h-2.024v1.749h-.999v1.521h.999v3.803c-.01 1.43.964 2.138 2.433 2.077a3.91 3.91 0 0 0 1.098-.191l-.318-1.506c-.1.019-.314.066-.504.066-.404 0-.685-.152-.685-.713v-3.536h1.374v-1.521Zm3.401 7.439c1.079 0 1.777-.471 2.134-1.151h.057V223h1.92v-4.924c0-1.74-1.473-2.472-3.099-2.472-1.749 0-2.899.837-3.18 2.168l1.873.152c.138-.485.57-.842 1.298-.842.689 0 1.083.347 1.083.946v.029c0 .47-.499.532-1.768.656-1.445.133-2.742.617-2.742 2.248 0 1.445 1.031 2.177 2.424 2.177Zm.58-1.398c-.623 0-1.07-.29-1.07-.846 0-.57.471-.851 1.184-.95.442-.062 1.164-.167 1.406-.328v.774c0 .766-.632 1.35-1.52 1.35Zm7.127-8.474h-2.025V223h2.025v-9.734Z" fill="#171A22"/><path d="M217.08 309c-.324-1.79-1.756-2.847-3.512-2.847-2.233 0-3.852 1.722-3.852 4.483 0 2.761 1.619 4.483 3.852 4.483 1.756 0 3.188-1.057 3.512-2.847h-1.057c-.256 1.211-1.296 1.858-2.455 1.858-1.585 0-2.829-1.227-2.829-3.494 0-2.267 1.244-3.494 2.829-3.494 1.159 0 2.199.648 2.455 1.858h1.057Zm2.577-2.728h-1.006V315h1.006v-8.728Zm1.842 8.728h1.005v-6.546h-1.005V315Zm.511-7.637c.392 0 .716-.306.716-.681 0-.375-.324-.682-.716-.682-.392 0-.716.307-.716.682 0 .375.324.681.716.681Zm5.081 7.773c1.329 0 2.301-.665 2.608-1.653l-.972-.273c-.256.682-.848 1.023-1.636 1.023-1.181 0-1.995-.763-2.042-2.165h4.752v-.426c0-2.438-1.449-3.273-2.813-3.273-1.772 0-2.949 1.398-2.949 3.409 0 2.012 1.16 3.358 3.052 3.358Zm-2.042-3.937c.069-1.019.789-1.927 1.939-1.927 1.091 0 1.79.819 1.79 1.927h-3.729Zm7.287-.137c0-1.142.708-1.79 1.671-1.79.933 0 1.5.61 1.5 1.637V315h1.005v-4.159c0-1.671-.89-2.472-2.215-2.472-.989 0-1.603.443-1.91 1.108h-.085v-1.023h-.971V315h1.005v-3.938Zm8.861-2.608h-1.398v-1.568h-1.006v1.568h-.988v.853h.988v4.09c0 1.143.921 1.688 1.773 1.688.375 0 .614-.068.75-.119l-.204-.904c-.086.017-.222.051-.444.051-.443 0-.869-.136-.869-.988v-3.818h1.398v-.853Zm4.888 9h1.005v-3.46h.085c.222.358.648 1.142 1.91 1.142 1.636 0 2.778-1.312 2.778-3.392 0-2.062-1.142-3.375-2.796-3.375-1.278 0-1.67.784-1.892 1.125h-.119v-1.04h-.971v9Zm.988-5.727c0-1.466.648-2.455 1.875-2.455 1.279 0 1.909 1.074 1.909 2.455 0 1.398-.647 2.506-1.909 2.506-1.21 0-1.875-1.023-1.875-2.506Zm8.983 3.409c1.773 0 2.966-1.346 2.966-3.375 0-2.045-1.193-3.392-2.966-3.392-1.773 0-2.966 1.347-2.966 3.392 0 2.029 1.193 3.375 2.966 3.375Zm0-.903c-1.346 0-1.96-1.159-1.96-2.472 0-1.312.614-2.489 1.96-2.489 1.347 0 1.96 1.177 1.96 2.489 0 1.313-.613 2.472-1.96 2.472Zm4.501.767h1.006v-4.142c0-.887.699-1.534 1.653-1.534.269 0 .546.051.614.068v-1.023a10.216 10.216 0 0 0-.529-.017c-.784 0-1.465.443-1.704 1.091h-.068v-.989h-.972V315Zm7.722-6.546h-1.398v-1.568h-1.006v1.568h-.988v.853h.988v4.09c0 1.143.921 1.688 1.773 1.688.375 0 .614-.068.75-.119l-.204-.904c-.086.017-.222.051-.444.051-.443 0-.869-.136-.869-.988v-3.818h1.398v-.853Zm3.439 6.699c1.142 0 1.738-.613 1.943-1.04h.051V315h1.006v-4.313c0-2.079-1.586-2.318-2.421-2.318-.988 0-2.113.341-2.625 1.534l.955.341c.221-.477.746-.989 1.704-.989.925 0 1.381.49 1.381 1.33v.034c0 .486-.494.443-1.687.597-1.215.157-2.54.426-2.54 1.926 0 1.278.988 2.011 2.233 2.011Zm.153-.903c-.801 0-1.381-.358-1.381-1.057 0-.767.699-1.006 1.483-1.108.427-.051 1.569-.17 1.739-.375v.92c0 .819-.648 1.62-1.841 1.62Zm5.688-7.978h-1.006V315h1.006v-8.728Zm11.081 0v5.694c0 1.278-.878 2.199-2.336 2.199-1.457 0-2.335-.921-2.335-2.199v-5.694h-1.057v5.779c0 1.79 1.338 3.102 3.392 3.102s3.392-1.312 3.392-3.102v-5.779h-1.056Zm3.167 8.728h1.057v-3.409h1.909c.076 0 .149 0 .221-.005l1.841 3.414h1.227l-1.973-3.605c1.113-.38 1.633-1.287 1.633-2.446 0-1.543-.921-2.677-2.966-2.677h-2.949V315Zm1.057-4.364v-3.426h1.858c1.414 0 1.96.69 1.96 1.739 0 1.048-.546 1.687-1.943 1.687h-1.875Zm6.619 4.364h5.113v-.938h-4.057v-7.79h-1.056V315Z" fill="#898D9A"/><rect opacity=".24" x="314" y="298" width="88" height="21.141" rx="10.571" fill="#B880FF"/><path d="M327.403 313h.989l1.432-5.029h.102l1.432 5.029h.989l1.994-6.546h-1.057l-1.415 4.995h-.068l-1.381-4.995h-1.073l-1.398 5.012h-.068l-1.415-5.012h-1.057l1.994 6.546Zm9.273-3.938c0-1.142.729-1.79 1.722-1.79.946 0 1.517.597 1.517 1.637V313h1.005v-4.159c0-1.684-.894-2.472-2.232-2.472-1.032 0-1.62.43-1.927 1.108h-.085v-3.205h-1.006V313h1.006v-3.938ZM342.76 313h1.006v-6.546h-1.006V313Zm.512-7.637c.392 0 .716-.306.716-.681 0-.375-.324-.682-.716-.682-.392 0-.716.307-.716.682 0 .375.324.681.716.681Zm5.183 1.091h-1.398v-1.568h-1.006v1.568h-.989v.853h.989v4.09c0 1.143.921 1.688 1.773 1.688.375 0 .614-.068.75-.119l-.205-.904c-.085.017-.221.051-.443.051-.443 0-.869-.136-.869-.988v-3.818h1.398v-.853Zm4.186 6.682c1.33 0 2.301-.665 2.608-1.653l-.971-.273c-.256.682-.848 1.023-1.637 1.023-1.18 0-1.994-.763-2.041-2.165h4.752v-.426c0-2.438-1.449-3.273-2.813-3.273-1.773 0-2.949 1.398-2.949 3.409 0 2.012 1.159 3.358 3.051 3.358Zm-2.041-3.937c.068-1.019.788-1.927 1.939-1.927 1.091 0 1.79.819 1.79 1.927H350.6Zm10.031-.409h-3.818v.937h3.818v-.937Zm2.776-4.518h-1.006V313h1.006v-8.728Zm3.768 8.881c1.142 0 1.738-.613 1.943-1.04h.051V313h1.006v-4.313c0-2.079-1.586-2.318-2.421-2.318-.988 0-2.113.341-2.625 1.534l.955.341c.221-.477.746-.989 1.704-.989.925 0 1.381.49 1.381 1.33v.034c0 .486-.494.443-1.687.597-1.215.157-2.54.426-2.54 1.926 0 1.278.988 2.011 2.233 2.011Zm.153-.903c-.801 0-1.381-.358-1.381-1.057 0-.767.699-1.006 1.483-1.108.427-.051 1.569-.17 1.739-.375v.92c0 .819-.648 1.62-1.841 1.62Zm4.819.75h.971v-1.006h.12c.221.358.647 1.142 1.909 1.142 1.636 0 2.778-1.312 2.778-3.392 0-2.062-1.142-3.375-2.795-3.375-1.279 0-1.671.784-1.892 1.125h-.086v-3.222h-1.005V313Zm.988-3.273c0-1.466.648-2.455 1.875-2.455 1.279 0 1.909 1.074 1.909 2.455 0 1.398-.647 2.506-1.909 2.506-1.21 0-1.875-1.023-1.875-2.506Zm9.073 3.409c1.329 0 2.301-.665 2.608-1.653l-.972-.273c-.256.682-.848 1.023-1.636 1.023-1.181 0-1.995-.763-2.041-2.165h4.751v-.426c0-2.438-1.449-3.273-2.813-3.273-1.772 0-2.948 1.398-2.948 3.409 0 2.012 1.159 3.358 3.051 3.358Zm-2.041-3.937c.068-1.019.788-1.927 1.938-1.927 1.091 0 1.79.819 1.79 1.927h-3.728Zm7.286-4.927h-1.005V313h1.005v-8.728Z" fill="#6C31C9"/><path d="M223.926 341.062c0-1.142.729-1.79 1.722-1.79.946 0 1.517.597 1.517 1.637V345h1.005v-4.159c0-1.684-.894-2.472-2.232-2.472-1.032 0-1.62.43-1.927 1.108h-.085v-3.205h-1.006V345h1.006v-3.938Zm8.931-2.608h-1.398v-1.568h-1.006v1.568h-.988v.853h.988v4.09c0 1.143.921 1.688 1.773 1.688.375 0 .614-.068.75-.119l-.204-.904c-.086.017-.222.051-.444.051-.443 0-.869-.136-.869-.988v-3.818h1.398v-.853Zm4.359 0h-1.397v-1.568h-1.006v1.568h-.989v.853h.989v4.09c0 1.143.92 1.688 1.773 1.688a2.1 2.1 0 0 0 .75-.119l-.205-.904c-.085.017-.222.051-.443.051-.443 0-.869-.136-.869-.988v-3.818h1.397v-.853Zm1.513 9h1.006v-3.46h.085c.222.358.648 1.142 1.909 1.142 1.636 0 2.778-1.312 2.778-3.392 0-2.062-1.142-3.375-2.795-3.375-1.278 0-1.67.784-1.892 1.125h-.119v-1.04h-.972v9Zm.989-5.727c0-1.466.647-2.455 1.875-2.455 1.278 0 1.909 1.074 1.909 2.455 0 1.398-.648 2.506-1.909 2.506-1.211 0-1.875-1.023-1.875-2.506Zm10.96-1.807c-.315-.929-1.023-1.551-2.318-1.551-1.381 0-2.404.784-2.404 1.892 0 .904.537 1.509 1.739 1.79l1.091.256c.66.153.971.468.971.92 0 .563-.596 1.023-1.534 1.023-.822 0-1.338-.354-1.517-1.057l-.954.239c.234 1.112 1.15 1.704 2.488 1.704 1.522 0 2.557-.831 2.557-1.96 0-.912-.571-1.487-1.738-1.773l-.972-.238c-.776-.192-1.125-.452-1.125-.955 0-.563.597-.972 1.398-.972.878 0 1.24.486 1.415.938l.903-.256Zm2.366 5.148a.77.77 0 0 0 .767-.767.77.77 0 0 0-.767-.767.77.77 0 0 0-.767.767.77.77 0 0 0 .767.767Zm0-4.858a.77.77 0 0 0 .767-.767.77.77 0 0 0-.767-.767.77.77 0 0 0-.767.767.77.77 0 0 0 .767.767Zm5.657-4.347h-.92l-2.813 10.449h.92l2.813-10.449Zm4.277 0h-.92l-2.813 10.449h.921l2.812-10.449ZM264.17 345h1.006v-4.091c0-.959.699-1.637 1.483-1.637.763 0 1.296.499 1.296 1.245V345h1.022v-4.262c0-.843.529-1.466 1.449-1.466.716 0 1.33.38 1.33 1.347V345h1.005v-4.381c0-1.538-.826-2.25-1.994-2.25-.937 0-1.624.43-1.96 1.108h-.068c-.324-.699-.895-1.108-1.756-1.108-.852 0-1.483.409-1.756 1.108h-.085v-1.023h-.972V345Zm10.843 2.454c.908 0 1.547-.481 1.927-1.5l2.787-7.483-1.1-.017-1.807 5.216h-.068l-1.807-5.216h-1.091l2.421 6.58-.188.511c-.366.997-.818 1.091-1.551.904l-.255.886c.102.051.392.119.732.119Zm6.044-2.454h1.006v-6.546h-1.006V345Zm.512-7.637c.392 0 .715-.306.715-.681 0-.375-.323-.682-.715-.682-.393 0-.716.307-.716.682 0 .375.323.681.716.681Zm3.342 3.699c0-1.142.707-1.79 1.67-1.79.933 0 1.5.61 1.5 1.637V345h1.006v-4.159c0-1.671-.891-2.472-2.216-2.472-.989 0-1.603.443-1.909 1.108h-.086v-1.023h-.971V345h1.006v-3.938Zm10.65-1.142c-.316-.929-1.023-1.551-2.318-1.551-1.381 0-2.404.784-2.404 1.892 0 .904.537 1.509 1.739 1.79l1.091.256c.66.153.971.468.971.92 0 .563-.596 1.023-1.534 1.023-.822 0-1.338-.354-1.517-1.057l-.954.239c.234 1.112 1.15 1.704 2.488 1.704 1.522 0 2.557-.831 2.557-1.96 0-.912-.571-1.487-1.739-1.773l-.971-.238c-.776-.192-1.125-.452-1.125-.955 0-.563.596-.972 1.398-.972.877 0 1.24.486 1.414.938l.904-.256Zm1.633 5.08h1.006v-6.546h-1.006V345Zm.511-7.637c.392 0 .716-.306.716-.681 0-.375-.324-.682-.716-.682-.392 0-.716.307-.716.682 0 .375.324.681.716.681Zm4.979 10.228c1.568 0 2.829-.716 2.829-2.404v-6.733h-.971v1.04h-.103c-.221-.341-.63-1.125-1.909-1.125-1.653 0-2.795 1.313-2.795 3.324 0 2.045 1.193 3.204 2.778 3.204 1.279 0 1.688-.75 1.909-1.107h.085v1.329c0 1.091-.767 1.585-1.823 1.585-1.189 0-1.607-.626-1.875-.988l-.802.562c.41.686 1.215 1.313 2.677 1.313Zm-.034-3.597c-1.262 0-1.91-.954-1.91-2.318 0-1.33.631-2.404 1.91-2.404 1.227 0 1.875.989 1.875 2.404 0 1.449-.665 2.318-1.875 2.318Zm5.71-2.932c0-1.142.728-1.79 1.721-1.79.946 0 1.517.597 1.517 1.637V345h1.006v-4.159c0-1.684-.895-2.472-2.233-2.472-1.031 0-1.619.43-1.926 1.108h-.085v-3.205h-1.006V345h1.006v-3.938Zm8.93-2.608h-1.397v-1.568h-1.006v1.568h-.989v.853h.989v4.09c0 1.143.921 1.688 1.773 1.688a2.1 2.1 0 0 0 .75-.119l-.205-.904c-.085.017-.221.051-.443.051-.443 0-.869-.136-.869-.988v-3.818h1.397v-.853Zm6.032 1.466c-.315-.929-1.022-1.551-2.318-1.551-1.38 0-2.403.784-2.403 1.892 0 .904.537 1.509 1.738 1.79l1.091.256c.661.153.972.468.972.92 0 .563-.597 1.023-1.534 1.023-.823 0-1.338-.354-1.517-1.057l-.955.239c.235 1.112 1.151 1.704 2.489 1.704 1.521 0 2.557-.831 2.557-1.96 0-.912-.571-1.487-1.739-1.773l-.971-.238c-.776-.192-1.125-.452-1.125-.955 0-.563.596-.972 1.397-.972.878 0 1.24.486 1.415.938l.903-.256Zm2.367 5.148a.77.77 0 0 0 .767-.767.77.77 0 0 0-.767-.767.77.77 0 0 0-.767.767.77.77 0 0 0 .767.767Zm2.571-.068h1.006v-6.546h-1.006V345Zm.512-7.637c.392 0 .716-.306.716-.681 0-.375-.324-.682-.716-.682-.392 0-.716.307-.716.682 0 .375.324.681.716.681Zm4.995 7.773c1.773 0 2.966-1.346 2.966-3.375 0-2.045-1.193-3.392-2.966-3.392-1.773 0-2.966 1.347-2.966 3.392 0 2.029 1.193 3.375 2.966 3.375Zm0-.903c-1.347 0-1.96-1.159-1.96-2.472 0-1.312.613-2.489 1.96-2.489s1.96 1.177 1.96 2.489c0 1.313-.613 2.472-1.96 2.472Zm7.586-8.37h-.92l-2.813 10.449h.921l2.812-10.449Z" fill="#171A22"/><rect x="-.5" y=".5" width="280" height="31" rx="2.5" transform="matrix(-1 0 0 1 489 325)" stroke="#DEE3E5"/><rect x="209" y="239" width="44" height="44" rx="7" fill="#B880FF" fill-opacity=".7"/><rect x="217" y="247" width="28" height="28" rx="5" fill="#fff"/><path opacity=".5" d="M219.577 265.043a.943.943 0 0 0 .221 1.026.9.9 0 0 0 1.311-.055.94.94 0 0 0 .184-.318l.436-1.209c.146-.406.412-.757.761-1.005.348-.248.764-.38 1.189-.38h.926a2.08 2.08 0 0 1 1.951 1.385l.425 1.182a.964.964 0 0 0 .499.544.942.942 0 0 0 .731.026.96.96 0 0 0 .535-.507.985.985 0 0 0 .026-.743l-3.156-8.411a1.556 1.556 0 0 0-.562-.727 1.516 1.516 0 0 0-1.738 0 1.558 1.558 0 0 0-.563.727l-3.176 8.465Zm4.565-3.687a.88.88 0 0 1-.732-.388.918.918 0 0 1-.106-.833.888.888 0 0 1 1.676 0 .92.92 0 0 1-.105.833.89.89 0 0 1-.733.388Z" fill="#0070CC"/><path opacity=".5" d="M229.267 257.55c0 3.091 1.928 5.508 5.222 5.508 2.038 0 3.616-.912 4.439-2.579.247-.497-.07-1.062-.596-1.21-.534-.151-1.064.191-1.354.668-.496.818-1.343 1.304-2.489 1.304-2.098 0-3.209-1.687-3.209-3.691 0-1.989 1.154-3.691 3.223-3.691 1.116 0 1.894.472 2.364 1.288.287.497.83.847 1.377.693.527-.147.856-.702.623-1.205-.756-1.628-2.347-2.594-4.364-2.594-3.153 0-5.236 2.446-5.236 5.509Z" fill="#820F87"/><path opacity=".5" d="M227.378 269.554c0 1.166.929 2.111 2.076 2.111h2.104c1.985 0 3.322-1.217 3.322-3.105 0-.214-.019-.419-.056-.612-.213-1.099-.437-3.118-.437-4.238 0-1.689-1.224-2.776-3.068-2.776h-1.865c-1.147 0-2.076.945-2.076 2.11v6.51Zm3.772-6.946c.817 0 1.351.529 1.351 1.317 0 .843-.534 1.373-1.351 1.373h-.521c-.351 0-.687-.142-.936-.394a1.355 1.355 0 0 1-.387-.951c0-.356.139-.698.387-.95.249-.253.585-.394.936-.394h.521v-.001Zm.324 4.406c.872 0 1.464.587 1.464 1.517 0 .887-.578 1.46-1.464 1.46h-.704c-.388 0-.761-.157-1.035-.436a1.498 1.498 0 0 1-.429-1.052 1.5 1.5 0 0 1 .429-1.052 1.45 1.45 0 0 1 1.035-.435h.704v-.002Z" fill="#008275"/><path d="M287.08 259c-.324-1.79-1.756-2.847-3.512-2.847-2.233 0-3.852 1.722-3.852 4.483 0 2.761 1.619 4.483 3.852 4.483 1.756 0 3.188-1.057 3.512-2.847h-1.057c-.256 1.211-1.296 1.858-2.455 1.858-1.585 0-2.829-1.227-2.829-3.494 0-2.267 1.244-3.494 2.829-3.494 1.159 0 2.199.648 2.455 1.858h1.057Zm2.577-2.728h-1.006V265h1.006v-8.728Zm1.842 8.728h1.005v-6.546h-1.005V265Zm.511-7.637c.392 0 .716-.306.716-.681 0-.375-.324-.682-.716-.682-.392 0-.716.307-.716.682 0 .375.324.681.716.681Zm5.081 7.773c1.329 0 2.301-.665 2.608-1.653l-.972-.273c-.256.682-.848 1.023-1.636 1.023-1.181 0-1.995-.763-2.042-2.165h4.752v-.426c0-2.438-1.449-3.273-2.813-3.273-1.772 0-2.949 1.398-2.949 3.409 0 2.012 1.16 3.358 3.052 3.358Zm-2.042-3.937c.069-1.019.789-1.927 1.939-1.927 1.091 0 1.79.819 1.79 1.927h-3.729Zm7.287-.137c0-1.142.708-1.79 1.671-1.79.933 0 1.5.61 1.5 1.637V265h1.005v-4.159c0-1.671-.89-2.472-2.215-2.472-.989 0-1.603.443-1.91 1.108h-.085v-1.023h-.971V265h1.005v-3.938Zm8.861-2.608h-1.398v-1.568h-1.006v1.568h-.988v.853h.988v4.09c0 1.143.921 1.688 1.773 1.688.375 0 .614-.068.75-.119l-.204-.904c-.086.017-.222.051-.444.051-.443 0-.869-.136-.869-.988v-3.818h1.398v-.853Zm2.739-2.182h-.955v.785c0 .63-.307 1.176-.665 1.687l.546.443c.682-.545 1.074-1.449 1.074-2.147v-.768Zm5.039 3.648c-.316-.929-1.023-1.551-2.318-1.551-1.381 0-2.404.784-2.404 1.892 0 .904.537 1.509 1.739 1.79l1.091.256c.66.153.971.468.971.92 0 .563-.596 1.023-1.534 1.023-.822 0-1.338-.354-1.517-1.057l-.954.239c.234 1.112 1.15 1.704 2.488 1.704 1.522 0 2.557-.831 2.557-1.96 0-.912-.571-1.487-1.739-1.773l-.971-.238c-.776-.192-1.125-.452-1.125-.955 0-.563.596-.972 1.398-.972.877 0 1.24.486 1.414.938l.904-.256Zm5.144 5.08h.972v-1.006h.119c.222.358.648 1.142 1.909 1.142 1.637 0 2.779-1.312 2.779-3.392 0-2.062-1.142-3.375-2.796-3.375-1.278 0-1.67.784-1.892 1.125h-.085v-3.222h-1.006V265Zm.989-3.273c0-1.466.648-2.455 1.875-2.455 1.278 0 1.909 1.074 1.909 2.455 0 1.398-.648 2.506-1.909 2.506-1.21 0-1.875-1.023-1.875-2.506Zm6.328 3.273h1.006v-4.142c0-.887.699-1.534 1.653-1.534.269 0 .546.051.614.068v-1.023a10.216 10.216 0 0 0-.529-.017c-.784 0-1.466.443-1.704 1.091h-.068v-.989h-.972V265Zm6.391.153c1.142 0 1.739-.613 1.943-1.04h.051V265h1.006v-4.313c0-2.079-1.585-2.318-2.42-2.318-.989 0-2.114.341-2.625 1.534l.954.341c.222-.477.746-.989 1.705-.989.924 0 1.38.49 1.38 1.33v.034c0 .486-.494.443-1.687.597-1.215.157-2.54.426-2.54 1.926 0 1.278.989 2.011 2.233 2.011Zm.153-.903c-.801 0-1.38-.358-1.38-1.057 0-.767.699-1.006 1.483-1.108.426-.051 1.568-.17 1.738-.375v.92c0 .819-.647 1.62-1.841 1.62Zm5.688-3.188c0-1.142.708-1.79 1.671-1.79.933 0 1.5.61 1.5 1.637V265h1.005v-4.159c0-1.671-.89-2.472-2.215-2.472-.989 0-1.603.443-1.91 1.108h-.085v-1.023h-.971V265h1.005v-3.938Zm8.486 4.074c1.261 0 1.687-.784 1.909-1.142h.119V265h.972v-8.728h-1.006v3.222h-.085c-.222-.341-.614-1.125-1.892-1.125-1.654 0-2.796 1.313-2.796 3.375 0 2.08 1.142 3.392 2.779 3.392Zm.136-.903c-1.261 0-1.909-1.108-1.909-2.506 0-1.381.631-2.455 1.909-2.455 1.227 0 1.875.989 1.875 2.455 0 1.483-.665 2.506-1.875 2.506Zm9.226-3.171c0-1.142.707-1.79 1.67-1.79.934 0 1.5.61 1.5 1.637V265h1.006v-4.159c0-1.671-.891-2.472-2.216-2.472-.988 0-1.602.443-1.909 1.108h-.085v-1.023h-.972V265h1.006v-3.938Zm7.94 4.091c1.142 0 1.739-.613 1.943-1.04h.051V265h1.006v-4.313c0-2.079-1.585-2.318-2.42-2.318-.989 0-2.114.341-2.625 1.534l.954.341c.222-.477.746-.989 1.705-.989.924 0 1.38.49 1.38 1.33v.034c0 .486-.494.443-1.687.597-1.215.157-2.54.426-2.54 1.926 0 1.278.989 2.011 2.233 2.011Zm.153-.903c-.801 0-1.38-.358-1.38-1.057 0-.767.699-1.006 1.483-1.108.426-.051 1.568-.17 1.738-.375v.92c0 .819-.647 1.62-1.841 1.62Zm4.683.75h1.005v-4.091c0-.959.699-1.637 1.483-1.637.763 0 1.296.499 1.296 1.245V265h1.022v-4.262c0-.843.529-1.466 1.449-1.466.716 0 1.33.38 1.33 1.347V265h1.005v-4.381c0-1.538-.826-2.25-1.994-2.25-.937 0-1.623.43-1.96 1.108h-.068c-.324-.699-.895-1.108-1.756-1.108-.852 0-1.483.409-1.756 1.108h-.085v-1.023h-.971V265Zm13.174.136c1.329 0 2.301-.665 2.608-1.653l-.972-.273c-.256.682-.848 1.023-1.636 1.023-1.181 0-1.995-.763-2.042-2.165h4.752v-.426c0-2.438-1.449-3.273-2.813-3.273-1.772 0-2.949 1.398-2.949 3.409 0 2.012 1.16 3.358 3.052 3.358Zm-2.042-3.937c.069-1.019.789-1.927 1.939-1.927 1.091 0 1.79.819 1.79 1.927h-3.729Z" fill="#171A22"/><rect x="-.5" y=".5" width="224" height="31" rx="2.5" transform="matrix(-1 0 0 1 489 245)" stroke="#DEE3E5"/><path d="M209 375a3 3 0 0 1 3-3h121a3 3 0 0 1 3 3v26a3 3 0 0 1-3 3H212a3 3 0 0 1-3-3v-26Z" fill="#00BA96"/><path d="M225.604 385.672h1.521c-.03-1.475-1.287-2.519-3.145-2.519-1.832 0-3.209 1.031-3.204 2.574 0 1.253.89 1.973 2.326 2.344l.993.255c.942.239 1.564.533 1.568 1.211-.004.745-.711 1.244-1.743 1.244-.988 0-1.755-.443-1.819-1.359h-1.556c.064 1.734 1.356 2.71 3.388 2.71 2.093 0 3.307-1.044 3.311-2.583-.004-1.512-1.253-2.203-2.565-2.514l-.818-.204c-.716-.171-1.492-.473-1.483-1.202.004-.656.592-1.138 1.581-1.138.942 0 1.564.439 1.645 1.181Zm4.524 2.493c0-.946.588-1.492 1.415-1.492.81 0 1.287.516 1.287 1.398V392h1.543v-4.168c0-1.581-.895-2.463-2.255-2.463-1.005 0-1.645.456-1.947 1.198h-.077v-3.295h-1.508V392h1.542v-3.835Zm7.7 3.967c1.027 0 1.641-.482 1.922-1.031h.051V392h1.483v-4.381c0-1.73-1.41-2.25-2.659-2.25-1.376 0-2.433.614-2.774 1.807l1.441.204c.153-.447.588-.831 1.342-.831.716 0 1.108.367 1.108 1.01v.026c0 .443-.465.464-1.619.588-1.27.136-2.485.516-2.485 1.99 0 1.287.942 1.969 2.19 1.969Zm.401-1.134c-.643 0-1.104-.294-1.104-.86 0-.593.516-.84 1.206-.938.405-.055 1.215-.158 1.415-.32v.772c0 .728-.588 1.346-1.517 1.346Zm4.607 1.002h1.542v-3.848c0-.831.627-1.419 1.475-1.419.26 0 .583.047.716.089v-1.419a3.794 3.794 0 0 0-.554-.042c-.75 0-1.377.426-1.615 1.184h-.069v-1.091h-1.495V392Zm7.386.128c1.525 0 2.573-.746 2.846-1.884l-1.44-.162c-.209.554-.72.844-1.385.844-.997 0-1.658-.656-1.671-1.777h4.56v-.473c0-2.297-1.381-3.307-2.991-3.307-1.875 0-3.098 1.376-3.098 3.396 0 2.054 1.206 3.363 3.179 3.363Zm-1.645-4.019c.047-.835.664-1.538 1.585-1.538.886 0 1.483.648 1.491 1.538h-3.076ZM258.603 392l.72-2.152h3.281l.724 2.152h1.688l-3.077-8.728h-1.951L256.915 392h1.688Zm1.146-3.422 1.18-3.516h.069l1.18 3.516h-2.429Zm9.004 3.55c1.645 0 2.693-.976 2.804-2.365h-1.474c-.132.703-.639 1.107-1.317 1.107-.963 0-1.585-.805-1.585-2.143 0-1.321.635-2.114 1.585-2.114.741 0 1.197.478 1.317 1.108h1.474c-.106-1.419-1.214-2.352-2.812-2.352-1.918 0-3.128 1.385-3.128 3.384 0 1.981 1.18 3.375 3.136 3.375Zm6.926 0c1.645 0 2.693-.976 2.804-2.365h-1.474c-.133.703-.64 1.107-1.317 1.107-.963 0-1.585-.805-1.585-2.143 0-1.321.634-2.114 1.585-2.114.741 0 1.197.478 1.317 1.108h1.474c-.107-1.419-1.215-2.352-2.813-2.352-1.917 0-3.127 1.385-3.127 3.384 0 1.981 1.18 3.375 3.136 3.375Zm6.968 0c1.526 0 2.574-.746 2.847-1.884l-1.44-.162c-.209.554-.721.844-1.385.844-.997 0-1.658-.656-1.671-1.777h4.56v-.473c0-2.297-1.381-3.307-2.992-3.307-1.875 0-3.098 1.376-3.098 3.396 0 2.054 1.206 3.363 3.179 3.363Zm-1.645-4.019c.047-.835.665-1.538 1.586-1.538.886 0 1.483.648 1.491 1.538h-3.077Zm11.034-.925c-.213-1.108-1.099-1.815-2.633-1.815-1.577 0-2.651.776-2.647 1.986-.004.954.584 1.585 1.841 1.845l1.117.234c.601.133.882.375.882.746 0 .448-.486.784-1.219.784-.707 0-1.167-.307-1.3-.895l-1.504.145c.192 1.202 1.202 1.914 2.808 1.914 1.637 0 2.792-.848 2.796-2.088-.004-.934-.605-1.505-1.841-1.773l-1.117-.239c-.664-.149-.929-.379-.924-.758-.005-.444.486-.75 1.129-.75.712 0 1.087.387 1.206.818l1.406-.154Zm6.586 0c-.213-1.108-1.099-1.815-2.633-1.815-1.577 0-2.651.776-2.647 1.986-.004.954.584 1.585 1.841 1.845l1.117.234c.601.133.882.375.882.746 0 .448-.486.784-1.219.784-.707 0-1.168-.307-1.3-.895l-1.504.145c.192 1.202 1.202 1.914 2.808 1.914 1.637 0 2.792-.848 2.796-2.088-.004-.934-.605-1.505-1.841-1.773l-1.117-.239c-.664-.149-.929-.379-.924-.758-.005-.444.485-.75 1.129-.75.712 0 1.087.387 1.206.818l1.406-.154Zm6.039-3.912h-1.581V392h1.581v-8.728Zm3.186 4.893c0-.946.571-1.492 1.385-1.492.797 0 1.274.524 1.274 1.398V392h1.543v-4.168c.004-1.568-.891-2.463-2.242-2.463-.98 0-1.653.469-1.952 1.198h-.076v-1.113h-1.475V392h1.543v-3.835Zm9.085-2.711h-1.359v-.515c0-.512.213-.797.788-.797.243 0 .448.055.575.094l.312-1.194a3.861 3.861 0 0 0-1.172-.179c-1.138 0-2.046.652-2.046 1.973v.618h-.967v1.193h.967V392h1.543v-5.353h1.359v-1.193Zm3.817 6.674c1.918 0 3.137-1.351 3.137-3.375 0-2.029-1.219-3.384-3.137-3.384-1.917 0-3.136 1.355-3.136 3.384 0 2.024 1.219 3.375 3.136 3.375Zm.009-1.236c-1.061 0-1.581-.946-1.581-2.144 0-1.197.52-2.156 1.581-2.156 1.044 0 1.564.959 1.564 2.156 0 1.198-.52 2.144-1.564 2.144Z" fill="#fff"/><defs><filter id="a" x="42.955" y="39.373" width="20.234" height="19.571" filterUnits="userSpaceOnUse" color-interpolation-filters="sRGB"><feFlood flood-opacity="0" result="BackgroundImageFix"/><feBlend in="SourceGraphic" in2="BackgroundImageFix" result="shape"/><feColorMatrix in="SourceAlpha" values="0 0 0 0 0 0 0 0 0 0 0 0 0 0 0 0 0 0 127 0" result="hardAlpha"/><feOffset/><feGaussianBlur stdDeviation=".553"/><feComposite in2="hardAlpha" operator="arithmetic" k2="-1" k3="1"/><feColorMatrix values="0 0 0 0 0.458824 0 0 0 0 0.458824 0 0 0 0 0.458824 0 0 0 0.4 0"/><feBlend in2="shape" result="effect1_innerShadow_229_11405"/></filter><filter id="b" x="0" y="0" width="501" height="370" filterUnits="userSpaceOnUse" color-interpolation-filters="sRGB"><feFlood flood-opacity="0" result="BackgroundImageFix"/><feColorMatrix in="SourceAlpha" values="0 0 0 0 0 0 0 0 0 0 0 0 0 0 0 0 0 0 127 0" result="hardAlpha"/><feOffset dx="4" dy="4"/><feGaussianBlur stdDeviation="9"/><feColorMatrix values="0 0 0 0 0.537255 0 0 0 0 0.552941 0 0 0 0 0.603922 0 0 0 0.3 0"/><feBlend in2="BackgroundImageFix" result="effect1_dropShadow_229_11405"/><feBlend in="SourceGraphic" in2="effect1_dropShadow_229_11405" result="shape"/></filter><filter id="d" x="51.657" y="55.157" width="415.87" height="356.479" filterUnits="userSpaceOnUse" color-interpolation-filters="sRGB"><feFlood flood-opacity="0" result="BackgroundImageFix"/><feBlend in="SourceGraphic" in2="BackgroundImageFix" result="shape"/><feGaussianBlur stdDeviation="66.922" result="effect1_foregroundBlur_229_11405"/></filter><filter id="e" x="150" y="154" width="419" height="325" filterUnits="userSpaceOnUse" color-interpolation-filters="sRGB"><feFlood flood-opacity="0" result="BackgroundImageFix"/><feColorMatrix in="SourceAlpha" values="0 0 0 0 0 0 0 0 0 0 0 0 0 0 0 0 0 0 127 0" result="hardAlpha"/><feOffset dx="10" dy="10"/><feGaussianBlur stdDeviation="22.5"/><feColorMatrix values="0 0 0 0 0 0 0 0 0 0 0 0 0 0 0 0 0 0 0.1 0"/><feBlend in2="BackgroundImageFix" result="effect1_dropShadow_229_11405"/><feBlend in="SourceGraphic" in2="effect1_dropShadow_229_11405" result="shape"/></filter></defs></svg>