<svg width="560" height="472" fill="none" xmlns="http://www.w3.org/2000/svg"><g clip-path="url(#clip0_1005_153)"><g filter="url(#filter0_d_1005_153)"><path d="M426 14H22a8 8 0 0 0-8 8v344a8 8 0 0 0 8 8h404a8 8 0 0 0 8-8V22a8 8 0 0 0-8-8Z" fill="#fff"/></g><path d="M127 314H41a6 6 0 0 0-6 6v28a6 6 0 0 0 6 6h86a6 6 0 0 0 6-6v-28a6 6 0 0 0-6-6Z" fill="#008FF8"/><path d="M54.3 331.7c0-.4-.2-.8-.6-1-.3-.3-.8-.4-1.4-.4l-1 .1a1.001 1.001 0 0 0-.6.5c-.2.2-.2.4-.2.7l.1.5.4.4.6.3.7.2 1 .3c.6 0 1 .2 1.5.4l1 .7a2.996 2.996 0 0 1 1 2.3c0 .7-.1 1.3-.5 1.8s-.9 1-1.5 1.2a6.2 6.2 0 0 1-4.9 0c-.7-.3-1.3-.7-1.7-1.2-.3-.6-.5-1.3-.6-2.2H50c0 .4.2.8.4 1 .2.3.4.5.8.6l1.1.2c.4 0 .8 0 1-.2.4-.1.6-.3.8-.5.2-.2.3-.4.3-.7a1 1 0 0 0-.3-.7c-.1-.2-.4-.3-.6-.4l-1.1-.4-1.3-.3a5.004 5.004 0 0 1-2.3-1.1c-.6-.5-.9-1.2-.9-2s.2-1.4.6-2c.4-.4 1-.9 1.6-1.2.6-.2 1.4-.4 2.3-.4.8 0 1.6.2 2.2.4.7.3 1.2.8 1.5 1.3.4.5.6 1.1.6 1.8h-2.4Zm8 8.5a4 4 0 0 1-2.2-.6c-.7-.4-1.1-1-1.5-1.6a5.7 5.7 0 0 1 0-4.7c.4-.7.9-1.2 1.5-1.6.6-.3 1.4-.5 2.3-.5.7 0 1.4.1 2 .4a3.296 3.296 0 0 1 1.9 2.9H64c0-.4-.2-.8-.5-1-.3-.3-.6-.5-1-.5-.5 0-.8.1-1 .4a2.002 2.002 0 0 0-.7.8c-.2.4-.2.9-.2 1.4 0 .6 0 1 .2 1.5l.6.8c.3.3.6.4 1 .4l.8-.2.5-.5c.2-.2.3-.5.3-.8h2.3c0 .7-.2 1.3-.6 1.8-.3.5-.7.9-1.3 1.1-.6.3-1.2.5-2 .5h-.1Zm8-5.2v5h-2.5v-11.6h2.4v4.4h.1c.2-.5.5-1 1-1.2.4-.3 1-.4 1.6-.4a3 3 0 0 1 1.6.4c.4.2.8.6 1 1 .3.6.4 1.2.4 1.8v5.6h-2.4v-5.1c0-.6-.1-1-.4-1.3-.3-.3-.7-.4-1.2-.4-.3 0-.6 0-.8.2-.3.1-.5.3-.6.6-.152.31-.22.655-.2 1Zm11.5 5.2c-.9 0-1.7-.2-2.3-.6-.7-.3-1.2-.9-1.5-1.5-.4-.7-.5-1.5-.5-2.4 0-1 .1-1.7.5-2.4.3-.7.8-1.2 1.5-1.6.6-.4 1.3-.5 2.2-.5a3.6 3.6 0 0 1 3.8 2.5c.2.5.3 1.1.3 1.9v.7h-7.4v-1.5h5.1c0-.4 0-.7-.2-1l-.6-.6c-.3-.2-.6-.2-1-.2a1.91 1.91 0 0 0-1.6.9c-.152.31-.221.655-.2 1v1.4c0 .4 0 .8.2 1 .2.4.4.6.7.8.3.2.6.3 1 .3l.8-.1.6-.4.3-.5 2.3.1a3.002 3.002 0 0 1-.7 1.4 4.99 4.99 0 0 1-1.4 1 4.998 4.998 0 0 1-1.9.3Zm8.8 0c-.7 0-1.3-.2-1.8-.6-.5-.3-1-.8-1.3-1.5-.3-.7-.4-1.5-.4-2.5s.1-1.8.4-2.4c.3-.601.748-1.117 1.3-1.5a3.294 3.294 0 0 1 3-.3l.8.6.5.7v-4.3h2.5V340h-2.4v-1.4H93l-.5.7c-.2.3-.5.5-.8.6-.3.2-.7.2-1.2.2l.1.1Zm.8-2c.4 0 .7 0 1-.3l.6-1 .2-1.3c0-.5 0-1-.2-1.3a2.004 2.004 0 0 0-.6-.9c-.3-.2-.6-.3-1-.3s-.8 0-1 .3a1.996 1.996 0 0 0-.7 1l-.2 1.2.2 1.4c.2.4.4.7.7.9.2.2.6.3 1 .3Zm11.8-2v-5h2.4v8.8h-2.3v-1.6h-.1c-.2.5-.6 1-1 1.2-.5.4-1 .5-1.7.5a2.704 2.704 0 0 1-2.6-1.5 4.006 4.006 0 0 1-.3-1.8v-5.5h2.4v5.1c0 .5.1 1 .4 1.2.3.3.6.5 1 .5l1-.2.5-.6c.2-.3.3-.6.3-1v-.1Zm6.7-7.8V340h-2.4v-11.6h2.4Zm6 11.8a4.297 4.297 0 0 1-3.9-2.1 6.006 6.006 0 0 1 0-4.8c.4-.7.9-1.2 1.5-1.6.7-.4 1.4-.5 2.3-.5a3.6 3.6 0 0 1 3.8 2.5c.2.5.3 1.1.3 1.9v.7h-7.4v-1.5h5c0-.4 0-.7-.2-1l-.6-.6c-.2-.2-.6-.2-1-.2a1.897 1.897 0 0 0-1.5.9c-.187.301-.29.646-.3 1v1.4c0 .4 0 .8.3 1 .1.4.3.6.6.8.3.2.7.3 1 .3l.8-.1.6-.4.4-.5 2.2.1a3.002 3.002 0 0 1-.7 1.4c-.3.4-.8.7-1.3 1a5.008 5.008 0 0 1-2 .3h.1Z" fill="#fff"/><path d="M408 82H40a6 6 0 0 0-6 6v204a6 6 0 0 0 6 6h368a6 6 0 0 0 6-6V88a6 6 0 0 0-6-6Z" fill="#000"/><path d="M408 82H40a6 6 0 0 0-6 6v204a6 6 0 0 0 6 6h368a6 6 0 0 0 6-6V88a6 6 0 0 0-6-6Z" fill="#fff"/><path d="M34 82h380v216H34V82Z" fill="#fff"/><path d="M59.4 106h-1.2a2.599 2.599 0 0 0-1-1.6l-.9-.4a3.395 3.395 0 0 0-2.6.3c-.5.3-1 .8-1.2 1.4-.3.6-.5 1.3-.5 2.2 0 .9.2 1.6.5 2.2.3.6.7 1.1 1.2 1.4.5.3 1 .5 1.6.5.4 0 .7 0 1-.2.3 0 .6-.2.9-.4.522-.389.879-.96 1-1.6h1.2c0 .5-.2 1-.5 1.4a3.798 3.798 0 0 1-2.1 1.7c-.5.2-1 .2-1.5.2-.8 0-1.6-.2-2.3-.6a3.998 3.998 0 0 1-1.6-1.8 6 6 0 0 1-.6-2.8c0-1 .2-2 .6-2.8.4-.8 1-1.4 1.6-1.8.7-.4 1.5-.6 2.3-.6a4.007 4.007 0 0 1 3.6 2c.3.3.4.8.5 1.3Zm1.9 7v-7.6h1v1.1h.2c.1-.4.4-.7.7-.9.4-.2.8-.4 1.3-.4.2-.004.4-.004.6 0v1.3a3.675 3.675 0 0 0-.7-.1 1.998 1.998 0 0 0-1 .2l-.7.6c-.2.3-.3.6-.3 1v4.8h-1.1Zm8.1.2c-.7 0-1.3-.2-1.9-.5-.5-.4-1-.8-1.2-1.4-.3-.6-.4-1.3-.4-2 0-.8.1-1.5.4-2.1.3-.6.7-1 1.2-1.4.5-.4 1.1-.5 1.8-.5.4 0 .8 0 1.2.2a3.005 3.005 0 0 1 1.8 1.8c.2.5.3 1 .3 1.8v.5h-5.9v-1h4.7c0-.5 0-.8-.3-1.2a1.999 1.999 0 0 0-1.8-1c-.4 0-.9 0-1.2.3-.3.2-.6.5-.8.9-.2.3-.2.7-.2 1.1v.7c0 .6 0 1 .2 1.5.3.4.5.7.9.9.3.2.8.3 1.2.3l.9-.1.6-.4.4-.7 1.2.3c-.1.4-.3.8-.6 1a3.002 3.002 0 0 1-1 .7l-1.5.3Zm7.2 0c-.5 0-.9-.1-1.3-.3-.4-.2-.7-.4-1-.8-.2-.3-.3-.8-.3-1.3 0-.4.1-.8.3-1l.7-.7c.3-.1.6-.3 1-.3.69-.162 1.392-.262 2.1-.3l.7-.2.2-.4c0-.5-.2-1-.4-1.2-.3-.3-.7-.4-1.3-.4-.5 0-1 .1-1.3.4-.3.2-.5.5-.6.8l-1.2-.4a2.697 2.697 0 0 1 2-1.7 4.5 4.5 0 0 1 2 0l.9.3.7.8c.2.4.3.9.3 1.5v5H79v-1h-.1l-.4.5-.7.5-1.2.2Zm.2-1c.5 0 .9-.2 1.2-.3a1.9 1.9 0 0 0 1-1.7v-1l-.4.1a5.484 5.484 0 0 1-1.2.2c-.435.092-.869.192-1.3.3-.3 0-.5.2-.7.4a1 1 0 0 0-.2.7c0 .4.2.7.5 1l1.1.2v.1Zm8.8-6.8v1h-4v-1h4Zm-2.8-1.9H84v7.3l.1.8.4.3h1l.2 1c-.253.112-.524.18-.8.2-.4 0-.7 0-1-.2a2.004 2.004 0 0 1-.8-.7c-.2-.3-.3-.6-.3-1v-7.7Zm7.7 9.7c-.8 0-1.4-.2-2-.5a3.99 3.99 0 0 1-1.2-1.4c-.2-.6-.4-1.3-.4-2 0-.8.2-1.5.4-2.1.3-.6.7-1 1.2-1.4.6-.4 1.2-.5 1.9-.5.4 0 .7 0 1.1.2a2.999 2.999 0 0 1 1.9 1.8l.2 1.8v.5h-5.8v-1h4.6c0-.5 0-.8-.2-1.2a1.998 1.998 0 0 0-1.8-1c-.5 0-1 0-1.3.3-.3.2-.6.5-.7.9-.205.33-.309.712-.3 1.1v.7c0 .6 0 1 .3 1.5.2.4.5.7.8.9.4.2.8.3 1.3.3l.8-.1.7-.4.4-.7 1.1.3c-.1.4-.3.8-.6 1a3 3 0 0 1-1 .7c-.4.2-.9.3-1.4.3Zm9-.2v-10.2h1.2v3.8l.5-.5.6-.6c.3-.2.7-.2 1.2-.2a3.004 3.004 0 0 1 2.9 1.8c.2.6.4 1.3.4 2.1a4.996 4.996 0 0 1-.4 2.1 4 4 0 0 1-1.2 1.4 3.002 3.002 0 0 1-1.7.5c-.5 0-.9-.1-1.2-.3l-.6-.5-.4-.6h-.1v1.2h-1.2Zm1.2-3.8c0 .6 0 1 .2 1.5.2.4.4.8.8 1 .3.3.7.4 1.2.4.433 0 .854-.14 1.2-.4.3-.2.6-.6.7-1l.3-1.5c0-.6 0-1-.3-1.5-.1-.4-.4-.7-.7-1-.346-.26-.767-.4-1.2-.4a2 2 0 0 0-2 1.4l-.2 1.5Zm10.6 4c-.8 0-1.4-.2-2-.5a3.99 3.99 0 0 1-1.2-1.4c-.3-.6-.4-1.3-.4-2 0-.8.1-1.5.4-2.1.3-.6.7-1 1.2-1.4.5-.4 1.2-.5 1.8-.5.4 0 .8 0 1.2.2a3 3 0 0 1 1.8 1.8c.2.5.3 1 .3 1.8v.5h-5.9v-1h4.7c0-.5 0-.8-.2-1.2a2.005 2.005 0 0 0-1.9-1c-.4 0-.8 0-1.2.3-.3.2-.6.5-.8.9l-.2 1.1v.7c0 .6 0 1 .3 1.5.2.4.5.7.8.9.4.2.8.3 1.3.3l.8-.1c.2-.1.5-.2.6-.4l.5-.7 1.1.3c-.1.4-.3.8-.6 1a3 3 0 0 1-1 .7l-1.4.3Zm7.2 0c-.5 0-1-.1-1.4-.3-.4-.2-.7-.4-.9-.8-.2-.3-.4-.8-.4-1.3 0-.4.1-.8.3-1l.7-.7c.3-.1.6-.3 1-.3.69-.162 1.392-.262 2.1-.3l.7-.2.2-.4c0-.5-.2-1-.4-1.2-.3-.3-.7-.4-1.2-.4-.6 0-1 .1-1.3.4-.4.2-.6.5-.7.8l-1.1-.4a2.694 2.694 0 0 1 1.9-1.7 4.5 4.5 0 0 1 2 0l1 .3.7.8c.2.4.3.9.3 1.5v5h-1.2v-1l-.5.5-.7.5-1.1.2Zm.1-1c.5 0 .9-.2 1.2-.3a1.907 1.907 0 0 0 1-1.7v-1l-.3.1a5.5 5.5 0 0 1-1.3.2c-.435.092-.868.193-1.3.3-.3 0-.5.2-.6.4a1.003 1.003 0 0 0-.3.7c0 .4.2.7.5 1l1.1.2v.1Zm10.3-2.3v-4.5h1.2v7.6h-1.2v-1.3c-.3.4-.5.7-1 1-.3.3-.8.4-1.3.4s-1-.1-1.3-.3c-.4-.2-.7-.5-.9-1-.2-.4-.3-1-.3-1.6v-4.8h1.2v4.7c0 .6.1 1 .4 1.4.4.3.8.5 1.2.5a1.992 1.992 0 0 0 1.877-1.304 1.98 1.98 0 0 0 .123-.796Zm6.7-4.5v1h-4v-1h4Zm-2.9-1.9h1.2v7.3c0 .3 0 .6.2.8l.3.3h1.1l.2 1c-.283.127-.59.195-.9.2-.3 0-.6 0-1-.2a2.005 2.005 0 0 1-.7-.7c-.3-.3-.4-.6-.4-1v-7.7Zm4.6 9.5v-7.6h1.2v7.6h-1.2Zm.6-9-.6-.1a.814.814 0 0 1-.162-.279.815.815 0 0 1-.038-.321c0-.2 0-.4.2-.6l.6-.2c.2 0 .4 0 .6.2.2.2.2.4.2.6 0 .2 0 .4-.2.6l-.6.2v-.1Zm6.1 1.4v1h-4v-1h4Zm-2.8 7.6v-8.7c0-.4 0-.8.3-1 .2-.4.4-.6.8-.7.3-.2.6-.3 1-.3.376-.003.749.065 1.1.2l-.3 1h-.7c-.4 0-.6 0-.8.2-.2.2-.3.5-.3.9v8.4h-1.1Zm9.3-3.1v-4.5h1.2v7.6h-1.2v-1.3c-.3.4-.5.7-1 1-.3.3-.8.4-1.4.4a2.21 2.21 0 0 1-1.25-.327 2.205 2.205 0 0 1-.85-.973c-.2-.4-.3-1-.3-1.6v-4.8h1.2v4.7c0 .6.1 1 .4 1.4.3.3.7.5 1.2.5a1.992 1.992 0 0 0 1.877-1.304 1.98 1.98 0 0 0 .123-.796Zm4.5-7V113h-1.2v-10.2h1.2v.1Zm6 13v-10.5h1.2v1.2h.2c0-.2.2-.3.3-.5l.7-.6c.3-.2.7-.2 1.2-.2a3 3 0 0 1 2.8 1.8c.3.6.4 1.3.4 2.1a4.996 4.996 0 0 1-.4 2.1c-.3.6-.7 1-1.1 1.4a3.002 3.002 0 0 1-1.7.5c-.5 0-1-.1-1.2-.3l-.7-.5-.3-.6h-.1v4H161v.1Zm1.2-6.7c0 .6.1 1 .3 1.5.2.4.4.8.7 1 .4.3.7.4 1.2.4.433 0 .854-.14 1.2-.4.4-.2.6-.6.8-1 .2-.5.2-1 .2-1.5 0-.6 0-1-.2-1.5l-.7-1a1.998 1.998 0 0 0-1.3-.4 2 2 0 0 0-2 1.4l-.2 1.5Zm10.5 4c-.7 0-1.3-.2-1.8-.5-.5-.4-1-.8-1.2-1.4-.3-.6-.4-1.3-.4-2 0-.9 0-1.6.4-2.2a3.299 3.299 0 0 1 3-1.9c.7 0 1.3.2 1.8.6.5.3 1 .7 1.2 1.3.3.6.5 1.3.5 2.1s-.2 1.5-.5 2c-.3.7-.7 1.1-1.2 1.5-.5.3-1.1.5-1.8.5Zm0-1c.5 0 1-.2 1.3-.5l.8-1 .2-1.5c0-.5 0-1-.2-1.4-.2-.4-.5-.8-.8-1a2.002 2.002 0 0 0-1.3-.5 1.998 1.998 0 0 0-1.3.4l-.7 1a4.1 4.1 0 0 0 0 3c.1.4.4.7.7 1 .4.3.8.4 1.3.4v.1Zm10.7-5.1-1 .3a2.015 2.015 0 0 0-.4-.5l-.5-.5-.8-.1a2.003 2.003 0 0 0-1.2.3c-.3.2-.5.5-.5.8 0 .3.1.5.4.7.2.2.5.3 1 .4l1 .3c.8.2 1.3.4 1.6.8.3.3.5.7.5 1.3 0 .4-.1.8-.4 1.1-.2.4-.6.7-1 .9a4.195 4.195 0 0 1-3.6-.2c-.4-.4-.7-.9-.9-1.5l1.1-.3c.1.4.3.7.6 1l1.2.2c.6 0 1 0 1.3-.3.3-.3.5-.5.5-.9 0-.2 0-.5-.3-.6-.2-.2-.5-.4-.8-.4l-1.3-.3a3.005 3.005 0 0 1-1.6-.8c-.3-.4-.4-.8-.4-1.3s0-.8.3-1.2l1-.8 1.5-.2c.7 0 1.3.1 1.7.5.5.3.8.7 1 1.3Zm5.2-1.7v1h-4v-1h4Zm-2.8-1.9h1.2v7.3l.1.8.4.3h1l.2 1a2.31 2.31 0 0 1-.8.2c-.4 0-.7 0-1-.2a2.004 2.004 0 0 1-.8-.7c-.2-.3-.3-.6-.3-1v-7.7Zm9.8 3.6-1 .3a2.001 2.001 0 0 0-.3-.5l-.5-.5-.9-.1a1.996 1.996 0 0 0-1.1.3c-.3.2-.5.5-.5.8 0 .3.1.5.3.7.2.2.6.3 1 .4l1.1.3c.7.2 1.2.4 1.6.8.3.3.5.7.5 1.3 0 .4-.2.8-.4 1.1-.3.4-.6.7-1 .9a4.195 4.195 0 0 1-3.6-.2 3.004 3.004 0 0 1-1-1.5l1.2-.3c.1.4.3.7.6 1l1.2.2c.5 0 1 0 1.3-.3.3-.3.5-.5.5-.9 0-.2-.1-.5-.3-.6-.2-.2-.5-.4-.9-.4l-1.2-.3a3.005 3.005 0 0 1-1.6-.8c-.3-.4-.5-.8-.5-1.3s.1-.8.4-1.2c.2-.3.6-.6 1-.8l1.4-.2c.8 0 1.4.1 1.8.5.4.3.8.7 1 1.3h-.1Zm8.1 6c-.5 0-.9 0-1.3-.2s-.7-.4-1-.8c-.2-.3-.3-.8-.3-1.3 0-.4.1-.8.3-1l.7-.7c.3-.1.6-.3 1-.3.69-.161 1.393-.262 2.1-.3l.6-.2c.2 0 .3-.2.3-.4 0-.5-.2-1-.5-1.2-.2-.3-.6-.4-1.2-.4-.5 0-1 .1-1.3.4-.3.2-.5.5-.6.8l-1.2-.4a2.693 2.693 0 0 1 2-1.7 4.5 4.5 0 0 1 2 0l.9.3.7.8c.2.4.3.9.3 1.5v5h-1.1v-1h-.1l-.4.5-.7.5-1.2.2v-.1Zm.2-1c.5 0 .9 0 1.2-.2a1.907 1.907 0 0 0 1-1.7v-1l-.4.1a5.483 5.483 0 0 1-1.2.2c-.435.092-.868.193-1.3.3-.3 0-.5.2-.7.4a1 1 0 0 0-.2.7c0 .4.1.7.4 1l1.2.2Zm6.6-3.7v4.6h-1.1v-7.6h1.1v1.2h.1l.8-1c.4-.2.8-.3 1.4-.3.5 0 1 0 1.4.3.4.2.7.5.9 1 .2.4.3.9.3 1.5v4.9h-1.2v-4.8c0-.6-.1-1-.4-1.4a2 2 0 0 0-2.3-.3l-.7.8c-.205.33-.309.712-.3 1.1Zm10 4.8a2.996 2.996 0 0 1-2.9-1.9 4.996 4.996 0 0 1-.4-2.1c0-.8.1-1.5.4-2 .3-.7.7-1.1 1.2-1.5a3 3 0 0 1 1.7-.4c.5 0 .8 0 1.1.2l.7.6.4.5v-3.8h1.2V113h-1v-1.2h-.2l-.4.6-.7.5c-.3.2-.7.3-1.2.3h.1Zm.1-1a1.996 1.996 0 0 0 1.2-.5c.3-.2.6-.6.7-1 .2-.4.3-1 .3-1.5 0-.6-.1-1-.3-1.5-.1-.4-.4-.8-.7-1a1.997 1.997 0 0 0-2.4 0c-.4.3-.6.6-.8 1l-.2 1.5c0 .5 0 1 .2 1.5.2.4.4.8.8 1 .3.3.7.4 1.2.4v.1Zm9.6 3.7v-10.5h1.1v1.2h.2c0-.2.2-.3.3-.5l.7-.6c.3-.2.7-.2 1.2-.2a3 3 0 0 1 2.8 1.8c.3.6.4 1.3.4 2.1a4.996 4.996 0 0 1-.4 2.1c-.3.6-.6 1-1.1 1.4a3.002 3.002 0 0 1-1.7.5c-.5 0-.9-.1-1.2-.3l-.7-.5-.3-.6h-.1v4h-1.2v.1Zm1.1-6.7c0 .6.1 1 .3 1.5.2.4.4.8.7 1 .4.3.8.4 1.2.4.467.023.927-.119 1.3-.4.3-.2.5-.6.7-1l.3-1.5c0-.6-.1-1-.3-1.5l-.7-1a1.998 1.998 0 0 0-1.3-.4 2 2 0 0 0-2 1.4l-.2 1.5Zm12.2.7v-4.5h1.2v7.6h-1.2v-1.3c-.2.4-.5.7-.9 1-.4.3-.8.4-1.4.4-.5 0-1-.1-1.3-.3-.4-.2-.6-.5-.9-1-.2-.4-.3-1-.3-1.6v-4.8h1.2v4.7c0 .6.1 1 .5 1.4.3.3.7.5 1.2.5a1.992 1.992 0 0 0 1.877-1.304 1.98 1.98 0 0 0 .123-.796h-.1Zm3.5 3.1v-10.2h1.2v3.8l.4-.5.7-.6c.3-.2.7-.2 1.2-.2a3.006 3.006 0 0 1 2.8 1.8 4.994 4.994 0 0 1 0 4.2 3.005 3.005 0 0 1-1.1 1.4 3.002 3.002 0 0 1-1.7.5c-.5 0-.9-.1-1.2-.3l-.6-.5-.4-.6h-.2v1.2H247Zm1.2-3.8c0 .6 0 1 .2 1.5.2.4.4.8.8 1 .3.3.7.4 1.2.4.433 0 .854-.14 1.2-.4.3-.2.6-.6.7-1l.3-1.5c0-.6-.1-1-.3-1.5-.1-.4-.4-.7-.7-1-.346-.26-.767-.4-1.2-.4a2 2 0 0 0-2 1.4c-.2.4-.2 1-.2 1.5Zm8.5-6.4V113h-1.1v-10.2h1.1ZM259 113v-7.6h1.1v7.6H259Zm.6-9-.6-.1a.707.707 0 0 1-.3-.6l.3-.6.6-.2c.2 0 .4 0 .6.2l.2.6c0 .2 0 .4-.2.6l-.6.2v-.1Zm8.1 3-1 .4a2.001 2.001 0 0 0-.3-.5l-.6-.5-.8-.1a2.003 2.003 0 0 0-1.2.3.995.995 0 0 0-.4.8c0 .3 0 .5.3.7.2.2.5.3 1 .4l1.1.3c.7.2 1.2.4 1.5.8.4.3.5.7.5 1.3 0 .4 0 .8-.3 1.1-.3.4-.6.7-1 .9-.5.2-1 .3-1.6.3a3.993 3.993 0 0 1-2-.5 3.004 3.004 0 0 1-1-1.5l1.2-.3c0 .4.3.7.6 1l1.1.2c.6 0 1 0 1.3-.3.4-.3.5-.5.5-.9 0-.2 0-.5-.2-.6-.2-.2-.5-.4-.9-.4l-1.3-.3a2.991 2.991 0 0 1-1.5-.8c-.3-.4-.5-.8-.5-1.3s.1-.8.4-1.2c.237-.369.588-.65 1-.8l1.4-.2c.8 0 1.3.1 1.8.5.4.3.7.7.9 1.3v-.1Zm3 1.4v4.6h-1v-10.2h1v3.8h.2c.2-.4.4-.8.8-1 .3-.2.8-.3 1.4-.3.6 0 1 0 1.4.3.4.2.7.5 1 1l.2 1.5v4.9h-1.1v-4.8c0-.6-.2-1-.5-1.4a1.898 1.898 0 0 0-2.3-.2c-.3.1-.6.4-.8.7l-.2 1.1h-.1Zm14.4-3v1h-4v-1h4Zm-2.8-1.9h1.2v7.3c0 .3 0 .6.2.8l.3.3h1l.3 1c-.284.124-.59.192-.9.2-.3 0-.7 0-1-.2a2.004 2.004 0 0 1-.8-.7c-.2-.3-.3-.6-.3-1v-7.7Zm6 5v4.5H287v-10.2h1.1v3.8h.1c.2-.4.5-.8.8-1 .4-.2.9-.3 1.5-.3.5 0 1 0 1.4.3.3.2.7.5.9 1 .2.4.3.9.3 1.5v4.9h-1.2v-4.8c0-.6-.1-1-.5-1.4-.3-.3-.7-.5-1.3-.5-.354.01-.699.113-1 .3-.3.1-.5.4-.7.7-.205.33-.309.712-.3 1.1l.2.1Zm10.2 4.7c-.7 0-1.3-.2-1.9-.5a3.99 3.99 0 0 1-1.2-1.4c-.3-.6-.4-1.3-.4-2 0-.8.1-1.5.4-2.1.3-.6.7-1 1.2-1.4.5-.4 1.1-.5 1.8-.5.4 0 .8 0 1.2.2a3 3 0 0 1 1.8 1.8c.2.5.3 1 .3 1.8v.5h-5.9v-1h4.7c0-.5 0-.8-.2-1.2a2.005 2.005 0 0 0-1.9-1c-.4 0-.8 0-1.2.3-.3.2-.6.5-.8.9-.2.3-.2.7-.2 1.1v.7c0 .6 0 1 .3 1.5.2.4.4.7.8.9l1.2.3.9-.1.6-.4.5-.7 1 .3c0 .4-.2.8-.5 1a3 3 0 0 1-1 .7l-1.5.3Zm5-.2v-7.6h1.1v1.2h.1c.2-.5.4-.8.8-1 .3-.2.8-.3 1.3-.3s.9 0 1.2.3c.4.2.6.5.8 1h.1c.2-.4.5-.8.9-1 .4-.2.8-.3 1.4-.3.7 0 1.2.2 1.7.6.4.4.6 1 .6 2v5.1h-1.2v-5.1c0-.6-.1-1-.4-1.2-.3-.3-.7-.4-1.1-.4-.6 0-1 .2-1.3.5-.3.3-.4.7-.4 1.2v5h-1.2v-5.2c0-.5-.1-.8-.4-1-.3-.3-.7-.5-1.1-.5l-.9.3-.6.6c-.152.31-.221.655-.2 1v4.8h-1.2Zm19 .2a2.996 2.996 0 0 1-2.9-1.9 4.996 4.996 0 0 1-.4-2.1c0-.8.2-1.5.4-2 .3-.7.7-1.1 1.2-1.5a3 3 0 0 1 1.7-.4c.5 0 .9 0 1.2.2l.6.6.4.5h.1v-3.8h1.2V113h-1.2v-1.2l-.5.6-.6.5c-.3.2-.7.3-1.2.3Zm.1-1a1.996 1.996 0 0 0 1.2-.5c.4-.2.6-.6.8-1l.2-1.5c0-.6 0-1-.2-1.5-.2-.4-.4-.8-.8-1a1.997 1.997 0 0 0-2.4 0c-.3.3-.6.6-.7 1a3.979 3.979 0 0 0-.3 1.5c0 .5 0 1 .3 1.5a2.005 2.005 0 0 0 2 1.4l-.1.1Zm5.7.8v-7.6h1.2v7.6h-1.2Zm.6-9-.6-.1a.789.789 0 0 1-.3-.6l.3-.6.6-.2c.2 0 .4 0 .6.2l.2.6c0 .2 0 .4-.2.6l-.6.2v-.1Zm2.7 9v-7.6h1.1v1.1h.1c.2-.4.4-.7.8-.9.3-.2.8-.4 1.2-.4.2-.004.4-.004.6 0v1.3a3.68 3.68 0 0 0-.7-.1 1.997 1.997 0 0 0-1 .2l-.7.6-.2 1v4.8h-1.2Zm8.2.2c-.7 0-1.4-.2-2-.5-.4-.4-.9-.8-1.1-1.4a4.697 4.697 0 0 1 0-4.1c.2-.6.6-1 1.2-1.4.5-.4 1-.5 1.8-.5.4 0 .8 0 1.1.2a2.999 2.999 0 0 1 1.9 1.8c.2.5.3 1 .3 1.8v.5h-6v-1h4.8c0-.5-.1-.8-.3-1.2a1.998 1.998 0 0 0-1.8-1c-.5 0-.9 0-1.2.3-.4.2-.6.5-.8.9-.205.33-.309.712-.3 1.1v.7c0 .6.1 1 .3 1.5.2.4.5.7.8.9.4.2.8.3 1.3.3l.8-.1.7-.4.4-.7 1.1.3c0 .4-.3.8-.6 1a3 3 0 0 1-1 .7c-.4.2-.9.3-1.4.3Zm8 0c-.7 0-1.3-.2-1.8-.5a3.99 3.99 0 0 1-1.2-1.4c-.3-.6-.4-1.3-.4-2 0-.9.1-1.5.4-2.1.3-.6.7-1 1.2-1.4.5-.4 1.1-.5 1.8-.5.6 0 1 0 1.5.3.4.2.8.4 1 .8.3.4.5.8.5 1.3h-1.1a1.994 1.994 0 0 0-.6-1c-.3-.2-.7-.4-1.3-.4-.433 0-.854.14-1.2.4-.369.237-.65.588-.8 1-.2.4-.2 1-.2 1.5 0 .6 0 1 .2 1.5s.5.8.8 1a2.099 2.099 0 0 0 2 .2 1.708 1.708 0 0 0 1-1.1h1.2a2.7 2.7 0 0 1-1.5 2c-.4.3-.9.4-1.5.4Zm8-7.8v1h-3.9v-1h4-.1Zm-2.7-1.9h1.1v7.3c0 .3 0 .6.2.8l.4.3h1l.2 1c-.284.124-.59.192-.9.2-.3 0-.6 0-1-.2a2.005 2.005 0 0 1-.7-.7c-.2-.3-.3-.6-.3-1v-7.7Zm5.9-.7V113h-1.2v-10.2h1.2Zm2.9 13a2.616 2.616 0 0 1-.9 0l.3-1.1h.8c.2 0 .4 0 .6-.2l.4-.9.3-.6-2.9-7.6h1.3l2.1 6 2.2-6h1.3L364 114l-.5 1a2 2 0 0 1-.8.6l-1 .2h.2Zm14.3-10.4v1h-4v-1h4Zm-2.8-1.9h1.1v7.3l.2.8.4.3h1l.2 1c-.284.124-.59.192-.9.2-.3 0-.6 0-1-.2a2.005 2.005 0 0 1-.7-.7c-.2-.3-.3-.6-.3-1v-7.7Zm7.6 9.7a3.498 3.498 0 0 1-3.1-1.9c-.3-.6-.4-1.3-.4-2 0-.9.2-1.6.4-2.2.3-.6.7-1 1.3-1.3.5-.4 1-.5 1.8-.5.7 0 1.3.1 1.8.5.5.3.9.7 1.2 1.3.3.6.4 1.3.4 2.1s-.1 1.5-.4 2c-.3.7-.7 1.1-1.2 1.5-.5.3-1.1.5-1.8.5Zm0-1c.5 0 1-.2 1.3-.5l.7-1 .3-1.5c0-.5-.1-1-.3-1.4-.2-.4-.4-.8-.7-1a2.004 2.004 0 0 0-1.3-.5 1.998 1.998 0 0 0-1.3.4c-.4.3-.6.7-.8 1l-.2 1.5c0 .5 0 1 .2 1.4.2.5.4.8.8 1.1.3.3.7.4 1.3.4v.1ZM56.5 127l-1 .3a2 2 0 0 0-.4-.5c0-.2-.3-.3-.5-.5l-.8-.1a2.004 2.004 0 0 0-1.2.3c-.3.2-.5.5-.5.8 0 .3.2.5.4.7.2.2.5.3 1 .4l1 .3c.8.2 1.3.4 1.6.8.4.3.5.7.5 1.3 0 .4-.1.8-.4 1.1-.2.4-.6.7-1 .9-.4.2-1 .3-1.6.3-.7 0-1.4-.2-1.9-.5a3 3 0 0 1-1-1.5l1.1-.3.7 1 1.1.2c.6 0 1 0 1.3-.3.3-.3.5-.5.5-.9 0-.2 0-.5-.3-.6-.2-.2-.4-.4-.8-.4l-1.3-.3a2.994 2.994 0 0 1-1.5-.8c-.4-.4-.5-.8-.5-1.3s.1-.8.3-1.2l1-.8 1.5-.2c.7 0 1.3.1 1.8.5.4.3.7.7.9 1.3Zm5 6c-.7 0-1.3-.1-1.8-.4-.5-.4-1-.8-1.2-1.4a4.7 4.7 0 0 1 0-4.2 3.3 3.3 0 0 1 3-1.9c.7 0 1.3.2 1.8.6.5.3 1 .7 1.2 1.3.3.6.5 1.3.5 2.1s-.2 1.5-.5 2c-.3.7-.7 1.1-1.2 1.5-.5.3-1.1.5-1.8.5v-.1Zm0-1c.5 0 1-.1 1.3-.4.3-.3.6-.6.7-1l.3-1.5c0-.5-.1-1-.3-1.4-.1-.4-.4-.8-.7-1a2.003 2.003 0 0 0-1.3-.5 1.998 1.998 0 0 0-1.3.4l-.8 1a4 4 0 0 0-.2 1.5c0 .5 0 1 .2 1.4.2.5.5.8.8 1.1.3.3.8.4 1.3.4Zm8.3 1c-.7 0-1.3-.1-1.8-.4a3.999 3.999 0 0 1-1.2-1.4c-.3-.6-.4-1.3-.4-2 0-.9.1-1.5.4-2.1.3-.6.7-1 1.2-1.4.5-.4 1.1-.5 1.8-.5.6 0 1 0 1.5.3.4.2.8.4 1 .8.3.4.5.8.5 1.3h-1.1a1.997 1.997 0 0 0-.6-1c-.3-.2-.7-.4-1.3-.4-.433 0-.854.14-1.2.4-.37.237-.65.588-.8 1l-.2 1.5c0 .6 0 1 .2 1.5s.5.8.8 1a2.1 2.1 0 0 0 2 .2 1.7 1.7 0 0 0 1-1.1h1.2a2.697 2.697 0 0 1-1.5 2c-.4.3-.9.4-1.5.4v-.1Zm4.8-.1v-7.6h1.1v7.6h-1.1Zm.6-9-.6-.1a.793.793 0 0 1-.3-.6l.3-.6.6-.2c.2 0 .4 0 .5.2l.3.6c0 .2 0 .4-.3.6l-.5.2v-.1Zm5 9.2c-.6 0-1-.1-1.4-.3-.4-.2-.7-.4-1-.8-.2-.3-.3-.8-.3-1.3 0-.4.1-.8.3-1l.7-.7c.3-.1.6-.3 1-.3.69-.162 1.392-.262 2.1-.3l.7-.2.2-.4c0-.5-.2-1-.4-1.2-.3-.3-.7-.4-1.3-.4-.5 0-1 .1-1.3.4-.3.2-.5.5-.6.8l-1.2-.4a2.697 2.697 0 0 1 2-1.7 4.5 4.5 0 0 1 2 0l.9.3.7.8c.2.4.3.9.3 1.5v5h-1.1v-1h-.1l-.4.5-.7.5-1.2.2h.1Zm.1-1c.5 0 .9-.2 1.2-.3a1.907 1.907 0 0 0 1-1.7v-1l-.4.1a5.483 5.483 0 0 1-1.2.2c-.435.092-.869.192-1.3.3-.3 0-.5.2-.7.4a1 1 0 0 0-.2.7c0 .4.2.7.5 1l1.1.2v.1Zm6.6-9.4V133h-1.1v-10.2h1.1v-.1Zm7.3 5.6v4.6H93v-7.6h1.2v1.2c.2-.4.5-.7.9-1 .3-.2.8-.3 1.4-.3.5 0 1 0 1.4.3.3.2.6.5.9 1 .2.4.3.9.3 1.5v4.9h-1.2v-4.8c0-.6-.2-1-.5-1.4-.3-.3-.7-.5-1.2-.5-.354.01-.699.113-1 .3-.3.1-.6.4-.7.7-.205.33-.309.712-.3 1.1Zm10.2 4.8c-.7 0-1.3-.2-1.9-.5-.5-.4-1-.8-1.2-1.4-.3-.6-.4-1.3-.4-2 0-.8.1-1.5.4-2.1.3-.6.7-1 1.2-1.4.5-.4 1.1-.5 1.8-.5.4 0 .8 0 1.2.2a3 3 0 0 1 1.8 1.8c.2.5.3 1 .3 1.8v.5h-5.9v-1h4.7c0-.5 0-.8-.3-1.2a1.998 1.998 0 0 0-1.8-1c-.5 0-.9 0-1.2.3-.3.2-.6.5-.8.9-.205.33-.309.712-.3 1.1v.7c0 .6.1 1 .3 1.5.2.4.5.7.9.9.3.2.8.3 1.2.3l.9-.1.6-.4.4-.7 1.2.3-.6 1a3 3 0 0 1-1 .7l-1.5.3Zm8.3-7.8v1h-4v-1h4Zm-2.8-1.9h1.2v7.3l.1.8.4.3h1l.2 1c-.253.112-.524.18-.8.2-.4 0-.7 0-1-.2a2.004 2.004 0 0 1-.8-.7c-.2-.3-.3-.6-.3-1v-7.7Zm6.3 9.5-2.3-7.6h1.2l1.6 5.8h.1l1.7-5.8h1.2l1.6 5.8h.1l1.6-5.8h1.3L122 133h-1.2l-1.7-5.9-1.8 5.9h-1.1v-.1Zm12.5.2a3.498 3.498 0 0 1-3.1-1.9c-.2-.6-.4-1.3-.4-2 0-.9.2-1.6.4-2.2.3-.6.7-1 1.3-1.3.5-.4 1-.5 1.8-.5.7 0 1.3.1 1.8.5.5.3 1 .7 1.2 1.3.3.6.4 1.3.4 2.1s-.1 1.5-.4 2c-.3.7-.7 1.1-1.2 1.5-.5.3-1.1.5-1.8.5Zm0-1c.5 0 1-.2 1.3-.5.3-.3.6-.6.7-1l.3-1.5c0-.5-.1-1-.3-1.4-.1-.4-.4-.8-.7-1a2.002 2.002 0 0 0-1.3-.5 1.998 1.998 0 0 0-1.3.4c-.4.3-.6.7-.8 1a3.999 3.999 0 0 0-.2 1.5c0 .5 0 1 .2 1.4.2.5.4.8.8 1.1.3.3.8.4 1.3.4v.1Zm5.2.8v-7.6h1.2v1.1c.2-.4.4-.7.8-.9.4-.2.8-.4 1.2-.4.2-.004.4-.004.6 0v1.3a3.68 3.68 0 0 0-.7-.1 1.997 1.997 0 0 0-1 .2l-.7.6-.2 1v4.8h-1.2Zm6.3-2.8v-1.4h.2l3.4-3.4h1.4l-3.5 3.6h-.1l-1.4 1.2Zm-1 2.8v-10.2h1.1V133h-1.2l.1-.1Zm4.8 0-3-3.8.8-.8 3.7 4.6H144Zm8.2-6-1 .4a2.015 2.015 0 0 0-.4-.5l-.5-.5-.8-.1a2.003 2.003 0 0 0-1.2.3c-.3.2-.5.5-.5.8 0 .3.1.5.3.7l1 .4 1.2.3c.7.2 1.2.4 1.5.8.3.3.5.7.5 1.3 0 .4-.1.8-.4 1.1-.2.4-.6.7-1 .9a4.195 4.195 0 0 1-3.6-.2c-.4-.4-.8-.9-.9-1.5l1.1-.3c.1.4.3.7.6 1l1.2.2c.5 0 1 0 1.3-.3.3-.3.5-.5.5-.9 0-.2-.1-.5-.3-.6-.2-.2-.5-.4-.8-.4l-1.3-.3a3.005 3.005 0 0 1-1.6-.8c-.3-.4-.4-.8-.4-1.3s0-.8.3-1.2l1-.8 1.5-.2c.7 0 1.3.1 1.7.5.5.3.8.7 1 1.3v-.1Zm9.2-1.6v1h-4.1v-1h4.1Zm-2.9 7.6v-8.7c0-.4.1-.8.3-1 .2-.4.5-.6.8-.7l1-.3c.41-.019.819.049 1.2.2l-.4 1h-.6c-.4 0-.7 0-.9.2l-.2.9v8.4h-1.2Zm4.5 0v-7.6h1.2v1.1a2.203 2.203 0 0 1 2-1.3c.233-.006.467-.006.7 0v1.3a3.72 3.72 0 0 0-.8-.1 1.997 1.997 0 0 0-1 .2l-.6.6c-.2.3-.3.6-.3 1v4.8H163Zm8.1.2c-.7 0-1.3-.2-1.8-.5-.5-.4-1-.8-1.2-1.4-.3-.6-.4-1.3-.4-2 0-.9.1-1.6.4-2.2a3.299 3.299 0 0 1 3-1.9c.7 0 1.3.2 1.8.6.6.3 1 .7 1.2 1.3.3.6.5 1.3.5 2.1s-.2 1.5-.5 2c-.2.7-.6 1.1-1.2 1.5-.5.3-1 .5-1.8.5Zm0-1c.5 0 1-.2 1.3-.5.4-.3.6-.6.8-1l.2-1.5c0-.5 0-1-.2-1.4-.2-.4-.4-.8-.8-1a2.002 2.002 0 0 0-1.3-.5 1.998 1.998 0 0 0-1.3.4l-.7 1a4.1 4.1 0 0 0 0 3c.1.4.4.7.7 1 .4.3.8.4 1.3.4v.1Zm5.3.8v-7.6h1.1v1.2h.1c.2-.5.4-.8.8-1 .3-.2.8-.3 1.3-.3s.9 0 1.2.3c.4.2.6.5.8 1 .3-.4.6-.8 1-1 .4-.2.8-.3 1.4-.3.7 0 1.2.2 1.6.6.5.4.7 1 .7 2v5.1h-1.2v-5.1c0-.6-.1-1-.4-1.2-.3-.3-.7-.4-1.1-.4-.6 0-1 .2-1.3.5-.3.3-.4.7-.4 1.2v5h-1.2v-5.2c0-.5-.1-.8-.4-1-.3-.3-.7-.5-1.1-.5l-.9.3-.6.6c-.187.301-.29.646-.3 1v4.8h-1.1Zm19.2.2c-.7 0-1.3-.2-1.8-.5-.5-.4-1-.8-1.2-1.4a4.695 4.695 0 0 1 0-4.2c.2-.6.7-1 1.2-1.3.5-.4 1-.5 1.8-.5.7 0 1.3.1 1.8.5.5.3 1 .7 1.2 1.3.3.6.4 1.3.4 2.1s-.1 1.5-.4 2c-.3.7-.7 1.1-1.2 1.5-.5.3-1.1.5-1.8.5Zm0-1c.5 0 1-.2 1.3-.5.3-.3.6-.6.7-1l.3-1.5c0-.5-.1-1-.3-1.4-.1-.4-.4-.8-.7-1a2.002 2.002 0 0 0-1.3-.5 1.998 1.998 0 0 0-1.3.4l-.8 1a4.1 4.1 0 0 0 0 3l.8 1c.3.3.8.4 1.3.4v.1Zm6.4-3.8v4.6h-1.2v-7.6h1.2v1.2c.2-.4.5-.7.9-1 .3-.2.8-.3 1.4-.3.5 0 1 0 1.4.3.3.2.6.5.9 1 .2.4.3.9.3 1.5v4.9h-1.2v-4.8c0-.6-.1-1-.5-1.4-.3-.3-.7-.5-1.2-.5-.354.01-.699.113-1 .3-.3.1-.6.4-.7.7-.205.33-.309.712-.3 1.1Zm10.2 4.8c-.7 0-1.3-.2-1.9-.5-.5-.4-1-.8-1.2-1.4-.3-.6-.4-1.3-.4-2 0-.8.1-1.5.4-2.1.3-.6.7-1 1.2-1.4.5-.4 1.1-.5 1.8-.5.4 0 .8 0 1.2.2a3 3 0 0 1 1.8 1.8c.2.5.3 1 .3 1.8v.5h-5.9v-1h4.7c0-.5 0-.8-.3-1.2a1.998 1.998 0 0 0-1.8-1c-.5 0-.9 0-1.2.3-.3.2-.6.5-.8.9-.205.33-.309.712-.3 1.1v.7c0 .6.1 1 .3 1.5.2.4.5.7.9.9.3.2.8.3 1.2.3l.9-.1.6-.4.4-.7 1.2.3-.6 1a3 3 0 0 1-1 .7l-1.5.3Zm9 2.7v-10.5h1v1.2h.2c0-.2.2-.3.3-.5l.7-.6c.3-.2.7-.2 1.2-.2a3 3 0 0 1 2.8 1.8 4.994 4.994 0 0 1 0 4.2 3.005 3.005 0 0 1-1.1 1.4 3.002 3.002 0 0 1-1.7.5c-.5 0-.9-.1-1.2-.3l-.6-.5-.4-.6h-.1v4H221l.2.1Zm1-6.7c0 .6.1 1 .3 1.5.2.4.4.8.8 1 .3.3.7.4 1.2.4.433 0 .854-.14 1.2-.4.3-.2.6-.6.7-1l.3-1.5c0-.6-.1-1-.3-1.5-.1-.4-.4-.7-.7-1-.346-.26-.767-.4-1.2-.4a2 2 0 0 0-2 1.4c-.2.4-.2 1-.2 1.5h-.1Zm8.6-6.4V133h-1.2v-10.2h1.2v-.1Zm4.4 10.4c-.5 0-1-.1-1.3-.3-.4-.2-.7-.4-1-.8-.2-.3-.3-.8-.3-1.3 0-.4 0-.8.3-1 .1-.3.4-.5.7-.7.2-.1.6-.3 1-.3.69-.162 1.392-.262 2.1-.3l.6-.2c.2 0 .2-.2.2-.4 0-.5-.1-1-.4-1.2-.2-.3-.6-.4-1.2-.4-.5 0-1 .1-1.3.4l-.7.8-1-.4a2.69 2.69 0 0 1 .694-1.068 2.692 2.692 0 0 1 1.106-.632 4.5 4.5 0 0 1 2 0c.4 0 .7.1 1 .3l.7.8c.2.4.3.9.3 1.5v5h-1.2v-1l-.4.5-.8.5-1 .2h-.1Zm.2-1c.5 0 .8-.2 1.2-.3a1.907 1.907 0 0 0 1-1.7v-1l-.4.1a5.483 5.483 0 0 1-1.2.2c-.435.092-.868.193-1.3.3-.3 0-.5.2-.7.4a1 1 0 0 0-.2.7c0 .4.1.7.4 1l1.2.2v.1Zm8.6 1c-.8 0-1.4-.2-1.9-.5a3.99 3.99 0 0 1-1.2-1.4c-.3-.6-.4-1.3-.4-2 0-.9.1-1.5.4-2.1.3-.6.7-1 1.2-1.4.5-.4 1.1-.5 1.8-.5.6 0 1 0 1.5.3.4.2.8.4 1 .8.3.4.5.8.6 1.3h-1.2a1.994 1.994 0 0 0-.6-1c-.3-.2-.7-.4-1.2-.4-.433 0-.854.14-1.2.4-.4.2-.7.5-.8 1-.2.4-.3.9-.3 1.5s0 1 .2 1.5.5.8.8 1c.4.3.8.4 1.3.4.3 0 .5 0 .8-.2a1.708 1.708 0 0 0 1-1.1h1.2a2.7 2.7 0 0 1-1.6 2c-.4.3-.9.4-1.4.4Zm7.9 0c-.8 0-1.4-.2-2-.5a3.99 3.99 0 0 1-1.2-1.4c-.2-.6-.4-1.3-.4-2 0-.8.2-1.5.4-2.1.3-.6.7-1 1.2-1.4.6-.4 1.2-.5 1.9-.5.4 0 .7 0 1.1.2a2.999 2.999 0 0 1 1.9 1.8l.2 1.8v.5h-5.8v-1h4.6c0-.5 0-.8-.2-1.2a1.998 1.998 0 0 0-1.8-1c-.5 0-1 0-1.3.3-.3.2-.6.5-.7.9-.205.33-.309.712-.3 1.1v.7c0 .6 0 1 .3 1.5.2.4.5.7.8.9.4.2.8.3 1.3.3l.8-.1.7-.4.4-.7 1.1.3c-.1.4-.3.8-.6 1a3 3 0 0 1-1 .7c-.4.2-1 .3-1.4.3Zm5.8-.1a1.003 1.003 0 0 1-.7-.3.9.9 0 0 1-.2-.6c0-.3 0-.5.2-.6.2-.2.4-.3.7-.3.2 0 .4 0 .6.3.2.1.3.3.3.6 0 .1 0 .3-.2.4 0 .2-.1.3-.3.4h-.4v.1Z" fill="#191B23"/><path d="M132 154H56a6 6 0 0 0-6 6v76a6 6 0 0 0 6 6h76a6 6 0 0 0 6-6v-76a6 6 0 0 0-6-6Z" fill="#6EDBFF"/><path d="m87.6 175.9.2.1v2a8.952 8.952 0 0 0 1.2-1.2v-.2h.5c.6 0 1.2 0 1.8-.2a4.696 4.696 0 0 0 3.6-3.5 4.592 4.592 0 0 0-1.2-4.3 5.497 5.497 0 0 0-5.3-1.4.404.404 0 0 1-.315-.042.403.403 0 0 1-.185-.258c-.6.2-1.1.4-1.6.8a.4.4 0 0 1 0 .6c-.2 0-.3.2-.4.3a4.5 4.5 0 0 0-.2 5.7c.5.7 1.2 1.2 2 1.6h-.1Zm5.9-5.4-1.4 1.9-1.5 1.8a.189.189 0 0 1 0 .1.195.195 0 0 1-.1.027.195.195 0 0 1-.1-.027 33.337 33.337 0 0 0-1.4-2.6l-1 .4c-.538.153-1.071.319-1.6.5v-.2a10.309 10.309 0 0 1 3.4-2.7l.2.1.5 1.2.3.8 1.2-.7 1.3-.8a.195.195 0 0 1 .1-.027c.035 0 .07.009.1.027v.2Zm.1 14.5c.2.2.3.4.3.7v1.3a6.797 6.797 0 0 1-1.7 3.2l-1 1-.3.3c-.9-.6-1.7-1.4-2.4-2.2-.5-.5-.9-1-1.1-1.7a3 3 0 0 1-.3-1.9 2.21 2.21 0 0 1 1.2-1.4l.3-.1.5-.1c.5 0 1 .2 1.3.5l.1.2h.3c.1.1.2 0 .2 0h.1l.4-.3c.4-.2.8-.2 1.3 0 .3 0 .6.3.8.6v-.1Zm-17.2 20.7-1.3.7H75c1.3-1 2.8-1.9 4.4-2.4l1.4-.5a2.009 2.009 0 0 0 1.1-1.2 2.002 2.002 0 0 0-.7-2l-.9-.5c.6 0 1.2.2 1.7.3.6.2 1.5.6 1.7 1.4a1.4 1.4 0 0 1-.7 1.5 6.018 6.018 0 0 1-1.7.7H81l-2.6 1c-.7.2-1.4.6-2 1Zm20.2-6c.2-1.8.7-3.6 1.6-5.2.416-.7.884-1.369 1.4-2 .7-1 1.7-1.7 2.8-2.2a16.504 16.504 0 0 0-4.3 8.5c-.2.8-.2 1.7 0 2.5a2.399 2.399 0 0 0 1.2 1.4l-.7.3a1.708 1.708 0 0 1-1.5-.5c-.5-.6-.7-1.5-.5-2.8ZM85 210a1.998 1.998 0 0 0-1-2.7c-.7-.2-1.5-.3-2.2 0-2.3.5-4.4 1.6-6.1 3.3l.9-1.2a8.6 8.6 0 0 1 3-2c1.7-.8 3.6-1 5.3-.8.4 0 .8.2 1.1.4a1.497 1.497 0 0 1 .2 1.7A5.02 5.02 0 0 1 85 210Zm2 3.5a2.604 2.604 0 0 0-1-2.5c.7 0 1.8.1 2.3.8.4.9-.1 2-1.7 3.3l-.5.5c.4-.6.7-1.3.9-2v-.1Zm16.8-6.8a.995.995 0 0 1-.5 1.4l-17.8 9.2 1.6-1.5c.8-.7 3-2.5 1.9-4.4-.7-1-2-1.2-2.9-1.3l.9-1a2.295 2.295 0 0 0-.4-2.8 3.998 3.998 0 0 0-1.5-.6c-1.8-.3-3.7 0-5.5.6l-.4.1.4-.2-.1-.3-.2-.4-.2-.3 2.2-.8h.2c.7-.2 1.4-.5 2-.9a2.302 2.302 0 0 0 1-2.2c-.1-1-1-1.7-2.2-2.1a13.008 13.008 0 0 0-6.3-.2h-.1l-5.2-11a1 1 0 0 1 .4-1.2l8.2-4.3v.4c-.5 2.6-.6 5.4-.3 8a4.2 4.2 0 0 0 4.4 3.7h.4c.3 0 .7.1 1 .4l.7.8.7 1.2c.4.4.8.7 1.4 1a7.793 7.793 0 0 0 3.7.2c1-.2 1.7-1.6 2.4-3.2l.2-.7c.3-.7 1.2-.8 1.6-.8.5 0 1-.2 1.3-.5l.6 1.2a16.012 16.012 0 0 0-1.7 5.3c-.2 1.6.1 2.7.8 3.5.5.5 1.2.7 1.8.7h.4c.7-.2 1.4-.5 1.8-1l1-1 2.3 5ZM84.7 180h-.1l1.6-.8 1-.3c.008.062.03.122.064.174a.41.41 0 0 0 .136.126h.4l.7-.7.3-.4c.8-.1 1 .2 1.8 1.5l.3.6c-2-.2-4.1-.3-6.2-.2Zm30.8-15.5c-.6-.2-1-.3-1.6-.3-3.3-.3-6.7 1.4-9.3 4.3-1.7 2-2.9 4.2-3.6 6.7-.8 2.7-.6 5.6.4 8.2a11.7 11.7 0 0 1-.8-8.9c.5-2.2 1.6-4.2 3-6 2.5-3.1 6-5 9.4-4.7.8 0 1.7.3 2.5.7Z" fill="#fff"/><path d="M86.7 184.2a3.003 3.003 0 0 0-1.4 2 4.003 4.003 0 0 0 .3 2.3c.3.7.7 1.3 1.2 2A14.82 14.82 0 0 0 90 193c.4 0 1-.5 1.3-.7l.5-.6 1.6-1.7c.6-1 1-2 1.3-3 .3-1.4-.3-3-1.7-3.5a2.499 2.499 0 0 0-2.2.3c-.3-.3-.7-.5-1.1-.6-1.2-.2-2 .3-3 .9v.1Zm4.8.3c.4-.2.8-.2 1.3 0 1 .3 1.4 1.5 1.1 2.5a6.797 6.797 0 0 1-1.7 3.2l-.9 1-.4.4a13 13 0 0 1-3.5-4c-.6-1.3-.1-3.5 1.7-3.5.5 0 1 .2 1.3.6h.2c.1.2.4.3.6 0l.3-.2Zm30.1-15.5c-.7-1.7-2-3.1-3.6-4l-2-1c-1-.6-2-.9-3-1-3.8-.3-7.8 2-10.5 5.6a17.001 17.001 0 0 0-2.8 5.8c-1.3 4.9 0 9.6 3.1 12l.5.3 1.8 1.1c1.1.6 2.3 1 3.6 1h.8c5.3 0 10.7-4.9 12.5-11.3a13 13 0 0 0-.4-8.5Zm-17.8 17-.5-.4a7.103 7.103 0 0 1-1.9-2.1 11.7 11.7 0 0 1-.8-8.9c.5-2.2 1.6-4.2 3-6 2.5-3.1 6-5 9.4-4.7.8 0 1.7.3 2.5.7h.1l.1.1c1.5 1 2.6 2.3 3.2 4 .9 2.4 1 5 .2 7.5-1.7 6.4-7.2 11.2-12.4 10.7-1 0-2-.4-2.9-1v.1Zm-17.4-13.6c.9-1.1 2-2 3.3-2.7l.3.1.5 1.2.3.8 1.2-.7 1.3-.8c.1-.1.3 0 .2.2l-1.5 1.9-1.4 1.9h-.2a33.337 33.337 0 0 0-1.4-2.6l-1.1.5c-.4 0-.9.3-1.3.5-.2 0-.3-.1-.2-.3Zm22.7 8.7a18.536 18.536 0 0 1-4.6 0l-2-.1h-.6a.417.417 0 0 1-.174-.064.41.41 0 0 1-.18-.336c0-.07.019-.139.054-.2a34.915 34.915 0 0 1 2.5-8.5l.3-.1 2.8-.1c.381-.09.75-.224 1.1-.4 1-.7 2-1.6 2.5-2.7l.4-.7c.3-1 1.9-1.2 2.1 0v.9c-.1.7-.4 1.4-.7 2h2.4c.5 0 1 .1 1.5.4.6.6.5 1.6.4 2l-.7 4c-.1.6-.5 1.1-1 1.5a11.004 11.004 0 0 1-2.4 1.4.398.398 0 0 1-.4-.3.404.404 0 0 1 .042-.315.403.403 0 0 1 .258-.185c.7-.3 1.4-.7 2-1.2.3-.3.5-.7.6-1.1l.8-4c0-.4 0-1-.2-1.2a1.001 1.001 0 0 0-.8-.1H112a.399.399 0 0 1-.4-.1.399.399 0 0 1 0-.5c.4-.8.7-1.6.9-2.5.2-1-.5-.6-.8 0a7.997 7.997 0 0 1-3 3.5l-1.1.4-2.6 7.9c2.042.166 4.097.032 6.1-.4l.2.2a.404.404 0 0 1-.042.315.403.403 0 0 1-.258.185l-1.9.4Zm-13.3 38a2.811 2.811 0 0 0 2.2.4 2.493 2.493 0 0 0 1.6-1.3 2.995 2.995 0 0 0-.104-2.673A3.001 3.001 0 0 0 97.3 214h-1a2.59 2.59 0 0 0-1.6 1.3 3 3 0 0 0 1.1 3.9v-.1Zm-.4-3.4a1.698 1.698 0 0 1 1.6-1l1 .3a2.202 2.202 0 0 1 .8 2.8 1.7 1.7 0 0 1-1.8 1l-.7-.3a2.1 2.1 0 0 1-.9-2.8Zm16-2-.4-2.1c-1-4.8-1.8-9.6-2.3-14.5-.3-3-1.6-8-5-8-1.6 0-3.2 1.2-4.3 2.3L98 189v-.3l-.4-3.7-.2-1.3a2.902 2.902 0 0 0-2.3-2.6l-1.1-.2a106.528 106.528 0 0 0-2-3.8 5.497 5.497 0 0 0 3.7-4 5.407 5.407 0 0 0-1-4.4 6.295 6.295 0 0 0-6.6-2.3c-.6.2-.4 1 .2.8a5.596 5.596 0 0 1 5.3 1.5 4.599 4.599 0 0 1 1.3 4.2 4.705 4.705 0 0 1-3.6 3.5 3.995 3.995 0 0 1-1.9.1c-.2 0-.3.1-.4.3a9.04 9.04 0 0 1-1 1.2l-.2-1.6-.1-.5a5.297 5.297 0 0 1-2.8-3.3c-.1-.7-.2-1.3 0-2 .1-.7.5-1.4 1-2l.4-.4c.4-.3-.2-1-.6-.6a5.388 5.388 0 0 0-1.7 3.8c0 1 .2 2 .7 2.8l-.8.5-11.7 5.7-3.8 2.1c-3.4 1.9-3.2 4.8-2.5 6.2l1.7 3.5a16.001 16.001 0 0 0-3.8-.7c-3.1 0-3.5 2.7-1.4 4.5a29.999 29.999 0 0 0 8.2 5.6 5.7 5.7 0 0 0 3.6 10c-.3.9-.5 1.8-.5 2.7A5.301 5.301 0 0 0 77 219h.1c0 1.6.6 3.9 2.7 6.3A227.525 227.525 0 0 1 93 242h27a98.418 98.418 0 0 1-7.6-24 45.85 45.85 0 0 1-1-4.2v-.1Zm-13.4-23v-.1l.7 1.5-.5.6-.3.6-.5-.8c.4-.5.6-1.1.6-1.8Zm-3-8.9a2.005 2.005 0 0 1 1.7 1.8l.2 1.4c.184 1.895.284 3.796.3 5.7 0 .5-.2 1-.6 1.4-.3.3-.7.6-1.2.6-1.2.1-2 .6-2.2 1.3l-.3.7c-.3.7-1.2 2.7-1.7 2.7 0 0-.8 0-2.3-2.4-.5-.7-1.1-1.6-2.4-1.6h-1.3a3.301 3.301 0 0 1-2.6-3 29.016 29.016 0 0 1 .2-8 2 2 0 0 1 1.7-1.6c2.1-.2 4.4.1 6.6.3l2.6.4 1.3.3Zm-27.5 3.1a2.6 2.6 0 0 1 1.3-1.6c1-.7 2.4-1.4 3.7-2.1.2.1.2.3.3.4a1.397 1.397 0 0 0 1.8.6l9.2-4.4a1.391 1.391 0 0 0 .697-.825c.056-.176.076-.362.059-.547a1.379 1.379 0 0 0-.156-.528l-.2-.4 1-.5a6.01 6.01 0 0 0 1.8 1.5l.1 2.2v.3a.398.398 0 0 0 .3.4h.2l.2-.1.7-.6.4-.4.8-1h.4c.4 0 .8 0 1.2-.2l1.8 3.5-2-.3H91c-2.4-.2-5-.5-7.4-.2-2.1.3-3.4 1-4 2a3.011 3.011 0 0 0-.3.9c-.4 2.6-.5 5.4-.2 8a4.2 4.2 0 0 0 4.4 3.7h.4c.3 0 .6.1.9.4l.8.8.7 1.2c.3.4.8.8 1.4 1a7.804 7.804 0 0 0 3.6.2h.2c.9-.2 1.5-1.6 2.2-3.2l.3-.7c.3-.7 1.2-.7 1.5-.8h.1c.5 0 1-.2 1.3-.5l.6 1.2a16.012 16.012 0 0 0-1.7 5.3c-.2 1.6 0 2.7.8 3.5.5.5 1.1.7 1.8.7h.4a3.004 3.004 0 0 0 1.8-1l1-1v-.1l1-1.4a347.017 347.017 0 0 1 5.9 13.8 2.296 2.296 0 0 1-1 2.2c-5.8 3.7-11.8 6.7-18.2 9.2a2.4 2.4 0 0 1-2.8-1l-2.7-5a15.268 15.268 0 0 1 1.8-2.1l1.6-1.5h.1c.7-.7 2.8-2.5 1.8-4.4-.7-1-2-1.2-2.8-1.3l.8-1a2.303 2.303 0 0 0-.3-2.8c-.5-.3-1-.5-1.6-.6a11 11 0 0 0-5.4.6l-.5-1v-.1a20.95 20.95 0 0 1 2.1-.8h.2c.8-.2 1.4-.5 2-.9a2.302 2.302 0 0 0 1-2.2c-.1-1-1-1.7-2.2-2.1a13.008 13.008 0 0 0-6.3-.2H76l-2 .5-6.1-13c-.3-.6-.4-1.1-.3-1.7h-.1ZM63 195.4c-1.4-1.2-1.6-3.1.8-3 1.5 0 3 .3 4.3.8l3.7 7.6-.4.2c-3.1-1.3-6-3.2-8.4-5.6Zm6.7 12.3a5.001 5.001 0 0 1 2-5.9l.8-.5 1.5-.7a12.394 12.394 0 0 1 8.1-.5c.6.2 1.5.6 1.7 1.4a1.4 1.4 0 0 1-.7 1.5 6.018 6.018 0 0 1-1.7.7H81a20.807 20.807 0 0 0-5.9 2.7H75l-.1.1-1 .6c-.4.4 0 1 .5.8l.6-.4.8 1.7a9.005 9.005 0 0 0-1.2 1.6 5 5 0 0 1-5-3.1h.1Zm9.3-.9-1.1.7-.7-1.3 1.3-.7c0 .4.3 1 .5 1.3Zm-2 11.5a4.398 4.398 0 0 1-2.5-4c0-.9.2-1.7.5-2.5l.2-.3c.32-.733.76-1.409 1.3-2a8.61 8.61 0 0 1 3.2-2c1.6-.8 3.4-1 5.2-.8.4 0 .8.2 1.1.4a1.497 1.497 0 0 1 .2 1.7c-.4.6-.8 1-1.3 1.4l-.3.2a9.995 9.995 0 0 0-7.5 7l-.1.9Zm24 10.4c-4 2-9 3.2-14.6 3.3a239.988 239.988 0 0 0-6.1-7 8.603 8.603 0 0 1-2.5-6.2c0-.4 0-.9.2-1.3a9.1 9.1 0 0 1 7-6.4h.9c.7 0 1.9.1 2.4.8.4.8-.1 1.9-1.7 3.3l-.5.5a27.719 27.719 0 0 0-3.3 3.6l-1 1.6a3.602 3.602 0 0 0 0 3.4c.3.5 1 0 .8-.4-.3-.6-.4-1.1-.3-1.7L85 227a3.299 3.299 0 0 0 4 1.2c6.5-2.5 12.7-5.6 18.6-9.3.7-.5 2.4-1.5 1.7-5 0-.3 0-.5-.2-.8-1.8-4.4-3.8-9-6-13.8l1-2.3-.1-.3a.401.401 0 1 0-.8.1 10.605 10.605 0 0 1-2.2 4.2 8.91 8.91 0 0 1-1.6 1.6l-.7.3a1.708 1.708 0 0 1-1.5-.5c-.5-.6-.7-1.5-.5-2.8a15.212 15.212 0 0 1 2.3-6.5l.7-.8c.7-.9 1.7-1.6 2.8-2.1.405-.196.85-.299 1.3-.3 1.3 0 3.6 1.5 4 7.2a137.104 137.104 0 0 0 2.5 14.5l.4 2.2.9 4.2a21.501 21.501 0 0 1-10.4 10.6l-.2.1Z" fill="#000"/><path fill-rule="evenodd" clip-rule="evenodd" d="M189 190c-.796 0-1.559.316-2.121.879a2.996 2.996 0 0 0 0 4.242 2.996 2.996 0 0 0 4.242 0 2.996 2.996 0 0 0 0-4.242A2.996 2.996 0 0 0 189 190Zm-1 3a.997.997 0 0 1 1-1 .997.997 0 0 1 1 1 .997.997 0 0 1-1 1 .997.997 0 0 1-1-1Z" fill="#A9ABB6"/><path fill-rule="evenodd" clip-rule="evenodd" d="M202 187c.6 0 1 .4 1 1v10h-3.1l-2.8-2.2-5.7 5.7c-.5.5-1.3.5-1.8 0l-2.1-2-2.5 2.4v1.1h11v2h-12a.997.997 0 0 1-1-1v-16c0-.6.4-1 1-1h18Zm-17 12 1-1a2.01 2.01 0 0 1 1.5-.677 1.997 1.997 0 0 1 1.5.677l1.5 1.6 5.2-5.2a2.003 2.003 0 0 1 2.6-.1l2.7 2V189h-16v10Z" fill="#A9ABB6"/><path d="M202 200a.997.997 0 0 0-1 1v2h-2a.997.997 0 0 0-1 1 .997.997 0 0 0 1 1h2v2a.997.997 0 0 0 1 1 .997.997 0 0 0 1-1v-2h2a.997.997 0 0 0 1-1 .997.997 0 0 0-1-1h-2v-2c0-.6-.4-1-1-1Z" fill="#A9ABB6"/><path d="M232 154.5h-76a5.5 5.5 0 0 0-5.5 5.5v76a5.5 5.5 0 0 0 5.5 5.5h76a5.5 5.5 0 0 0 5.5-5.5v-76a5.5 5.5 0 0 0-5.5-5.5Z" stroke="#C4C7CF" stroke-dasharray="6 6"/><path d="M78 268c0-7.732-6.268-14-14-14s-14 6.268-14 14 6.268 14 14 14 14-6.268 14-14Z" fill="#8A8E9B" fill-opacity=".1"/><path d="M61.5 268a1.501 1.501 0 1 0 0-3.002 1.501 1.501 0 0 0 0 3.002Zm6.5-1.5a1.502 1.502 0 0 1-2.56 1.061A1.502 1.502 0 0 1 66.5 265a1.501 1.501 0 0 1 1.5 1.5Zm-7 3.5c0-.6.4-1 1-1h4c.6 0 1 .4 1 1 0 1.1-1 2.5-3 2.5s-3-1.4-3-2.5Z" fill="#6C6E79"/><path fill-rule="evenodd" clip-rule="evenodd" d="M72 268a8 8 0 1 1-16 0 8 8 0 0 1 16 0Zm-2 0a6.002 6.002 0 0 1-6 6 6 6 0 1 1 6-6Z" fill="#6C6E79"/><path d="M115 254h-11c-7.732 0-14 6.268-14 14s6.268 14 14 14h11c7.732 0 14-6.268 14-14s-6.268-14-14-14Z" fill="#8A8E9B" fill-opacity=".1"/><path d="m105.6 266.1-.3-.6c0-.2-.2-.4-.4-.5a1.999 1.999 0 0 0-.6-.3l-.8-.1c-.5 0-1 .1-1.4.4a1.995 1.995 0 0 0-.9 1.1c-.2.5-.3 1-.3 1.8 0 .7.1 1.3.3 1.8.2.5.5.9 1 1.1.3.3.8.4 1.3.4s1 0 1.3-.2c.3-.2.6-.4.8-.8.2-.3.2-.7.2-1h.5-2.6v-1.6h4.2v1.2c0 1-.2 1.7-.5 2.3a4.304 4.304 0 0 1-3.9 2 4.402 4.402 0 0 1-4.2-2.4 6 6 0 0 1-.6-2.8c0-.8.1-1.5.4-2.2.2-.6.5-1.2 1-1.6.4-.5 1-.8 1.5-1a5.007 5.007 0 0 1 1.9-.4 4.997 4.997 0 0 1 2.9 1 3.8 3.8 0 0 1 1.4 2.4h-2.2Zm6-3.3V273h-2v-10.2h2Zm1.9 10.2v-10.2h6.7v1.8h-4.6v2.4h4.2v1.8h-4.2v4.2h-2.1Z" fill="#6C6E79"/><path d="M176 254h-21c-7.732 0-14 6.268-14 14s6.268 14 14 14h21c7.732 0 14-6.268 14-14s-6.268-14-14-14Z" fill="#8A8E9B" fill-opacity=".1"/><path d="M156.2 262.8h2.1v6.6c0 .8-.2 1.4-.5 2-.4.5-.8 1-1.5 1.3a4.99 4.99 0 0 1-2.2.4 4.99 4.99 0 0 1-2.2-.4c-.6-.3-1.1-.8-1.5-1.3-.3-.6-.5-1.2-.5-2v-6.6h2.1v6.4c0 .4.1.8.3 1 .2.4.4.6.7.8.3.2.7.3 1.1.3.4 0 .8-.1 1-.3a2.004 2.004 0 0 0 1.1-1.7v-6.5Zm3.5 1.8v-1.8h8.4v1.8H165v8.4h-2.2v-8.4h-3.1Zm9.7-1.8h2.7l2.8 6.9h.1l2.8-6.9h2.7V273h-2.1v-6.6l-2.7 6.6h-1.4l-2.7-6.7v6.7h-2.2v-10.2Z" fill="#6C6E79"/><path d="M408 82.5H40a5.5 5.5 0 0 0-5.5 5.5v204a5.5 5.5 0 0 0 5.5 5.5h368a5.5 5.5 0 0 0 5.5-5.5V88a5.5 5.5 0 0 0-5.5-5.5Z" stroke="#E0E1E9"/><mask id="mask0_1005_153" style="mask-type:luminance" maskUnits="userSpaceOnUse" x="34" y="34" width="32" height="32"><path d="M66 50c0-8.837-7.163-16-16-16s-16 7.163-16 16 7.163 16 16 16 16-7.163 16-16Z" fill="#fff"/></mask><g mask="url(#mask0_1005_153)"><path d="M66 50c0-8.837-7.163-16-16-16s-16 7.163-16 16 7.163 16 16 16 16-7.163 16-16Z" fill="#fff"/><path d="M50 66c8.837 0 16-7.163 16-16s-7.163-16-16-16-16 7.163-16 16 7.163 16 16 16Z" fill="#1877F2"/><path d="M56.2 54.6 57 50h-4.4v-3c0-1.3.6-2.5 2.6-2.5h2v-4s-1.8-.3-3.6-.3c-3.6 0-6 2.3-6 6.3V50h-4v4.6h4v11.2c1.657.26 3.343.26 5 0V54.6h3.7-.1Z" fill="#fff"/></g><path d="M109 34H95a9 9 0 0 0-9 9v14a9 9 0 0 0 9 9h14a9 9 0 0 0 9-9V43a9 9 0 0 0-9-9Z" fill="#fff"/><path fill-rule="evenodd" clip-rule="evenodd" d="M102 41.8a8.2 8.2 0 1 0 0 16.399 8.2 8.2 0 0 0 0-16.399Zm0 13.5a5.3 5.3 0 1 1 0-10.6 5.3 5.3 0 0 1 0 10.6Z" fill="url(#paint0_radial_1005_153)"/><path fill-rule="evenodd" clip-rule="evenodd" d="M102 41.8a8.2 8.2 0 1 0 0 16.399 8.2 8.2 0 0 0 0-16.399Zm0 13.5a5.3 5.3 0 1 1 0-10.6 5.3 5.3 0 0 1 0 10.6Z" fill="url(#paint1_radial_1005_153)"/><path d="M110.5 43.4a2.001 2.001 0 0 0 1.692-3.514 2.002 2.002 0 0 0-3.248 1.564 1.998 1.998 0 0 0 1.556 1.95Z" fill="url(#paint2_radial_1005_153)"/><path d="M110.5 43.4a2.001 2.001 0 0 0 1.692-3.514 2.002 2.002 0 0 0-3.248 1.564 1.998 1.998 0 0 0 1.556 1.95Z" fill="url(#paint3_radial_1005_153)"/><path fill-rule="evenodd" clip-rule="evenodd" d="m102 34-6.6.1a9.999 9.999 0 0 0-3.9.7c-1 .4-2 1-2.8 1.9-.9.9-1.5 1.8-1.9 2.8-.4 1-.6 2.2-.7 3.9-.192 5.676.042 11.359.7 17a9.007 9.007 0 0 0 1.9 3c.9.8 1.8 1.4 2.8 1.8 1 .4 2.2.6 3.9.7a113.51 113.51 0 0 0 17-.7 9.003 9.003 0 0 0 3-1.9c.8-.9 1.4-1.8 1.8-2.8.4-1 .6-2.2.7-3.9a113.589 113.589 0 0 0-.7-17 9.007 9.007 0 0 0-1.9-3 7.8 7.8 0 0 0-2.8-1.8c-1-.4-2.2-.6-3.9-.7L102 34Zm0 2.9h6.5c1.5.1 2.4.4 3 .6.68.264 1.295.673 1.8 1.2.5.6.9 1.1 1.2 1.9.2.5.5 1.4.5 3a111 111 0 0 1-.5 15.8 5.004 5.004 0 0 1-1.2 1.9c-.6.5-1.1.9-1.9 1.2-.5.2-1.4.5-3 .5-5.272.209-10.552.042-15.8-.5a5.001 5.001 0 0 1-1.9-1.2 5.004 5.004 0 0 1-1.2-1.9c-.2-.5-.5-1.4-.5-3a111 111 0 0 1 .5-15.8 5.004 5.004 0 0 1 1.2-1.9c.6-.5 1.1-.9 1.9-1.2.5-.2 1.4-.5 3-.5l6.4-.1Z" fill="url(#paint4_radial_1005_153)"/><path fill-rule="evenodd" clip-rule="evenodd" d="m102 34-6.6.1a9.999 9.999 0 0 0-3.9.7c-1 .4-2 1-2.8 1.9-.9.9-1.5 1.8-1.9 2.8-.4 1-.6 2.2-.7 3.9-.192 5.676.042 11.359.7 17a9.007 9.007 0 0 0 1.9 3c.9.8 1.8 1.4 2.8 1.8 1 .4 2.2.6 3.9.7a113.51 113.51 0 0 0 17-.7 9.003 9.003 0 0 0 3-1.9c.8-.9 1.4-1.8 1.8-2.8.4-1 .6-2.2.7-3.9a113.589 113.589 0 0 0-.7-17 9.007 9.007 0 0 0-1.9-3 7.8 7.8 0 0 0-2.8-1.8c-1-.4-2.2-.6-3.9-.7L102 34Zm0 2.9h6.5c1.5.1 2.4.4 3 .6.68.264 1.295.673 1.8 1.2.5.6.9 1.1 1.2 1.9.2.5.5 1.4.5 3a111 111 0 0 1-.5 15.8 5.004 5.004 0 0 1-1.2 1.9c-.6.5-1.1.9-1.9 1.2-.5.2-1.4.5-3 .5-5.272.209-10.552.042-15.8-.5a5.001 5.001 0 0 1-1.9-1.2 5.004 5.004 0 0 1-1.2-1.9c-.2-.5-.5-1.4-.5-3a111 111 0 0 1 .5-15.8 5.004 5.004 0 0 1 1.2-1.9c.6-.5 1.1-.9 1.9-1.2.5-.2 1.4-.5 3-.5l6.4-.1Z" fill="url(#paint5_radial_1005_153)"/><mask id="mask1_1005_153" style="mask-type:luminance" maskUnits="userSpaceOnUse" x="138" y="34" width="32" height="32"><path d="M170 50c0-8.837-7.163-16-16-16s-16 7.163-16 16 7.163 16 16 16 16-7.163 16-16Z" fill="#fff"/></mask><g mask="url(#mask1_1005_153)"><path d="M170 50c0-8.837-7.163-16-16-16s-16 7.163-16 16 7.163 16 16 16 16-7.163 16-16Z" fill="#fff"/><path d="M154 66c8.837 0 16-7.163 16-16s-7.163-16-16-16-16 7.163-16 16 7.163 16 16 16Z" fill="#1B9DF0"/><path d="M151 58c7.1 0 11-5.8 11-10.8v-.5c.8-.5 1.5-1.2 2-2-.7.4-1.4.6-2.2.7a4 4 0 0 0 1.7-2.1 7.992 7.992 0 0 1-2.5.9 4.001 4.001 0 0 0-2.8-1.2 3.801 3.801 0 0 0-4 3.8c0 .3 0 .6.2.8-3.3-.1-6.2-1.6-8-4a3.699 3.699 0 0 0 1.1 5.1 4 4 0 0 1-1.7-.4c0 1.9 1.3 3.4 3.1 3.7a3.999 3.999 0 0 1-1.8 0c.5 1.6 2 2.7 3.7 2.7a8 8 0 0 1-5.8 1.6 12 12 0 0 0 6 1.7Z" fill="#fff"/></g><mask id="mask2_1005_153" style="mask-type:luminance" maskUnits="userSpaceOnUse" x="190" y="34" width="32" height="32"><path d="M217.6 34h-23.2a4.4 4.4 0 0 0-4.4 4.4v23.2a4.4 4.4 0 0 0 4.4 4.4h23.2a4.4 4.4 0 0 0 4.4-4.4V38.4a4.4 4.4 0 0 0-4.4-4.4Z" fill="#fff"/></mask><g mask="url(#mask2_1005_153)"><path d="M217.6 34h-23.2a4.4 4.4 0 0 0-4.4 4.4v23.2a4.4 4.4 0 0 0 4.4 4.4h23.2a4.4 4.4 0 0 0 4.4-4.4V38.4a4.4 4.4 0 0 0-4.4-4.4Z" fill="#fff"/><path d="M219.1 34h-26.2a2.9 2.9 0 0 0-2.9 2.9v26.2a2.9 2.9 0 0 0 2.9 2.9h26.2a2.9 2.9 0 0 0 2.9-2.9V36.9a2.9 2.9 0 0 0-2.9-2.9Z" fill="#0A66C2"/><path d="M218 61h-5v-7.5c0-1.8 0-4-2.5-4s-3 1.9-3 3.9V61h-4.8V45.6h4.7v2.1c.5-.7 1.2-1.4 2-1.8.8-.5 1.8-.7 2.7-.6 5 0 5.9 3.1 5.9 7.3V61Zm-23.6 0h5V45.6h-5V61Zm5.3-20.2c0 1.5-1.3 2.7-2.9 2.7a2.798 2.798 0 0 1-2.8-2.7c0-1.6 1.3-2.8 2.8-2.8 1.6 0 2.9 1.2 2.9 2.8Z" fill="#fff"/></g><mask id="mask3_1005_153" style="mask-type:luminance" maskUnits="userSpaceOnUse" x="242" y="34" width="32" height="32"><path d="M274 50c0-8.837-7.163-16-16-16s-16 7.163-16 16 7.163 16 16 16 16-7.163 16-16Z" fill="#fff"/></mask><g mask="url(#mask3_1005_153)"><path d="M274 50c0-8.837-7.163-16-16-16s-16 7.163-16 16 7.163 16 16 16 16-7.163 16-16Z" fill="#fff"/><path d="M258 66c8.837 0 16-7.163 16-16s-7.163-16-16-16-16 7.163-16 16 7.163 16 16 16Z" fill="#E60023"/><path d="M252.3 60.1c-.3 1.4-.2 3.3 0 4.5l.5 1.4.6-1c.6-1 1.6-2.7 2-4.1l.9-3.8c.5 1 2 1.8 3.6 1.8 4.7 0 8.1-4.3 8.1-9.8 0-5.2-4.2-9.1-9.7-9.1-6.7 0-10.3 4.6-10.3 9.5 0 2.4 1.2 5.2 3.1 6.2.3.1.5 0 .6-.2l.4-1.8v-.5a6.202 6.202 0 0 1-1.3-3.6c0-3.5 2.7-6.8 7.1-6.8 3.9 0 6.6 2.6 6.6 6.4 0 4.3-2.2 7.2-5 7.2a2.299 2.299 0 0 1-2.3-2.8c.5-2 1.3-4 1.3-5.3 0-1.2-.6-2.2-2-2.2-1.5 0-2.8 1.6-2.8 3.8 0 1.4.5 2.3.5 2.3l-1.9 7.9Z" fill="#fff"/></g><mask id="mask4_1005_153" style="mask-type:alpha" maskUnits="userSpaceOnUse" x="294" y="35" width="32" height="30"><path d="M296.7 37.2c.3-1 1.2-1.6 2.2-1.6h22.2c1 0 2 .7 2.2 1.6l2.7 8a4.009 4.009 0 0 1-1.6 3.2V62c0 1.3-1 2.4-2.4 2.4h-24c-1.3 0-2.4-1-2.4-2.4V48.4a4.001 4.001 0 0 1-1.6-3.2l2.7-8Z" fill="#4455B5"/></mask><g mask="url(#mask4_1005_153)"><path d="M295.6 45.2h28.8V62c0 1.3-1 2.4-2.4 2.4h-24c-1.3 0-2.4-1-2.4-2.4V45.2Z" fill="#4584ED"/><g filter="url(#filter1_d_1005_153)"><path fill-rule="evenodd" clip-rule="evenodd" d="M299 35.6c-1.1 0-2 .7-2.3 1.6l-2.7 8a3.997 3.997 0 0 0 4 4 3.998 3.998 0 0 0 4-4 3.997 3.997 0 0 0 4 4 3.998 3.998 0 0 0 4-4 3.997 3.997 0 0 0 4 4 3.998 3.998 0 0 0 4-4 3.997 3.997 0 0 0 4 4 3.998 3.998 0 0 0 4-4l-2.7-8c-.3-1-1.2-1.6-2.2-1.6h-22.2.1Z" fill="#4459BA"/></g></g><path d="M296.7 37.2c.3-1 1.2-1.6 2.2-1.6h4.7l-1.6 9.6h-8l2.7-8Z" fill="#7FABF4"/><path d="M323.3 37.2c-.3-1-1.2-1.6-2.2-1.6h-4.7l1.6 9.6h8l-2.7-8Zm-19.7-1.6h6.4v9.6h-8l1.6-9.6Z" fill="#4459BA"/><path d="M316.4 35.6H310v9.6h8l-1.6-9.6Z" fill="#7FABF4"/><path d="M302 45.2a3.997 3.997 0 0 1-4 4 3.999 3.999 0 0 1-4-4h8Z" fill="#79A3E6"/><path d="M310 45.2a3.997 3.997 0 0 1-4 4 3.999 3.999 0 0 1-4-4h8Z" fill="#4455B5"/><path d="M318 45.2a3.997 3.997 0 0 1-4 4 3.999 3.999 0 0 1-4-4h8Z" fill="#79A3E6"/><path d="M326 45.2a3.997 3.997 0 0 1-4 4 3.999 3.999 0 0 1-4-4h8Z" fill="#4455B5"/><path d="M322.7 55.2h-6.2v2.5h3.5a2.991 2.991 0 0 1-1.3 2 4.002 4.002 0 0 1-5.9-2.2 3.798 3.798 0 0 1 .6-3.4 3.995 3.995 0 0 1 3.1-1.6c1 0 1.9.4 2.5 1l1.9-1.8a6.6 6.6 0 0 0-9 .2 6.299 6.299 0 0 0 0 9 6.6 6.6 0 0 0 4.6 1.9c1.6 0 3.2-.5 4.4-1.6a5.995 5.995 0 0 0 1.9-4.6l-.1-1.4Z" fill="#fff"/><path d="M357 50c0 .5.4.8.8.8h3.4v3.4a.8.8 0 1 0 1.6 0v-3.4h3.4a.801.801 0 0 0 0-1.6h-3.4v-3.4a.8.8 0 1 0-1.6 0v3.4h-3.4c-.4 0-.8.3-.8.8Z" fill="#8A8E9B"/><g filter="url(#filter2_d_1005_153)"><path d="M497 177H185a8 8 0 0 0-8 8v224a8 8 0 0 0 8 8h312a8 8 0 0 0 8-8V185a8 8 0 0 0-8-8Z" fill="#fff"/></g><path d="M197.9 212v-10.2h6.7v1.8H200v2.4h4.2v1.8H200v4.2h-2.1Zm11 .1a3.996 3.996 0 0 1-2-.4c-.5-.4-1-.8-1.3-1.4-.3-.6-.4-1.3-.4-2 0-.9.1-1.6.4-2.2.3-.5.8-1 1.3-1.3.6-.4 1.3-.5 2-.5.8 0 1.5.1 2 .5.6.3 1 .8 1.3 1.3.3.6.5 1.3.5 2.1s-.2 1.5-.5 2c-.3.7-.7 1.1-1.3 1.5a3.996 3.996 0 0 1-2 .4Zm0-1.6c.4 0 .7 0 1-.3l.4-.8c.2-.4.2-.8.2-1.2 0-.4 0-.8-.2-1.2 0-.3-.3-.6-.5-.8-.2-.2-.5-.3-.9-.3-.3 0-.6 0-.9.3l-.5.8-.2 1.2c0 .4 0 .8.2 1.2l.5.8c.3.2.6.3 1 .3h-.1Zm7.3-8.7V212H214v-10.2h2.2Zm3.8 0V212h-2.1v-10.2h2.1Zm5.1 10.3a3.996 3.996 0 0 1-2-.4c-.5-.4-1-.8-1.3-1.4-.3-.6-.4-1.3-.4-2 0-.9.1-1.6.4-2.2.3-.5.8-1 1.3-1.3.6-.4 1.3-.5 2-.5.8 0 1.5.1 2 .5.6.3 1 .8 1.3 1.3.3.6.5 1.3.5 2.1s-.2 1.5-.5 2c-.3.7-.7 1.1-1.3 1.5a3.996 3.996 0 0 1-2 .4Zm0-1.6c.4 0 .7 0 1-.3l.5-.8.1-1.2-.1-1.2c-.2-.3-.3-.6-.6-.8-.2-.2-.5-.3-.9-.3-.3 0-.6 0-.8.3-.3.2-.5.5-.6.8l-.2 1.2c0 .4 0 .8.2 1.2.1.3.3.6.6.8.2.2.5.3.8.3Zm6.5 1.5-2-7.6h2l1.2 5h.1l1.2-5h2.1l1.3 5 1.2-5h2.2l-2.1 7.6h-2.3l-1.3-4.8-1.4 4.8h-2.2Zm13.7.1a3.996 3.996 0 0 1-2-.4c-.6-.3-1-.8-1.4-1.4-.3-.6-.4-1.3-.4-2 0-.9.1-1.6.4-2.2.4-.5.8-1 1.3-1.3.6-.4 1.2-.5 2-.5.5 0 1 0 1.4.2a3.094 3.094 0 0 1 2 2l.2 1.6v.6h-6.5v-1.3h4.5c0-.3 0-.6-.2-.8l-.6-.6-.8-.2c-.3 0-.6.1-.8.3-.3.1-.5.3-.6.6l-.2.8v1.2c0 .4 0 .7.2 1 .1.3.3.5.6.6.3.2.6.3 1 .3l.6-.1.5-.3.3-.5 2 .1c-.2.5-.4.9-.7 1.2-.317.397-.73.706-1.2.9-.4.2-1 .2-1.6.2Zm4.9-.1v-7.6h2v1.3h.1c.1-.5.4-.8.7-1 .3-.3.7-.4 1.1-.4.233-.025.467-.025.7 0v2l-.4-.2h-.5c-.3 0-.6 0-.8.2a1.5 1.5 0 0 0-.8 1.4v4.3h-2.1Zm12-5.5-1.9.2a1.002 1.002 0 0 0-.2-.5l-.4-.3-.7-.1c-.3 0-.6 0-.8.2-.2.1-.3.3-.3.5s0 .4.2.5l.7.3 1.4.3c.8.1 1.3.4 1.7.7.3.3.5.8.5 1.3s-.1 1-.4 1.4c-.3.3-.7.6-1.2.8-.5.2-1.1.3-1.8.3-1 0-1.8-.2-2.4-.6a2.001 2.001 0 0 1-1-1.7l2-.1.5.7 1 .2c.3 0 .6 0 .8-.2.3-.1.4-.3.4-.6l-.3-.4c-.1-.2-.4-.2-.7-.3l-1.3-.3c-.8-.1-1.3-.4-1.7-.8a2.003 2.003 0 0 1-.5-1.4c0-.4 0-.9.4-1.2.2-.4.6-.7 1-.8.6-.2 1.1-.3 1.8-.3 1 0 1.7.2 2.3.6.5.4.9 1 1 1.6h-.1ZM198.4 244v-2.7l6.2-5.7 1.4-1.4.8-1.2c.2-.4.3-.8.3-1.3s-.2-1-.4-1.3c-.2-.4-.5-.7-1-.9a3.002 3.002 0 0 0-1.3-.3c-.5 0-1 .1-1.4.4-.4.2-.7.5-1 .9a3.013 3.013 0 0 0-.3 1.4h-3.5c0-1.1.3-2.1.8-3 .5-.8 1.3-1.4 2.2-1.9 1-.5 2-.7 3.2-.7 1.3 0 2.4.2 3.3.7a4.701 4.701 0 0 1 3 4.5 6.698 6.698 0 0 1-1.8 4l-2.8 2.9-2.6 2.5h7.4v3.1h-12.5Zm14.5-3v-3l7.3-11.5h2.5v4h-1.5l-4.6 7.3v.2H227v3h-14.1Zm8.4 3v-17.5h3.5V244h-3.5Zm10 .2a1.991 1.991 0 0 1-1.5-.6 2 2 0 0 1-.6-1.4c0-.6.2-1 .6-1.5a1.991 1.991 0 0 1 1.5-.6c.5 0 1 .2 1.4.6.4.4.6 1 .6 1.5 0 .4-.1.7-.3 1-.2.3-.4.6-.7.7-.301.187-.646.29-1 .3Zm10.8 0c-1.2 0-2.4-.2-3.4-.6a6.003 6.003 0 0 1-2.3-1.8c-.6-.8-.9-1.7-.9-2.7h3.7c0 .4.2.8.4 1 .3.4.7.7 1 .8l1.5.3c.6 0 1.1-.1 1.5-.3.412-.15.763-.431 1-.8.3-.4.4-.8.4-1.2a1.998 1.998 0 0 0-.4-1.3c-.2-.3-.6-.6-1-.8-.6-.2-1.1-.3-1.8-.3h-1.6v-2.8h1.6c.6 0 1 0 1.5-.2.4-.2.8-.5 1-.8.2-.4.3-.8.3-1.3a2.099 2.099 0 0 0-1.1-1.9 3.198 3.198 0 0 0-2.7 0c-.4.2-.8.4-1 .8-.24.319-.379.702-.4 1.1h-3.5c0-1 .3-1.9.8-2.6.6-.8 1.3-1.4 2.3-1.8 1-.5 2-.7 3.2-.7 1.2 0 2.2.2 3.1.7 1 .4 1.6 1 2.1 1.7.6.8.8 1.6.8 2.5 0 1-.3 1.8-1 2.5a4 4 0 0 1-2.3 1.2v.2c1.3.1 2.3.6 3 1.3a4.002 4.002 0 0 1 1 2.7 4.002 4.002 0 0 1-1 2.7c-.5.7-1.3 1.3-2.3 1.8-1 .4-2.2.6-3.5.6Zm15-.2v-17.5h3.7v7.7h.3l6.3-7.7h4.4l-6.5 7.9 6.6 9.6h-4.5l-4.7-7.2-1.9 2.2v5h-3.7Z" fill="#191B23"/><path d="M280.4 243.5v-5.7h1.2v5.7h-1.2Zm-2.3-2.3v-1.1h5.8v1.1H278h.1Zm10.8-5c.4 0 .7 0 1.1.2.4.1.7.3 1 .6l.8 1.3c.2.6.2 1.2.2 2s0 1.5-.2 2c-.1.7-.4 1.2-.6 1.6l-1 .9a2.989 2.989 0 0 1-1.4.3 2.989 2.989 0 0 1-1.4-.3 2.599 2.599 0 0 1-1.5-2h1.3c0 .3.3.6.5.8.3.3.6.4 1 .4.7 0 1.2-.3 1.5-.9.4-.5.6-1.3.6-2.3l-.6.6a2.5 2.5 0 0 1-1.6.6c-.5 0-1-.1-1.4-.4-.4-.2-.8-.6-1-1a2.99 2.99 0 0 1-.4-1.5c0-.5.2-1 .4-1.5.3-.4.6-.8 1-1a3 3 0 0 1 1.7-.4Zm0 1c-.4 0-.7.1-1 .3l-.6.7-.2.9c0 .3 0 .6.2 1l.6.6 1 .2a1.7 1.7 0 0 0 1.2-.5l.4-.6.1-.7c0-.3 0-.6-.2-1l-.6-.6c-.3-.2-.6-.2-1-.2l.1-.1Zm8 8c-.6 0-1.1-.2-1.6-.4s-.8-.5-1-.8c-.3-.4-.5-.8-.5-1.3h1.3c0 .3.1.5.3.7l.6.4.9.2c.3 0 .6 0 .9-.2l.6-.5c.2-.2.2-.5.2-.7 0-.3 0-.6-.2-.8l-.6-.5c-.3-.2-.7-.2-1-.2h-.8V240h.7c.3 0 .6 0 .9-.2.2 0 .4-.3.6-.5l.2-.7-.2-.7-.5-.5-.8-.1a2.01 2.01 0 0 0-.8.1c-.3.1-.4.3-.6.5-.2.1-.2.4-.3.6H294c0-.4.1-.8.4-1.2.3-.4.6-.6 1-.8l1.5-.3c.6 0 1 0 1.5.3a2.203 2.203 0 0 1 1.3 2 1.898 1.898 0 0 1-1.6 2c.6.1 1 .3 1.4.7.3.4.5.9.5 1.4 0 .5-.2 1-.4 1.3-.3.4-.7.7-1.1.9-.5.2-1 .3-1.6.3v.1Zm4.6-2v-1l3.7-6h.9v1.6h-.6l-2.7 4.3h5.2v1.2h-6.5v-.1Zm4.1 1.8v-8.7h1.3v8.7h-1.3Zm7.5-4.4c0-1 .2-2 .4-3 .3-.8.7-1.6 1.3-2.4h1.1l-.6 1a9.69 9.69 0 0 0-.8 2.9 10.5 10.5 0 0 0 1.4 7h-1.1a8.802 8.802 0 0 1-1.7-5.5Zm7.3 4.5c-.6 0-1 0-1.5-.3l-1-.8a1.998 1.998 0 0 1-.4-1.3h1.3c0 .4.2.7.5 1 .3.2.6.3 1 .3s.7 0 1-.2l.6-.7.2-.9c0-.4 0-.7-.2-1l-.7-.6c-.2-.2-.6-.2-.9-.2h-.8l-.6.4-1.3-.1.5-4.4h4.8v1.1h-3.7l-.2 2.4.7-.4.9-.1a2.699 2.699 0 0 1 2.4 1.4c.2.4.4 1 .4 1.5s-.2 1-.4 1.5c-.3.4-.6.8-1 1-.485.28-1.04.419-1.6.4Zm9.3-1.7v-.5l.2-.9.6-.7 1-.2c.4 0 .7 0 1 .2l.6.7.2.9v.5l-.2.9a1.6 1.6 0 0 1-1.6.9c-.4 0-.7-.1-1-.3l-.6-.6a1.997 1.997 0 0 1-.2-1v.1Zm1-.5v.5c0 .2 0 .4.2.6.1.2.3.3.6.3s.5 0 .6-.3l.2-.6v-.5c0-.2 0-.5-.2-.7-.1-.2-.3-.3-.6-.3s-.5.1-.6.3l-.2.7Zm-5.4-4.5v-.5l.2-.9a1.596 1.596 0 0 1 1.6-1c.4 0 .7.2 1 .3l.6.7.2 1v.4c0 .3 0 .6-.2.9l-.6.6c-.3.2-.6.3-1 .3s-.7-.1-1-.3l-.6-.6a1.997 1.997 0 0 1-.2-1v.1Zm1-.5v.5c0 .2 0 .4.2.6.1.2.3.3.6.3s.5 0 .6-.3l.2-.6v-.5c0-.2 0-.5-.2-.7 0-.2-.3-.3-.6-.3s-.5.1-.6.3l-.2.7Zm-.6 7.1 6-8.7h1l-6 8.7h-1Zm11.9-4.4c0 1.1-.2 2-.4 3-.3.9-.7 1.7-1.3 2.5h-1.1l.5-1c.421-.952.691-1.964.8-3a10.599 10.599 0 0 0-1.3-6.9h1.1a8.798 8.798 0 0 1 1.7 5.4Z" fill="#007C65"/><mask id="mask5_1005_153" style="mask-type:luminance" maskUnits="userSpaceOnUse" x="197" y="273" width="157" height="52"><path d="M197 273h157v52H197v-52Z" fill="#fff"/></mask><g mask="url(#mask5_1005_153)"><path d="M197.9 288v-10.2h6.8v1.8H200v2.4h4.4v1.8H200v2.4h4.8v1.8h-7 .1Zm10.6-4.4v4.4h-2v-7.6h2v1.3c.2-.4.5-.8.9-1 .4-.3.9-.4 1.4-.4.6 0 1 0 1.4.3.4.2.7.6 1 1l.3 1.5v4.9h-2.2v-4.5c0-.5 0-.8-.3-1-.3-.3-.6-.5-1-.5-.3 0-.6 0-.8.2l-.5.5-.2.9Zm10 7.4a5.002 5.002 0 0 1-1.7-.3 3.001 3.001 0 0 1-1.2-.7c-.3-.3-.4-.7-.5-1.1l2-.3a1.303 1.303 0 0 0 .7.8l.8.1c.5 0 .9-.1 1.2-.3.3-.3.4-.6.4-1.2v-1.4a2.009 2.009 0 0 1-1.2 1.1l-1 .2c-.6 0-1.2-.1-1.6-.4-.5-.3-.9-.7-1.1-1.2a4.801 4.801 0 0 1 0-4.3c.2-.6.6-1 1-1.3a2.908 2.908 0 0 1 2.7-.2l.7.5.4.6h.1v-1.2h2.1v7.7a2.798 2.798 0 0 1-1.8 2.6 5.983 5.983 0 0 1-2 .3Zm.1-4.7c.4 0 .6 0 .9-.3.2-.1.4-.4.5-.7.2-.3.2-.7.2-1.1 0-.5 0-.9-.2-1.2l-.5-.8c-.3-.2-.5-.3-.9-.3l-.9.3-.5.8-.2 1.2c0 .4 0 .8.2 1.1.1.3.3.6.5.7.3.2.6.3 1 .3h-.1Zm7.6 1.8c-.5 0-1 0-1.3-.2-.4-.2-.7-.4-1-.8-.2-.3-.3-.7-.3-1.2s.1-.8.3-1.1c.1-.3.3-.5.6-.7a3.016 3.016 0 0 1 1-.4l1-.2c.57-.082 1.137-.182 1.7-.3l.1-.4a1.003 1.003 0 0 0-.3-.7c-.1-.2-.4-.3-.8-.3s-.7 0-.9.3c-.2.1-.4.3-.4.6l-2-.2a2.697 2.697 0 0 1 1.7-2l1.6-.2 1.2.1 1 .5a2.205 2.205 0 0 1 1 2v5.1h-2v-1a2.1 2.1 0 0 1-1.2 1 3.01 3.01 0 0 1-1 .1Zm.6-1.4c.3 0 .6 0 .8-.2l.6-.5.2-.7v-.8h-.3a5.115 5.115 0 0 1-.8.2l-.4.1-.7.2a1.005 1.005 0 0 0-.4.3l-.1.5c0 .3 0 .5.3.7l.8.2Zm8.7 4.3a5.002 5.002 0 0 1-1.7-.3 3.001 3.001 0 0 1-1.2-.7c-.3-.3-.5-.7-.5-1.1l2-.3a1.303 1.303 0 0 0 .7.8l.8.1c.5 0 .8-.1 1.1-.3.3-.3.5-.6.5-1.2v-1.4h-.1a2 2 0 0 1-1.1 1.1l-1 .2c-.7 0-1.2-.1-1.6-.4-.5-.3-.9-.7-1.2-1.2-.2-.6-.4-1.3-.4-2.1 0-.9.2-1.6.4-2.2.3-.6.7-1 1.2-1.3a2.906 2.906 0 0 1 2.6-.2l.7.5.4.6v-1.2h2.2v7.7c0 .6-.2 1.2-.5 1.6-.3.4-.8.8-1.3 1a5.983 5.983 0 0 1-2 .3Zm0-4.7c.4 0 .7 0 1-.3.2-.1.4-.4.5-.7l.2-1.1c0-.5 0-.9-.2-1.2l-.5-.8c-.3-.2-.6-.3-1-.3-.3 0-.5.1-.8.3l-.5.8c-.2.3-.2.7-.2 1.2 0 .4 0 .8.2 1.1.1.3.3.6.5.7.3.2.5.3.9.3h-.1Zm9 1.8a3.996 3.996 0 0 1-2-.4c-.6-.3-1-.8-1.4-1.4-.3-.6-.4-1.3-.4-2 0-.9.1-1.6.4-2.2.3-.5.8-1 1.3-1.3.6-.4 1.2-.5 2-.5.5 0 1 0 1.4.2a3.1 3.1 0 0 1 1.9 2c.2.4.3 1 .3 1.6v.6h-6.5v-1.3h4.5l-.2-.8-.6-.6-.8-.2-.9.3a1 1 0 0 0-.5.6c-.2.2-.2.5-.2.8v1.2c0 .4 0 .7.2 1 .1.3.3.5.6.6.2.2.5.3.9.3l.6-.1.5-.3c.2-.2.3-.3.3-.5l2 .1c0 .5-.3.9-.6 1.2-.317.397-.73.707-1.2.9-.5.2-1 .2-1.7.2h.1Zm4.8-.1v-7.6h2v1.3h.1c.2-.4.5-.8.8-1 .4-.3.9-.4 1.4-.4.5 0 1 0 1.3.4.4.2.6.6.7 1h.1c.2-.4.5-.8.9-1 .4-.3.9-.4 1.4-.4.7 0 1.3.2 1.8.6.4.5.6 1.1.6 2v5.1h-2v-4.7c0-.4-.2-.8-.4-1-.2-.2-.5-.3-.9-.3s-.7.1-.9.4c-.2.2-.3.5-.3 1v4.6h-2v-4.8c0-.3-.2-.6-.4-.9-.2-.2-.5-.3-.8-.3-.2 0-.5 0-.6.2l-.5.5-.1.7v4.6h-2.2Zm16.3.1a3.996 3.996 0 0 1-2-.4 2.998 2.998 0 0 1-1.3-1.4c-.4-.6-.5-1.3-.5-2 0-.9.1-1.6.5-2.2.3-.5.7-1 1.2-1.3.6-.4 1.3-.5 2-.5.5 0 1 0 1.4.2a3.094 3.094 0 0 1 2 2l.2 1.6v.6h-6.5v-1.3h4.5c0-.3 0-.6-.2-.8l-.6-.6-.8-.2c-.3 0-.6.1-.8.3-.3.1-.5.3-.6.6l-.2.8v1.2c0 .4 0 .7.2 1 .1.3.3.5.6.6.3.2.6.3 1 .3l.6-.1.5-.3.3-.5 2 .1c-.2.5-.4.9-.7 1.2-.317.397-.73.707-1.2.9-.4.2-1 .2-1.6.2Zm7-4.5v4.4h-2.1v-7.6h2v1.3c.2-.444.556-.8 1-1 .3-.3.8-.4 1.4-.4.5 0 1 0 1.4.3.4.2.7.6.9 1 .2.4.3 1 .3 1.5v4.9h-2.1v-4.5c0-.5-.1-.8-.4-1-.2-.3-.5-.5-1-.5-.3 0-.5 0-.7.2l-.5.5-.2.9Zm10.6-3.2v1.6h-4.6v-1.6h4.6Zm-3.5-1.9h2.1v7.6l.3.2.4.1h.5l.4 1.5a6.017 6.017 0 0 1-1.2.2c-.5 0-1 0-1.3-.2-.4-.2-.7-.4-.9-.7-.2-.4-.3-.8-.3-1.3v-7.4Zm-73.7 24V320h-3.7v-14l-4 2.6v-3.3l4.2-2.8h3.5Zm4.8 17.5 7.3-14.3v-.1h-8.4v-3h12.2v3l-7.2 14.4h-3.9Zm12.8.2a1.991 1.991 0 0 1-1.5-.6 2 2 0 0 1-.6-1.4c0-.6.2-1 .6-1.5a1.991 1.991 0 0 1 1.5-.6c.5 0 1 .2 1.4.6.4.4.6 1 .6 1.5 0 .4 0 .7-.3 1-.1.3-.4.6-.7.7-.301.187-.646.29-1 .3Zm5-.2 7.2-14.3v-.1h-8.4v-3h12.3v3l-7.3 14.4h-3.8Zm19.3 0v-17.5h3.6v7.7h.3l6.3-7.7h4.4l-6.5 7.9 6.6 9.6H258l-4.7-7.2-1.9 2.2v5h-3.5Z" fill="#191B23"/><path d="M270.4 319.5v-5.7h1.2v5.7h-1.2Zm-2.3-2.3v-1.1h5.8v1.1H268h.1Zm10.8 4c-.5 0-1-.2-1.4-.4-.4-.2-.8-.5-1-.8a1.998 1.998 0 0 1-.4-1.3h1.2c0 .4.2.7.5 1 .3.2.7.3 1.1.3.4 0 .7 0 1-.2l.5-.7c.2-.2.3-.5.3-.9s-.1-.7-.3-1l-.6-.6c-.3-.2-.6-.2-1-.2h-.7l-.7.4-1.2-.1.5-4.4h4.8v1.1h-3.7l-.3 2.4.8-.4.9-.1a2.699 2.699 0 0 1 2.4 1.4c.2.4.3 1 .3 1.5s0 1-.4 1.5c-.2.4-.6.8-1 1-.485.28-1.04.419-1.6.4v.1Zm8 0c-.4 0-.7-.2-1.1-.3-.4-.1-.7-.4-1-.7-.4-.3-.6-.7-.8-1.3a8.205 8.205 0 0 1 0-4c.1-.6.3-1 .6-1.5a3.007 3.007 0 0 1 1-1l1.4-.2c.6 0 1 0 1.4.3.4.2.8.4 1 .8.3.4.4.8.5 1.2h-1.3l-.5-.9a2.001 2.001 0 0 0-2.6.5c-.3.6-.5 1.4-.5 2.4a2.4 2.4 0 0 1 1.4-1c.2-.2.5-.2.8-.2.5 0 1 .1 1.4.4.4.2.7.5 1 1 .2.4.4.9.4 1.4 0 .6-.2 1.1-.4 1.6-.3.4-.6.8-1 1a3 3 0 0 1-1.7.4v.1Zm0-1.2c.4 0 .7 0 1-.2l.5-.7c.2-.3.3-.6.3-1l-.2-.9-.7-.6c-.2-.2-.5-.2-.8-.2a1.71 1.71 0 0 0-1.3.5 1.803 1.803 0 0 0-.5 1.3 1.897 1.897 0 0 0 .8 1.6l1 .2h-.1Zm5 1v-1l3-3c.431-.509.832-1.044 1.2-1.6l.2-.7c0-.3 0-.6-.2-.8l-.6-.5-.8-.1-.8.1-.5.6c-.2.2-.2.5-.2.8h-1.3c0-.5.1-1 .4-1.4.2-.4.6-.7 1-1l1.4-.2c.6 0 1 0 1.5.3.4.2.7.5 1 .9a2.593 2.593 0 0 1 .2 2.2l-.7 1-1.2 1.4-1.8 1.8h4v1.2h-5.8Zm11.2-4.4c0-1 .2-2 .4-3 .3-.8.7-1.6 1.3-2.4h1.1l-.5 1a9.88 9.88 0 0 0-.8 2.9 10.502 10.502 0 0 0 1.3 7h-1.1a8.802 8.802 0 0 1-1.7-5.5Zm7.3 4.5c-.6 0-1.1 0-1.6-.3-.4-.2-.8-.5-1-.8-.3-.4-.5-.8-.5-1.3h1.4c0 .3 0 .5.2.7l.6.4.9.2c.3 0 .6 0 1-.2l.5-.5c.2-.2.3-.5.3-.7 0-.3-.1-.6-.3-.8a1 1 0 0 0-.6-.5c-.3-.2-.6-.2-1-.2h-.8V316h.8c.3 0 .6 0 .8-.2.3 0 .4-.3.6-.5l.2-.7c0-.3 0-.5-.2-.7l-.5-.5-.8-.1a2.01 2.01 0 0 0-.8.1l-.6.5-.2.6h-1.3c0-.4.2-.8.4-1.2.3-.4.6-.6 1-.8l1.5-.3c.6 0 1 0 1.5.3l1 .8.3 1.2a1.903 1.903 0 0 1-1.5 2c.5.1 1 .3 1.3.7.3.4.5.9.5 1.4 0 .5-.1 1-.4 1.3-.3.4-.6.7-1.1.9-.5.2-1 .3-1.6.3Zm9.3-1.7v-.5l.2-.9.6-.7 1-.2c.4 0 .7 0 1 .2l.6.7.2.9v.5c0 .3 0 .6-.2.9a1.6 1.6 0 0 1-1.6.9c-.4 0-.7-.1-1-.3l-.6-.6a1.997 1.997 0 0 1-.2-1v.1Zm1-.5v.5c0 .2 0 .4.2.6.1.2.3.3.6.3s.5 0 .6-.3l.2-.6v-.5c0-.2 0-.5-.2-.7 0-.2-.3-.3-.6-.3s-.5.1-.6.3l-.2.7Zm-5.4-4.5v-.5l.3-.9a1.598 1.598 0 0 1 1.5-1c.4 0 .7.2 1 .3.3.2.5.4.6.7l.2 1v.4c0 .3 0 .6-.2.9-.1.3-.3.5-.6.6-.3.2-.6.3-1 .3s-.7-.1-1-.3a1 1 0 0 1-.5-.6 2.001 2.001 0 0 1-.3-1v.1Zm1-.5v.5l.2.6c.1.2.3.3.6.3s.5 0 .6-.3l.2-.6v-.5c0-.2 0-.5-.2-.7 0-.2-.3-.3-.6-.3s-.5.1-.6.3l-.2.7Zm-.5 7.1 6-8.7h1l-6 8.7h-1Zm11.8-4.4c0 1.1-.2 2-.4 3-.3.9-.7 1.7-1.3 2.5h-1.1l.6-1a9.824 9.824 0 0 0 .8-3 10.602 10.602 0 0 0-1.4-6.9h1.1a8.798 8.798 0 0 1 1.7 5.4Z" fill="#007C65"/></g><mask id="mask6_1005_153" style="mask-type:luminance" maskUnits="userSpaceOnUse" x="197" y="349" width="107" height="52"><path d="M197 349h107v52H197v-52Z" fill="#fff"/></mask><g mask="url(#mask6_1005_153)"><path d="M197.9 364v-10.2h4a4.006 4.006 0 0 1 2 .5c.5.3 1 .7 1.2 1.2.3.5.5 1 .5 1.8a4.002 4.002 0 0 1-.5 1.8c-.303.522-.756.94-1.3 1.2a3.996 3.996 0 0 1-2 .4h-2.5V359h2.2l1-.2.6-.6c.2-.3.2-.6.2-1 0-.3 0-.6-.2-.8a.896.896 0 0 0-.6-.6c-.2-.2-.6-.2-1-.2H200v8.4h-2.1Zm12.3.1a3.996 3.996 0 0 1-2-.4c-.5-.4-1-.8-1.3-1.4-.3-.6-.4-1.3-.4-2 0-.9.1-1.6.4-2.2.3-.6.8-1 1.3-1.3.6-.4 1.3-.5 2-.5.8 0 1.5.1 2 .5.6.3 1 .8 1.3 1.3.3.6.5 1.3.5 2.1s-.2 1.5-.5 2c-.3.7-.7 1.1-1.3 1.5a3.996 3.996 0 0 1-2 .4Zm0-1.6c.4 0 .7 0 1-.3l.5-.8.1-1.2-.1-1.2c-.2-.3-.3-.6-.6-.8-.2-.2-.5-.3-.9-.3-.3 0-.6 0-.8.3-.3.2-.5.5-.6.8l-.2 1.2c0 .4 0 .8.2 1.2.1.3.3.6.6.8.2.2.5.3.8.3Zm11.5-4-2 .2a1.005 1.005 0 0 0-.1-.5l-.5-.3-.6-.1c-.3 0-.6 0-.8.2-.2.1-.4.3-.4.5s.1.4.3.5l.7.3 1.4.3c.7.1 1.3.4 1.7.7.3.3.5.8.5 1.3s-.1 1-.4 1.4c-.3.3-.7.6-1.2.8-.6.2-1.1.3-1.8.3-1 0-1.8-.2-2.4-.6a2.001 2.001 0 0 1-1-1.7l2-.1c0 .3.2.5.5.7l1 .2c.3 0 .6 0 .8-.2.2-.1.3-.3.3-.6 0-.1 0-.3-.2-.4-.2-.2-.4-.2-.7-.3l-1.4-.3c-.7-.1-1.3-.4-1.6-.8a2 2 0 0 1-.6-1.4c0-.5.2-.9.4-1.2a1.998 1.998 0 0 1 1.2-.8c.5-.2 1-.3 1.7-.3 1 0 1.7.2 2.3.6.5.4.8 1 1 1.6h-.1Zm5.6-2.1v1.6h-4.6v-1.6h4.6Zm-3.6-1.9h2.2v7.6l.3.2.4.1h.5l.3 1.5c-.36.101-.728.168-1.1.2-.5 0-1 0-1.4-.2l-.8-.7a1.998 1.998 0 0 1-.4-1.3v-7.4Zm11.2 4-2 .2a1.005 1.005 0 0 0-.1-.5l-.5-.3-.6-.1c-.3 0-.6 0-.8.2-.2.1-.4.3-.4.5s.1.4.3.5l.7.3 1.4.3c.7.1 1.3.4 1.7.7.3.3.5.8.5 1.3s-.1 1-.4 1.4c-.3.3-.7.6-1.2.8-.5.2-1.1.3-1.8.3-1 0-1.8-.2-2.4-.6a2.001 2.001 0 0 1-1-1.7l2-.1c0 .3.2.5.5.7l1 .2c.3 0 .6 0 .8-.2.2-.1.4-.3.4-.6l-.3-.4c-.1-.2-.4-.2-.7-.3l-1.3-.3c-.8-.1-1.3-.4-1.7-.8a2 2 0 0 1-.6-1.4c0-.5.2-.9.4-1.2a1.998 1.998 0 0 1 1.2-.8c.5-.2 1-.3 1.7-.3 1 0 1.7.2 2.3.6.5.4.8 1 1 1.6h-.1ZM198.4 396v-2.7l6.2-5.7 1.4-1.4.8-1.2c.2-.4.3-.8.3-1.3s-.2-1-.4-1.3c-.2-.4-.5-.7-1-.9a3.002 3.002 0 0 0-1.3-.3c-.5 0-1 .1-1.4.4-.4.2-.7.5-1 .9a3.013 3.013 0 0 0-.3 1.4h-3.5c0-1.1.3-2.1.8-3 .5-.8 1.3-1.4 2.2-1.9 1-.5 2-.7 3.2-.7 1.3 0 2.4.2 3.3.7a4.701 4.701 0 0 1 3 4.5 6.698 6.698 0 0 1-1.8 4l-2.8 2.9-2.6 2.5h7.4v3.1h-12.5Zm14.5-3v-3l7.3-11.5h2.5v4h-1.5l-4.6 7.3v.2H227v3h-14.1Zm8.4 3v-17.5h3.5V396h-3.5Z" fill="#191B23"/><path d="M236.4 395.5v-5.7h1.2v5.7h-1.2Zm-2.3-2.3v-1.1h5.8v1.1H234h.1Zm12.2-5v8.8H245v-7.4l-2.2 1.4v-1.3l2.2-1.4h1.3v-.1Zm7 4.4a8.798 8.798 0 0 1 1.7-5.4h1.1l-.6 1a9.88 9.88 0 0 0-.8 2.9 10.598 10.598 0 0 0 1.4 7H255a8.802 8.802 0 0 1-1.7-5.5Zm4 2.7v-1l3.7-6h.9v1.5h-.6l-2.7 4.3h5.2v1.2h-6.5Zm4.1 1.7v-8.7h1.3v8.7h-1.3Zm8.5-1.6v-.5c0-.3 0-.6.2-.9.1-.3.4-.5.6-.7l1-.2c.4 0 .7 0 1 .2l.5.7.3.9v.5l-.3.9a1.607 1.607 0 0 1-1.5.9c-.4 0-.7-.1-1-.3-.3-.1-.5-.4-.6-.6a1.997 1.997 0 0 1-.2-1v.1Zm1-.5v.5c0 .2 0 .4.2.6 0 .2.3.3.6.3s.5 0 .6-.3l.2-.6v-.5l-.2-.7c-.1-.2-.3-.3-.6-.3s-.5.1-.6.3l-.2.7Zm-5.4-4.5v-.5c0-.3 0-.6.2-.9a1.596 1.596 0 0 1 1.6-1c.4 0 .7.2 1 .3l.6.7.2 1v.4l-.2.9-.6.6c-.3.2-.6.3-1 .3s-.7-.1-1-.3l-.6-.6a1.997 1.997 0 0 1-.2-1v.1Zm1-.5v.5c0 .2 0 .4.2.6.1.2.3.3.6.3s.5 0 .6-.3l.2-.6v-.5c0-.2 0-.5-.2-.7-.1-.2-.3-.3-.6-.3s-.5.1-.6.3l-.2.7Zm-.6 7.1 6-8.7h1l-6 8.7h-1Zm11.9-4.4c0 1.1-.2 2-.5 3-.2.9-.7 1.7-1.2 2.5h-1.2l.6-1a9.824 9.824 0 0 0 .8-3 10.602 10.602 0 0 0-1.4-6.9h1.2a8.798 8.798 0 0 1 1.7 5.4Z" fill="#007C65"/></g><path d="m364 245 4-8.3 4-3.7 4.1 3.7 4-11h4l4.1 2 4-2 4 2 4.1-5.5h4l4-3 4.1-2.6 4-1.1 4 3.7h8.1l4-2.6 4.1 2.6h4l4-3.9h4.1l4 3 4-2h4.1l4-2.7 4-6.4 4.1-7.2 4-1.8 4-1.2h4.1" stroke="#59DDAA" stroke-width="3" stroke-linecap="round"/><path d="m364 397 4-.3h4l4.1-24 4 24h4l4.1-16 4 16h4l4.1-32 4 16 4 16h4.1l4-8h8.1l4 8 4-8 4.1-8 4 16h4l4.1-24 4 24h4l4.1-40 4 40 4 .3h4.1l4-16 4 16h4.1" stroke="#2BB3FF" stroke-width="3" stroke-linecap="round"/><path d="m364 321.3 4-.3h4l4.1-10 4 10h4l4.1-11 4 11h4l4.1-24h4l4 24h4.1l4-3 4-2 4.1-11 4 16 4-2 4.1-4 4 6h4l4.1-32 4 32h4l4.1-8 4 8 4 .3h4.1l4-40 4 40h4.1" stroke="#F67CF2" stroke-width="3" stroke-linecap="round"/><path d="M177 260h328v1H177v-1Zm0 77h328v1H177v-1Z" fill="#E0E1E9"/></g><defs><radialGradient id="paint0_radial_1005_153" cx="0" cy="0" r="1" gradientUnits="userSpaceOnUse" gradientTransform="rotate(-123 74.6 2.5) scale(42)"><stop offset=".1" stop-color="#ED1676"/><stop offset=".6" stop-color="#BC3BC1"/><stop offset="1" stop-color="#2770E6"/></radialGradient><radialGradient id="paint1_radial_1005_153" cx="0" cy="0" r="1" gradientUnits="userSpaceOnUse" gradientTransform="matrix(0 -20 57 0 92.2 66)"><stop stop-color="#FFC085"/><stop offset=".2" stop-color="#FFB574" stop-opacity=".9"/><stop offset=".7" stop-color="#FE7512" stop-opacity=".3"/><stop offset="1" stop-color="#F90909" stop-opacity="0"/></radialGradient><radialGradient id="paint2_radial_1005_153" cx="0" cy="0" r="1" gradientUnits="userSpaceOnUse" gradientTransform="rotate(-123 74.6 2.5) scale(42)"><stop offset=".1" stop-color="#ED1676"/><stop offset=".6" stop-color="#BC3BC1"/><stop offset="1" stop-color="#2770E6"/></radialGradient><radialGradient id="paint3_radial_1005_153" cx="0" cy="0" r="1" gradientUnits="userSpaceOnUse" gradientTransform="matrix(0 -20 57 0 92.2 66)"><stop stop-color="#FFC085"/><stop offset=".2" stop-color="#FFB574" stop-opacity=".9"/><stop offset=".7" stop-color="#FE7512" stop-opacity=".3"/><stop offset="1" stop-color="#F90909" stop-opacity="0"/></radialGradient><radialGradient id="paint4_radial_1005_153" cx="0" cy="0" r="1" gradientUnits="userSpaceOnUse" gradientTransform="rotate(-123 74.6 2.5) scale(42)"><stop offset=".1" stop-color="#ED1676"/><stop offset=".6" stop-color="#BC3BC1"/><stop offset="1" stop-color="#2770E6"/></radialGradient><radialGradient id="paint5_radial_1005_153" cx="0" cy="0" r="1" gradientUnits="userSpaceOnUse" gradientTransform="matrix(0 -20 57 0 92.2 66)"><stop stop-color="#FFC085"/><stop offset=".2" stop-color="#FFB574" stop-opacity=".9"/><stop offset=".7" stop-color="#FE7512" stop-opacity=".3"/><stop offset="1" stop-color="#F90909" stop-opacity="0"/></radialGradient><filter id="filter0_d_1005_153" x="0" y="0" width="456" height="396" filterUnits="userSpaceOnUse" color-interpolation-filters="sRGB"><feFlood flood-opacity="0" result="BackgroundImageFix"/><feColorMatrix in="SourceAlpha" values="0 0 0 0 0 0 0 0 0 0 0 0 0 0 0 0 0 0 127 0" result="hardAlpha"/><feOffset dx="4" dy="4"/><feGaussianBlur stdDeviation="9"/><feColorMatrix values="0 0 0 0 0.537255 0 0 0 0 0.552941 0 0 0 0 0.603922 0 0 0 0.3 0"/><feBlend in2="BackgroundImageFix" result="effect1_dropShadow_1005_153"/><feBlend in="SourceGraphic" in2="effect1_dropShadow_1005_153" result="shape"/></filter><filter id="filter1_d_1005_153" x="289.2" y="32.4" width="41.6" height="23.2" filterUnits="userSpaceOnUse" color-interpolation-filters="sRGB"><feFlood flood-opacity="0" result="BackgroundImageFix"/><feColorMatrix in="SourceAlpha" values="0 0 0 0 0 0 0 0 0 0 0 0 0 0 0 0 0 0 127 0" result="hardAlpha"/><feOffset dy="1.6"/><feGaussianBlur stdDeviation="2.4"/><feComposite in2="hardAlpha" operator="out"/><feColorMatrix values="0 0 0 0 0 0 0 0 0 0 0 0 0 0 0 0 0 0 0.2 0"/><feBlend in2="BackgroundImageFix" result="effect1_dropShadow_1005_153"/><feBlend in="SourceGraphic" in2="effect1_dropShadow_1005_153" result="shape"/></filter><filter id="filter2_d_1005_153" x="142" y="142" width="418" height="330" filterUnits="userSpaceOnUse" color-interpolation-filters="sRGB"><feFlood flood-opacity="0" result="BackgroundImageFix"/><feColorMatrix in="SourceAlpha" values="0 0 0 0 0 0 0 0 0 0 0 0 0 0 0 0 0 0 127 0" result="hardAlpha"/><feOffset dx="10" dy="10"/><feGaussianBlur stdDeviation="22.5"/><feColorMatrix values="0 0 0 0 0 0 0 0 0 0 0 0 0 0 0 0 0 0 0.1 0"/><feBlend in2="BackgroundImageFix" result="effect1_dropShadow_1005_153"/><feBlend in="SourceGraphic" in2="effect1_dropShadow_1005_153" result="shape"/></filter><clipPath id="clip0_1005_153"><path fill="#fff" d="M0 0h560v472H0z"/></clipPath></defs></svg>
